<svg xmlns="http://www.w3.org/2000/svg" xmlns:xlink="http://www.w3.org/1999/xlink" width="96" zoomAndPan="magnify" viewBox="0 0 72 72" height="96" preserveAspectRatio="xMidYMid meet" version="1.0"><defs><filter x="0%" y="0%" width="100%" height="100%" id="80a44aa4f7"><feColorMatrix values="0 0 0 0 1 0 0 0 0 1 0 0 0 0 1 0 0 0 1 0" color-interpolation-filters="sRGB"/></filter><mask id="e528d568f2"><g filter="url(#80a44aa4f7)"><rect x="-7.2" width="86.4" fill="#000000" y="-7.2" height="86.4" fill-opacity="0.21"/></g></mask><clipPath id="3392df1658"><path d="M 2 2 L 27 2 L 27 5.9375 L 2 5.9375 Z M 2 2 " clip-rule="nonzero"/></clipPath><clipPath id="0c49755f4f"><path d="M 0.53125 0.6875 L 29.03125 0.6875 L 29.03125 5.9375 L 0.53125 5.9375 Z M 0.53125 0.6875 " clip-rule="nonzero"/></clipPath><clipPath id="2c24d2f7f1"><rect x="0" width="30" y="0" height="7"/></clipPath><clipPath id="4939be85a2"><path d="M 11.144531 3.601562 L 60.644531 3.601562 L 60.644531 68.101562 L 11.144531 68.101562 Z M 11.144531 3.601562 " clip-rule="nonzero"/></clipPath></defs><g mask="url(#e528d568f2)"><g transform="matrix(1, 0, 0, 1, 23, 37)"><g clip-path="url(#2c24d2f7f1)"><g clip-path="url(#3392df1658)"><path fill="#375726" d="M 12.757812 3.023438 C 12.386719 3.21875 11.886719 3.429688 11.277344 3.582031 C 11.082031 3.234375 10.640625 2.632812 9.824219 2.300781 C 9.09375 2.003906 8.425781 2.078125 8.089844 2.152344 C 8.085938 2.152344 8.082031 2.152344 8.078125 2.15625 C 8.078125 2.15625 8.078125 2.15625 8.074219 2.160156 C 8.070312 2.160156 8.070312 2.164062 8.066406 2.171875 C 8.0625 2.175781 8.0625 2.179688 8.0625 2.183594 C 8.0625 2.1875 8.0625 2.1875 8.0625 2.1875 C 8.066406 2.191406 8.066406 2.195312 8.066406 2.199219 C 8.066406 2.199219 8.066406 2.199219 8.066406 2.203125 C 8.234375 2.5 8.613281 3.054688 9.320312 3.40625 C 9.761719 3.632812 10.191406 3.707031 10.554688 3.71875 C 10.285156 3.753906 10 3.777344 9.703125 3.777344 C 9.058594 3.78125 8.417969 3.6875 7.796875 3.503906 C 7.585938 3.171875 7.109375 2.582031 6.265625 2.292969 C 5.519531 2.035156 4.855469 2.148438 4.527344 2.238281 C 4.523438 2.238281 4.523438 2.242188 4.523438 2.242188 C 4.519531 2.242188 4.519531 2.242188 4.515625 2.246094 C 4.511719 2.246094 4.511719 2.246094 4.511719 2.25 C 4.507812 2.25 4.503906 2.253906 4.503906 2.261719 C 4.5 2.265625 4.5 2.269531 4.5 2.273438 C 4.5 2.277344 4.5 2.277344 4.5 2.28125 C 4.503906 2.28125 4.503906 2.285156 4.503906 2.289062 C 4.503906 2.289062 4.503906 2.289062 4.503906 2.292969 C 4.6875 2.582031 5.097656 3.113281 5.820312 3.425781 C 6.242188 3.609375 6.648438 3.671875 6.992188 3.671875 C 7.316406 3.671875 7.585938 3.617188 7.769531 3.570312 C 8.027344 3.644531 8.292969 3.707031 8.554688 3.75 C 7.414062 3.96875 6.25 4.070312 5.089844 4.046875 C 4.304688 4.03125 3.511719 3.960938 2.730469 3.835938 C 2.707031 3.832031 2.6875 3.847656 2.6875 3.871094 C 2.6875 3.882812 2.695312 3.898438 2.707031 3.902344 C 2.710938 3.902344 2.714844 3.90625 2.714844 3.90625 C 3.5 4.03125 4.300781 4.101562 5.089844 4.117188 C 5.191406 4.117188 5.296875 4.121094 5.398438 4.121094 C 5.554688 4.121094 5.707031 4.117188 5.859375 4.113281 C 5.558594 4.183594 5.265625 4.289062 4.984375 4.425781 C 4.605469 4.613281 4.257812 4.859375 3.953125 5.152344 C 3.9375 5.167969 3.9375 5.191406 3.953125 5.203125 C 3.957031 5.210938 3.96875 5.214844 3.976562 5.214844 C 3.984375 5.214844 3.996094 5.210938 4 5.203125 C 4.300781 4.914062 4.644531 4.671875 5.015625 4.488281 C 5.476562 4.261719 5.972656 4.125 6.484375 4.085938 C 6.488281 4.085938 6.488281 4.082031 6.492188 4.082031 C 7.253906 4.035156 8.011719 3.933594 8.757812 3.78125 C 9.066406 3.824219 9.375 3.847656 9.683594 3.847656 C 9.691406 3.847656 9.699219 3.847656 9.703125 3.847656 C 9.789062 3.847656 9.871094 3.84375 9.949219 3.839844 C 9.617188 3.941406 9.242188 4.117188 8.886719 4.421875 C 8.289062 4.9375 8.050781 5.566406 7.964844 5.894531 C 7.964844 5.894531 7.964844 5.898438 7.964844 5.898438 C 7.964844 5.902344 7.964844 5.90625 7.964844 5.90625 C 7.964844 5.910156 7.964844 5.910156 7.964844 5.914062 C 7.964844 5.917969 7.96875 5.921875 7.972656 5.925781 C 7.972656 5.929688 7.976562 5.933594 7.984375 5.9375 C 7.988281 5.9375 7.992188 5.9375 7.996094 5.9375 C 7.996094 5.9375 7.996094 5.9375 8 5.9375 C 8.339844 5.929688 9.007812 5.839844 9.644531 5.375 C 10.371094 4.847656 10.648438 4.136719 10.75 3.757812 C 10.929688 3.730469 11.101562 3.695312 11.269531 3.65625 C 11.894531 3.503906 12.410156 3.285156 12.789062 3.085938 C 12.808594 3.078125 12.8125 3.054688 12.804688 3.039062 C 12.796875 3.023438 12.773438 3.015625 12.757812 3.023438 Z M 6.242188 2.359375 C 7.003906 2.621094 7.457031 3.128906 7.683594 3.460938 L 4.648438 2.28125 C 4.996094 2.199219 5.585938 2.132812 6.242188 2.359375 Z M 5.847656 3.363281 C 5.214844 3.085938 4.824219 2.636719 4.625 2.34375 L 7.660156 3.523438 C 7.265625 3.617188 6.585938 3.683594 5.847656 3.363281 Z M 9.796875 2.363281 C 10.542969 2.667969 10.964844 3.199219 11.175781 3.542969 L 8.210938 2.199219 C 8.5625 2.136719 9.15625 2.101562 9.796875 2.363281 Z M 8.183594 2.261719 L 11.148438 3.605469 C 10.75 3.675781 10.066406 3.707031 9.351562 3.347656 C 8.730469 3.035156 8.367188 2.5625 8.183594 2.261719 Z M 8.929688 4.476562 C 9.539062 3.953125 10.207031 3.816406 10.609375 3.789062 L 8.0625 5.808594 C 8.167969 5.472656 8.40625 4.925781 8.929688 4.476562 Z M 9.605469 5.320312 C 9.042969 5.726562 8.460938 5.839844 8.105469 5.863281 L 10.65625 3.84375 C 10.535156 4.226562 10.253906 4.847656 9.605469 5.320312 Z M 16.53125 2.917969 C 16.527344 2.933594 16.515625 2.941406 16.5 2.941406 C 16.496094 2.941406 16.492188 2.941406 16.488281 2.9375 C 16.484375 2.9375 16.480469 2.933594 16.476562 2.929688 C 16.457031 2.921875 16.453125 2.898438 16.464844 2.882812 C 16.472656 2.867188 16.496094 2.863281 16.511719 2.871094 C 16.527344 2.878906 16.539062 2.902344 16.53125 2.917969 Z M 26.835938 3.835938 C 26.054688 3.960938 25.261719 4.03125 24.476562 4.046875 C 23.316406 4.070312 22.148438 3.96875 21 3.75 C 21.261719 3.703125 21.519531 3.644531 21.773438 3.570312 C 21.957031 3.617188 22.230469 3.671875 22.550781 3.671875 C 22.898438 3.671875 23.300781 3.609375 23.722656 3.425781 C 24.445312 3.113281 24.859375 2.582031 25.039062 2.292969 C 25.039062 2.289062 25.039062 2.289062 25.039062 2.289062 C 25.042969 2.285156 25.042969 2.28125 25.042969 2.28125 C 25.042969 2.277344 25.042969 2.277344 25.042969 2.273438 C 25.042969 2.269531 25.042969 2.265625 25.042969 2.261719 C 25.039062 2.253906 25.039062 2.25 25.035156 2.25 C 25.03125 2.246094 25.03125 2.246094 25.03125 2.246094 C 25.027344 2.242188 25.023438 2.242188 25.019531 2.242188 C 25.019531 2.242188 25.019531 2.238281 25.019531 2.238281 C 24.6875 2.148438 24.023438 2.035156 23.28125 2.292969 C 22.433594 2.582031 21.960938 3.171875 21.75 3.503906 C 21.128906 3.6875 20.484375 3.78125 19.839844 3.777344 C 19.542969 3.777344 19.261719 3.753906 18.992188 3.71875 C 19.351562 3.707031 19.785156 3.628906 20.226562 3.40625 C 20.929688 3.054688 21.3125 2.5 21.476562 2.203125 C 21.476562 2.199219 21.476562 2.199219 21.476562 2.199219 C 21.480469 2.195312 21.480469 2.191406 21.480469 2.1875 C 21.480469 2.1875 21.480469 2.1875 21.480469 2.183594 C 21.480469 2.179688 21.480469 2.175781 21.480469 2.171875 C 21.476562 2.164062 21.472656 2.160156 21.46875 2.160156 C 21.46875 2.15625 21.46875 2.15625 21.464844 2.15625 C 21.464844 2.152344 21.460938 2.152344 21.457031 2.152344 C 21.457031 2.152344 21.457031 2.152344 21.453125 2.152344 C 21.121094 2.078125 20.449219 2.003906 19.71875 2.300781 C 18.902344 2.632812 18.460938 3.234375 18.265625 3.582031 C 17.671875 3.433594 17.179688 3.226562 16.8125 3.039062 C 16.796875 3.027344 16.777344 3.035156 16.765625 3.050781 C 16.757812 3.070312 16.765625 3.089844 16.78125 3.097656 C 17.15625 3.292969 17.664062 3.503906 18.277344 3.65625 C 18.277344 3.65625 18.277344 3.65625 18.28125 3.65625 C 18.445312 3.695312 18.617188 3.730469 18.792969 3.757812 C 18.894531 4.136719 19.171875 4.847656 19.898438 5.375 C 20.535156 5.839844 21.203125 5.929688 21.546875 5.9375 C 21.550781 5.9375 21.558594 5.9375 21.5625 5.9375 C 21.566406 5.933594 21.570312 5.929688 21.574219 5.925781 C 21.578125 5.921875 21.578125 5.917969 21.582031 5.914062 C 21.582031 5.910156 21.582031 5.910156 21.582031 5.910156 C 21.582031 5.90625 21.582031 5.902344 21.582031 5.898438 C 21.582031 5.898438 21.582031 5.894531 21.582031 5.894531 C 21.492188 5.566406 21.257812 4.9375 20.660156 4.421875 C 20.304688 4.117188 19.929688 3.941406 19.59375 3.839844 C 19.675781 3.84375 19.757812 3.847656 19.839844 3.847656 C 19.847656 3.847656 19.855469 3.847656 19.863281 3.847656 C 20.175781 3.847656 20.488281 3.824219 20.800781 3.78125 C 20.800781 3.78125 20.800781 3.78125 20.804688 3.78125 C 21.527344 3.929688 22.257812 4.027344 22.992188 4.078125 C 22.996094 4.082031 23.003906 4.085938 23.011719 4.085938 C 23.523438 4.125 24.019531 4.261719 24.480469 4.488281 C 24.851562 4.671875 25.195312 4.914062 25.496094 5.203125 C 25.5 5.210938 25.511719 5.214844 25.519531 5.214844 C 25.527344 5.214844 25.535156 5.210938 25.542969 5.203125 C 25.558594 5.191406 25.558594 5.167969 25.542969 5.152344 C 25.238281 4.859375 24.890625 4.613281 24.507812 4.425781 C 24.226562 4.285156 23.929688 4.179688 23.621094 4.109375 C 23.804688 4.117188 23.984375 4.121094 24.167969 4.121094 C 24.273438 4.121094 24.375 4.117188 24.480469 4.117188 C 25.269531 4.101562 26.066406 4.03125 26.851562 3.90625 C 26.855469 3.90625 26.859375 3.902344 26.859375 3.902344 C 26.875 3.894531 26.882812 3.882812 26.882812 3.871094 C 26.882812 3.847656 26.859375 3.832031 26.835938 3.835938 Z M 20.195312 3.347656 C 19.476562 3.707031 18.796875 3.675781 18.398438 3.605469 L 21.363281 2.261719 C 21.179688 2.566406 20.8125 3.035156 20.195312 3.347656 Z M 19.746094 2.363281 C 20.390625 2.101562 20.984375 2.136719 21.332031 2.199219 L 18.367188 3.542969 C 18.578125 3.199219 19.003906 2.667969 19.746094 2.363281 Z M 18.890625 3.84375 L 21.441406 5.863281 C 21.085938 5.839844 20.5 5.726562 19.941406 5.320312 C 19.292969 4.847656 19.011719 4.226562 18.890625 3.84375 Z M 21.484375 5.808594 L 18.933594 3.789062 C 19.335938 3.816406 20.007812 3.953125 20.613281 4.476562 C 21.140625 4.925781 21.378906 5.472656 21.484375 5.808594 Z M 23.695312 3.363281 C 22.960938 3.683594 22.28125 3.617188 21.886719 3.523438 L 24.921875 2.34375 C 24.71875 2.636719 24.332031 3.085938 23.695312 3.363281 Z M 23.300781 2.359375 C 23.957031 2.132812 24.550781 2.199219 24.894531 2.28125 L 21.859375 3.460938 C 22.089844 3.128906 22.542969 2.621094 23.300781 2.359375 Z M 23.300781 2.359375 " fill-opacity="1" fill-rule="nonzero"/></g><g clip-path="url(#0c49755f4f)"><path fill="#d79034" d="M 15.140625 1.078125 C 14.933594 1.253906 14.835938 1.480469 14.789062 1.679688 C 14.746094 1.484375 14.648438 1.253906 14.4375 1.078125 C 13.976562 0.6875 13.246094 0.820312 12.855469 1.1875 C 12.554688 1.472656 12.429688 1.933594 12.511719 2.484375 C 12.539062 2.660156 12.585938 2.828125 12.742188 3.074219 C 12.914062 3.339844 13.207031 3.699219 13.789062 4.347656 C 14.109375 4.703125 14.429688 5.046875 14.761719 5.402344 C 14.769531 5.410156 14.78125 5.414062 14.789062 5.414062 C 14.800781 5.414062 14.808594 5.410156 14.816406 5.402344 C 15.132812 5.066406 15.460938 4.710938 15.789062 4.347656 C 16.363281 3.707031 16.65625 3.351562 16.828125 3.085938 C 16.992188 2.832031 17.042969 2.660156 17.066406 2.484375 C 17.148438 1.933594 17.027344 1.472656 16.722656 1.1875 C 16.332031 0.820312 15.605469 0.691406 15.140625 1.078125 Z M 14.449219 1.25 C 14.652344 1.417969 14.722656 1.65625 14.746094 1.832031 L 14.753906 1.902344 C 14.753906 1.914062 14.753906 1.925781 14.753906 1.9375 L 14.753906 1.972656 C 14.753906 1.976562 14.75 1.980469 14.753906 1.988281 C 14.753906 2 14.753906 2.015625 14.753906 2.027344 C 14.753906 2.03125 14.753906 2.03125 14.753906 2.035156 C 14.753906 2.035156 14.753906 2.039062 14.753906 2.039062 C 14.753906 2.042969 14.753906 2.042969 14.753906 2.046875 C 14.753906 2.199219 14.699219 2.351562 14.601562 2.46875 C 14.484375 2.605469 14.324219 2.6875 14.148438 2.703125 C 14.007812 2.71875 13.871094 2.675781 13.765625 2.585938 C 13.65625 2.496094 13.59375 2.367188 13.578125 2.230469 C 13.558594 2.003906 13.726562 1.804688 13.953125 1.785156 C 14.132812 1.769531 14.289062 1.898438 14.304688 2.078125 C 14.316406 2.214844 14.214844 2.335938 14.078125 2.347656 C 13.96875 2.359375 13.875 2.277344 13.867188 2.171875 C 13.863281 2.152344 13.847656 2.140625 13.828125 2.140625 C 13.808594 2.140625 13.792969 2.160156 13.796875 2.179688 C 13.808594 2.324219 13.9375 2.429688 14.082031 2.417969 C 14.257812 2.402344 14.390625 2.246094 14.375 2.070312 C 14.355469 1.855469 14.164062 1.695312 13.949219 1.714844 C 13.683594 1.738281 13.488281 1.972656 13.511719 2.234375 C 13.539062 2.542969 13.796875 2.777344 14.101562 2.777344 C 14.121094 2.777344 14.136719 2.777344 14.15625 2.773438 C 14.351562 2.757812 14.527344 2.664062 14.652344 2.515625 C 14.714844 2.441406 14.761719 2.355469 14.789062 2.269531 C 14.816406 2.355469 14.863281 2.441406 14.925781 2.515625 C 15.050781 2.664062 15.230469 2.757812 15.425781 2.773438 C 15.441406 2.777344 15.460938 2.777344 15.476562 2.777344 C 15.78125 2.777344 16.042969 2.542969 16.070312 2.234375 C 16.09375 1.972656 15.894531 1.738281 15.632812 1.714844 C 15.414062 1.695312 15.222656 1.855469 15.203125 2.070312 C 15.1875 2.246094 15.320312 2.402344 15.496094 2.417969 C 15.566406 2.425781 15.636719 2.402344 15.691406 2.355469 C 15.742188 2.3125 15.777344 2.25 15.78125 2.179688 C 15.785156 2.160156 15.769531 2.140625 15.75 2.140625 C 15.730469 2.140625 15.714844 2.152344 15.714844 2.171875 C 15.707031 2.222656 15.683594 2.269531 15.644531 2.304688 C 15.605469 2.335938 15.554688 2.351562 15.503906 2.347656 C 15.363281 2.335938 15.261719 2.214844 15.273438 2.078125 C 15.289062 1.898438 15.445312 1.769531 15.625 1.785156 C 15.851562 1.804688 16.019531 2.003906 16 2.230469 C 15.988281 2.367188 15.921875 2.496094 15.8125 2.585938 C 15.707031 2.675781 15.570312 2.71875 15.429688 2.703125 C 15.253906 2.6875 15.09375 2.605469 14.980469 2.46875 C 14.878906 2.347656 14.824219 2.199219 14.824219 2.042969 C 14.824219 2.042969 14.824219 2.042969 14.824219 2.039062 C 14.824219 2.039062 14.824219 2.035156 14.824219 2.03125 C 14.824219 2.015625 14.824219 2 14.828125 1.988281 C 14.828125 1.980469 14.828125 1.976562 14.824219 1.972656 C 14.824219 1.960938 14.824219 1.953125 14.824219 1.941406 C 14.824219 1.9375 14.824219 1.9375 14.824219 1.933594 C 14.828125 1.925781 14.828125 1.914062 14.828125 1.898438 C 14.828125 1.878906 14.832031 1.855469 14.835938 1.828125 C 14.859375 1.660156 14.925781 1.417969 15.132812 1.25 C 15.5 0.941406 16.082031 1.046875 16.394531 1.339844 C 16.640625 1.570312 16.738281 1.941406 16.671875 2.390625 C 16.648438 2.535156 16.609375 2.675781 16.472656 2.886719 C 16.324219 3.113281 16.082031 3.410156 15.59375 3.949219 C 15.335938 4.238281 15.074219 4.523438 14.789062 4.824219 C 14.511719 4.53125 14.25 4.242188 13.984375 3.949219 C 13.105469 2.96875 12.957031 2.726562 12.910156 2.390625 C 12.84375 1.941406 12.941406 1.570312 13.183594 1.339844 C 13.363281 1.167969 13.636719 1.0625 13.90625 1.0625 C 14.101562 1.0625 14.292969 1.117188 14.449219 1.25 Z M 17 2.472656 C 16.972656 2.644531 16.925781 2.804688 16.769531 3.050781 C 16.597656 3.3125 16.308594 3.664062 15.738281 4.300781 C 15.417969 4.65625 15.097656 5.003906 14.789062 5.328125 C 14.464844 4.984375 14.152344 4.648438 13.84375 4.300781 C 13.261719 3.652344 12.96875 3.300781 12.804688 3.035156 C 12.652344 2.800781 12.605469 2.640625 12.582031 2.472656 C 12.503906 1.945312 12.617188 1.507812 12.90625 1.238281 C 13.117188 1.035156 13.4375 0.910156 13.753906 0.910156 C 13.972656 0.910156 14.1875 0.972656 14.367188 1.109375 C 13.972656 0.890625 13.4375 1.007812 13.136719 1.289062 C 12.875 1.535156 12.769531 1.929688 12.839844 2.402344 C 12.890625 2.75 13.039062 3.003906 13.933594 3.996094 C 14.207031 4.300781 14.476562 4.59375 14.761719 4.898438 C 14.769531 4.902344 14.78125 4.90625 14.789062 4.90625 C 14.800781 4.90625 14.808594 4.902344 14.816406 4.898438 C 15.109375 4.585938 15.378906 4.292969 15.644531 3.996094 C 16.132812 3.453125 16.382812 3.152344 16.53125 2.925781 C 16.671875 2.703125 16.71875 2.554688 16.742188 2.402344 C 16.808594 1.929688 16.703125 1.535156 16.445312 1.289062 C 16.144531 1.007812 15.609375 0.890625 15.214844 1.109375 C 15.652344 0.773438 16.316406 0.898438 16.675781 1.238281 C 16.960938 1.507812 17.074219 1.945312 17 2.472656 Z M 1.847656 2.878906 C 1.480469 2.761719 1.144531 2.796875 0.929688 2.847656 C 0.839844 2.867188 0.765625 2.929688 0.730469 3.015625 C 0.699219 3.101562 0.707031 3.195312 0.757812 3.273438 C 0.769531 3.292969 0.785156 3.3125 0.796875 3.332031 C 0.769531 3.34375 0.742188 3.355469 0.71875 3.367188 C 0.636719 3.410156 0.582031 3.488281 0.570312 3.582031 C 0.558594 3.671875 0.589844 3.761719 0.65625 3.824219 C 0.820312 3.972656 1.09375 4.167969 1.476562 4.246094 C 1.589844 4.269531 1.703125 4.28125 1.808594 4.28125 C 2.136719 4.28125 2.414062 4.183594 2.605469 4.085938 C 2.683594 4.046875 2.738281 3.96875 2.753906 3.882812 C 2.765625 3.867188 2.773438 3.851562 2.78125 3.832031 C 2.816406 3.746094 2.804688 3.648438 2.753906 3.570312 C 2.597656 3.335938 2.308594 3.027344 1.847656 2.878906 Z M 0.816406 3.238281 C 0.777344 3.179688 0.769531 3.105469 0.796875 3.042969 C 0.824219 2.976562 0.875 2.929688 0.945312 2.914062 C 1.050781 2.890625 1.183594 2.871094 1.335938 2.871094 C 1.488281 2.871094 1.652344 2.890625 1.828125 2.945312 C 2.269531 3.085938 2.542969 3.382812 2.695312 3.609375 C 2.71875 3.640625 2.730469 3.679688 2.730469 3.714844 C 2.714844 3.679688 2.695312 3.652344 2.664062 3.625 C 2.453125 3.4375 2.101562 3.207031 1.617188 3.175781 C 1.316406 3.15625 1.054688 3.222656 0.863281 3.304688 C 0.847656 3.28125 0.832031 3.257812 0.816406 3.238281 Z M 2.6875 3.855469 C 2.660156 3.894531 2.617188 3.921875 2.566406 3.933594 C 2.300781 3.992188 1.894531 4.019531 1.476562 3.820312 C 1.214844 3.695312 1.03125 3.515625 0.90625 3.359375 C 1.066406 3.296875 1.273438 3.242188 1.515625 3.242188 C 1.546875 3.242188 1.582031 3.242188 1.613281 3.246094 C 2.078125 3.273438 2.417969 3.496094 2.621094 3.679688 C 2.671875 3.722656 2.695312 3.789062 2.6875 3.855469 Z M 2.574219 4.023438 C 2.328125 4.144531 1.945312 4.269531 1.488281 4.179688 C 1.125 4.105469 0.863281 3.917969 0.703125 3.773438 C 0.652344 3.726562 0.628906 3.660156 0.636719 3.589844 C 0.648438 3.519531 0.6875 3.460938 0.75 3.429688 C 0.777344 3.417969 0.808594 3.402344 0.839844 3.386719 C 0.96875 3.554688 1.164062 3.746094 1.449219 3.882812 C 1.703125 4.003906 1.957031 4.046875 2.175781 4.046875 C 2.328125 4.046875 2.46875 4.027344 2.582031 4 C 2.597656 4 2.609375 3.992188 2.621094 3.988281 C 2.609375 4.003906 2.589844 4.015625 2.574219 4.023438 Z M 29 3.582031 C 28.984375 3.488281 28.933594 3.410156 28.847656 3.367188 C 28.824219 3.355469 28.796875 3.34375 28.769531 3.332031 C 28.785156 3.3125 28.796875 3.292969 28.808594 3.273438 C 28.859375 3.195312 28.871094 3.101562 28.835938 3.015625 C 28.800781 2.929688 28.730469 2.867188 28.636719 2.847656 C 28.421875 2.796875 28.085938 2.761719 27.71875 2.878906 C 27.257812 3.027344 26.972656 3.335938 26.8125 3.570312 C 26.761719 3.648438 26.75 3.746094 26.785156 3.832031 C 26.792969 3.851562 26.800781 3.867188 26.8125 3.882812 C 26.828125 3.96875 26.882812 4.046875 26.964844 4.085938 C 27.15625 4.183594 27.433594 4.28125 27.761719 4.28125 C 27.867188 4.28125 27.976562 4.269531 28.09375 4.246094 C 28.472656 4.167969 28.746094 3.972656 28.910156 3.824219 C 28.980469 3.761719 29.011719 3.671875 29 3.582031 Z M 26.871094 3.609375 C 27.023438 3.382812 27.296875 3.085938 27.738281 2.945312 C 27.914062 2.890625 28.082031 2.871094 28.230469 2.871094 C 28.382812 2.871094 28.515625 2.890625 28.621094 2.914062 C 28.691406 2.929688 28.746094 2.976562 28.769531 3.042969 C 28.796875 3.105469 28.789062 3.179688 28.75 3.238281 C 28.738281 3.257812 28.722656 3.28125 28.703125 3.304688 C 28.511719 3.222656 28.253906 3.15625 27.949219 3.175781 C 27.464844 3.207031 27.113281 3.4375 26.902344 3.625 C 26.875 3.652344 26.851562 3.679688 26.835938 3.714844 C 26.839844 3.679688 26.847656 3.640625 26.871094 3.609375 Z M 26.878906 3.855469 C 26.871094 3.789062 26.898438 3.722656 26.949219 3.679688 C 27.152344 3.496094 27.488281 3.273438 27.953125 3.246094 C 27.988281 3.242188 28.019531 3.242188 28.054688 3.242188 C 28.292969 3.242188 28.5 3.296875 28.660156 3.359375 C 28.535156 3.515625 28.351562 3.695312 28.089844 3.820312 C 27.671875 4.019531 27.265625 3.992188 27 3.933594 C 26.949219 3.921875 26.910156 3.894531 26.878906 3.855469 Z M 28.863281 3.773438 C 28.707031 3.917969 28.441406 4.105469 28.078125 4.179688 C 27.625 4.269531 27.238281 4.144531 26.996094 4.023438 C 26.976562 4.015625 26.960938 4.003906 26.945312 3.988281 C 26.957031 3.992188 26.972656 4 26.984375 4 C 27.097656 4.027344 27.238281 4.046875 27.390625 4.046875 C 27.613281 4.046875 27.863281 4.003906 28.121094 3.882812 C 28.402344 3.746094 28.597656 3.554688 28.726562 3.386719 C 28.757812 3.402344 28.789062 3.417969 28.816406 3.429688 C 28.878906 3.460938 28.921875 3.519531 28.929688 3.589844 C 28.9375 3.660156 28.914062 3.726562 28.863281 3.773438 Z M 3.664062 5.003906 C 3.421875 5.003906 3.222656 5.203125 3.222656 5.445312 C 3.222656 5.6875 3.421875 5.882812 3.664062 5.882812 C 3.910156 5.882812 4.105469 5.6875 4.105469 5.445312 C 4.105469 5.203125 3.910156 5.003906 3.664062 5.003906 Z M 3.664062 5.816406 C 3.460938 5.816406 3.292969 5.648438 3.292969 5.445312 C 3.292969 5.238281 3.460938 5.074219 3.664062 5.074219 C 3.871094 5.074219 4.035156 5.238281 4.035156 5.445312 C 4.035156 5.648438 3.871094 5.816406 3.664062 5.816406 Z M 25.832031 5.003906 C 25.585938 5.003906 25.390625 5.203125 25.390625 5.445312 C 25.390625 5.6875 25.585938 5.882812 25.832031 5.882812 C 26.074219 5.882812 26.273438 5.6875 26.273438 5.445312 C 26.273438 5.203125 26.074219 5.003906 25.832031 5.003906 Z M 25.832031 5.816406 C 25.625 5.816406 25.460938 5.648438 25.460938 5.445312 C 25.460938 5.238281 25.625 5.074219 25.832031 5.074219 C 26.035156 5.074219 26.203125 5.238281 26.203125 5.445312 C 26.203125 5.648438 26.035156 5.816406 25.832031 5.816406 Z M 25.832031 5.816406 " fill-opacity="1" fill-rule="nonzero"/></g></g></g></g><g clip-path="url(#4939be85a2)"><path fill="#000000" d="M 12.011719 67.859375 C 12.011719 67.417969 12.011719 67.054688 12.011719 66.691406 C 12.011719 65.714844 12.015625 64.738281 12.007812 63.761719 C 12.003906 63.152344 11.980469 62.539062 11.972656 61.929688 C 11.972656 61.773438 12.011719 61.617188 12.007812 61.464844 C 11.976562 60.714844 11.992188 59.964844 11.957031 59.214844 C 11.902344 58.15625 11.929688 57.09375 11.921875 56.035156 C 11.914062 54.703125 11.867188 53.367188 11.898438 52.035156 C 11.917969 51.277344 11.84375 50.53125 11.847656 49.78125 C 11.851562 48.957031 11.859375 48.132812 11.863281 47.3125 C 11.863281 47.171875 11.847656 47.027344 11.847656 46.882812 C 11.84375 46.542969 11.851562 46.207031 11.84375 45.871094 C 11.832031 45.351562 11.820312 44.832031 11.789062 44.316406 C 11.765625 43.980469 11.761719 43.925781 11.882812 43.640625 C 11.726562 42.796875 11.8125 42.011719 11.792969 41.226562 C 11.589844 41.117188 11.363281 41.53125 11.148438 41.164062 C 11.457031 40.914062 11.757812 40.644531 12.078125 40.40625 C 13.121094 39.640625 14.171875 38.882812 15.222656 38.128906 C 16.503906 37.203125 17.78125 36.277344 19.070312 35.363281 C 19.933594 34.75 20.808594 34.15625 21.675781 33.554688 C 22.253906 33.152344 22.828125 32.742188 23.40625 32.335938 C 23.5625 32.226562 23.609375 32.082031 23.609375 31.898438 C 23.613281 30.96875 23.613281 30.039062 23.628906 29.109375 C 23.640625 28.367188 23.675781 27.625 23.6875 26.882812 C 23.699219 26.308594 23.679688 25.738281 23.683594 25.164062 C 23.691406 24.640625 23.714844 24.121094 23.722656 23.597656 C 23.730469 22.921875 23.734375 22.242188 23.742188 21.558594 C 23.746094 20.878906 23.742188 20.199219 23.753906 19.519531 C 23.769531 18.746094 23.796875 17.972656 23.816406 17.199219 C 23.816406 17.085938 23.816406 16.972656 23.816406 16.820312 C 23.441406 16.96875 23.296875 17.40625 22.875 17.402344 C 22.769531 17.210938 22.859375 17.074219 22.980469 16.949219 C 23.378906 16.53125 23.773438 16.105469 24.183594 15.707031 C 25.011719 14.902344 25.859375 14.121094 26.6875 13.316406 C 27.316406 12.703125 27.921875 12.070312 28.542969 11.453125 C 29.117188 10.882812 29.699219 10.320312 30.28125 9.753906 C 31.414062 8.640625 32.539062 7.53125 33.675781 6.421875 C 34.453125 5.664062 35.234375 4.902344 36.019531 4.152344 C 36.261719 3.921875 36.488281 3.652344 36.863281 3.601562 C 37.3125 4.085938 37.777344 4.5625 38.210938 5.0625 C 38.867188 5.808594 39.496094 6.570312 40.148438 7.316406 C 40.582031 7.820312 41.054688 8.296875 41.476562 8.8125 C 41.789062 9.195312 42.191406 9.503906 42.398438 9.976562 C 42.429688 10.050781 42.527344 10.097656 42.589844 10.164062 C 42.808594 10.386719 43.039062 10.601562 43.230469 10.847656 C 43.628906 11.351562 44.035156 11.84375 44.46875 12.320312 C 44.804688 12.6875 45.097656 13.09375 45.421875 13.476562 C 45.585938 13.675781 45.78125 13.84375 45.941406 14.039062 C 46.445312 14.648438 46.929688 15.273438 47.449219 15.867188 C 48.023438 16.53125 48.632812 17.164062 49.222656 17.8125 C 49.355469 17.957031 49.480469 18.105469 49.597656 18.265625 C 49.675781 18.363281 49.710938 18.492188 49.59375 18.582031 C 49.476562 18.675781 49.328125 18.722656 49.207031 18.585938 C 49.027344 18.382812 48.863281 18.167969 48.640625 17.894531 C 48.792969 23.003906 48.777344 28.03125 48.867188 33 C 49.488281 33.347656 50.078125 33.652344 50.636719 34 C 51.609375 34.59375 52.566406 35.214844 53.523438 35.824219 C 54.515625 36.457031 55.527344 37.066406 56.492188 37.742188 C 57.316406 38.316406 58.183594 38.8125 59.027344 39.351562 C 59.34375 39.550781 59.636719 39.796875 59.949219 40.007812 C 60.085938 40.105469 60.242188 40.175781 60.394531 40.25 C 60.558594 40.328125 60.625 40.453125 60.636719 40.613281 C 60.433594 40.9375 60.210938 40.765625 59.984375 40.640625 C 59.960938 40.6875 59.929688 40.71875 59.929688 40.75 C 59.949219 42.125 59.980469 43.496094 59.992188 44.871094 C 60 45.644531 59.972656 46.414062 59.980469 47.1875 C 59.984375 48.285156 60.023438 49.382812 60.027344 50.484375 C 60.03125 51.492188 60.003906 52.5 60.003906 53.507812 C 60 54.371094 60.011719 55.238281 60.011719 56.101562 C 60.011719 57.167969 60.003906 58.242188 60.007812 59.3125 C 60.011719 60.714844 60.035156 62.117188 60.035156 63.519531 C 60.035156 64.625 60.011719 65.734375 59.996094 66.84375 C 59.996094 66.972656 60.007812 67.105469 60.023438 67.230469 C 60.0625 67.542969 59.910156 67.757812 59.683594 67.933594 C 59.613281 67.988281 59.496094 68.011719 59.402344 68.015625 C 58.644531 68.027344 57.886719 68.027344 57.125 68.027344 C 56.289062 68.027344 55.449219 68.027344 54.613281 68.03125 C 53.640625 68.03125 52.671875 68.03125 51.703125 68.042969 C 50.789062 68.054688 49.867188 68.089844 48.953125 68.085938 C 47.542969 68.074219 46.128906 68.007812 44.71875 68.03125 C 43.910156 68.042969 43.101562 67.972656 42.292969 68.042969 C 41.65625 68.101562 41.007812 68.042969 40.367188 68.039062 C 39.921875 68.035156 39.480469 68.019531 39.035156 68.019531 C 37.554688 68.015625 36.074219 68.019531 34.597656 68.011719 C 33.335938 68.007812 32.082031 67.984375 30.820312 67.984375 C 29.273438 67.984375 27.726562 67.996094 26.179688 68 C 24.644531 68 23.109375 67.988281 21.574219 68 C 20.960938 68 20.347656 68.050781 19.734375 68.054688 C 18.988281 68.0625 18.242188 68.046875 17.496094 68.042969 C 16.554688 68.039062 15.613281 68.039062 14.675781 68.027344 C 13.984375 68.019531 13.285156 68.003906 12.59375 67.976562 C 12.390625 67.964844 12.1875 67.902344 12.003906 67.863281 Z M 37.769531 67.523438 C 37.832031 67.609375 37.878906 67.699219 38.019531 67.617188 C 38.097656 67.574219 38.21875 67.535156 38.296875 67.5625 C 38.53125 67.640625 38.753906 67.578125 38.976562 67.546875 C 39.125 67.527344 39.273438 67.539062 39.417969 67.546875 C 39.71875 67.558594 40.046875 67.671875 40.308594 67.578125 C 40.734375 67.429688 41.152344 67.480469 41.578125 67.464844 C 41.734375 67.457031 41.890625 67.515625 42.089844 67.550781 C 42.296875 67.417969 42.304688 67.15625 42.328125 66.914062 C 42.433594 65.9375 42.535156 64.960938 42.621094 63.988281 C 42.667969 63.425781 42.683594 62.863281 42.707031 62.300781 C 42.730469 61.75 42.78125 61.195312 42.769531 60.644531 C 42.761719 60.191406 42.753906 59.734375 42.738281 59.28125 C 42.734375 59.023438 42.71875 58.765625 42.703125 58.503906 C 42.683594 58.257812 42.664062 58.015625 42.640625 57.769531 C 42.628906 57.640625 42.597656 57.515625 42.585938 57.386719 C 42.519531 56.75 42.484375 56.109375 42.386719 55.480469 C 42.28125 54.792969 42.128906 54.109375 41.960938 53.433594 C 41.613281 52.035156 41.234375 50.644531 40.65625 49.316406 C 40.152344 48.164062 39.519531 47.097656 38.597656 46.230469 C 38.347656 45.992188 38.03125 45.796875 37.714844 45.65625 C 36.824219 45.25 35.996094 45.460938 35.242188 46.023438 C 34.671875 46.449219 34.203125 46.984375 33.796875 47.570312 C 33.308594 48.273438 32.921875 49.035156 32.632812 49.835938 C 32.265625 50.875 31.871094 51.90625 31.601562 52.96875 C 31.253906 54.347656 30.996094 55.753906 30.882812 57.179688 C 30.8125 58.054688 30.726562 58.929688 30.679688 59.804688 C 30.636719 60.617188 30.597656 61.429688 30.625 62.242188 C 30.664062 63.523438 30.746094 64.804688 30.832031 66.085938 C 30.863281 66.613281 30.949219 67.136719 31.003906 67.632812 C 31.382812 67.621094 31.726562 67.609375 32.0625 67.597656 C 32.265625 67.589844 32.464844 67.585938 32.664062 67.578125 C 32.851562 67.570312 33.039062 67.566406 33.292969 67.554688 C 33.3125 67.5625 33.40625 67.632812 33.5 67.636719 C 33.785156 67.648438 34.078125 67.679688 34.351562 67.621094 C 34.683594 67.558594 35 67.570312 35.328125 67.621094 C 35.488281 67.644531 35.664062 67.640625 35.828125 67.621094 C 36 67.605469 36.242188 67.476562 36.324219 67.546875 C 36.546875 67.730469 36.699219 67.527344 36.867188 67.511719 C 37.175781 67.476562 37.476562 67.433594 37.777344 67.535156 L 37.195312 67.535156 C 37.386719 67.550781 37.59375 67.722656 37.769531 67.527344 Z M 42.871094 67.570312 C 42.882812 67.609375 42.902344 67.648438 42.914062 67.683594 C 43.355469 67.273438 43.875 67.746094 44.328125 67.472656 C 44.34375 67.460938 44.390625 67.46875 44.402344 67.484375 C 44.527344 67.648438 44.679688 67.542969 44.828125 67.550781 C 45.195312 67.570312 45.570312 67.285156 45.929688 67.582031 C 45.941406 67.59375 45.980469 67.582031 46.003906 67.574219 C 46.253906 67.441406 46.546875 67.652344 46.792969 67.472656 C 46.832031 67.449219 46.941406 67.515625 47.011719 67.546875 C 47.054688 67.566406 47.125 67.621094 47.132812 67.617188 C 47.347656 67.410156 47.574219 67.617188 47.789062 67.589844 C 48.121094 67.546875 48.453125 67.492188 48.804688 67.441406 C 48.839844 66.96875 48.894531 66.527344 48.828125 66.089844 C 48.792969 65.851562 48.804688 65.628906 48.921875 65.507812 C 48.878906 65.28125 48.828125 65.121094 48.820312 64.960938 C 48.804688 64.359375 48.808594 63.757812 48.796875 63.152344 C 48.769531 62.148438 48.734375 61.148438 48.707031 60.140625 C 48.699219 59.804688 48.699219 59.464844 48.699219 59.125 C 48.699219 58.488281 48.714844 57.851562 48.707031 57.210938 C 48.691406 56.179688 48.648438 55.152344 48.648438 54.121094 C 48.648438 53 48.65625 51.875 48.613281 50.75 C 48.574219 49.613281 48.566406 48.476562 48.558594 47.339844 C 48.550781 46.425781 48.574219 45.511719 48.566406 44.597656 C 48.558594 43.8125 48.515625 43.03125 48.511719 42.25 C 48.5 41.269531 48.519531 40.292969 48.511719 39.316406 C 48.503906 38.230469 48.472656 37.144531 48.464844 36.0625 C 48.460938 35.511719 48.480469 34.957031 48.480469 34.40625 C 48.480469 33.558594 48.472656 32.707031 48.46875 31.859375 C 48.464844 31.453125 48.46875 31.050781 48.460938 30.644531 C 48.449219 29.957031 48.4375 29.265625 48.421875 28.578125 C 48.40625 28.003906 48.378906 27.425781 48.371094 26.855469 C 48.363281 26.285156 48.378906 25.71875 48.375 25.152344 C 48.375 24.746094 48.355469 24.339844 48.363281 23.933594 C 48.363281 23.78125 48.378906 23.613281 48.445312 23.480469 C 48.539062 23.296875 48.363281 23.1875 48.367188 23.023438 C 48.378906 22.175781 48.347656 21.332031 48.339844 20.484375 C 48.332031 19.546875 48.332031 18.605469 48.316406 17.664062 C 48.316406 17.558594 48.269531 17.433594 48.199219 17.351562 C 47.5625 16.609375 46.914062 15.875 46.269531 15.132812 C 45.753906 14.542969 45.222656 13.960938 44.722656 13.351562 C 44.351562 12.894531 43.847656 12.535156 43.632812 11.953125 C 43.625 11.9375 43.589844 11.929688 43.566406 11.921875 C 43.28125 11.863281 43.164062 11.605469 42.992188 11.417969 C 42.953125 11.375 42.972656 11.28125 42.964844 11.207031 C 42.710938 11.152344 42.21875 10.648438 41.347656 9.578125 C 40.851562 8.96875 40.332031 8.382812 39.820312 7.789062 C 39.308594 7.191406 38.789062 6.601562 38.28125 6.003906 C 37.777344 5.410156 37.277344 4.808594 36.75 4.183594 C 36.621094 4.292969 36.503906 4.378906 36.40625 4.476562 C 35.671875 5.1875 34.941406 5.898438 34.210938 6.613281 C 32.832031 7.960938 31.460938 9.3125 30.078125 10.652344 C 29.050781 11.644531 28.007812 12.617188 26.980469 13.605469 C 26.105469 14.449219 25.242188 15.316406 24.359375 16.152344 C 24.195312 16.308594 24.15625 16.460938 24.164062 16.667969 C 24.1875 17.214844 24.207031 17.769531 24.203125 18.316406 C 24.171875 21.203125 24.132812 24.089844 24.105469 26.972656 C 24.09375 27.773438 24.105469 28.570312 24.101562 29.371094 C 24.09375 30.234375 24.09375 31.097656 24.078125 31.960938 C 24.058594 32.890625 24.011719 33.820312 23.992188 34.753906 C 23.960938 36.417969 23.945312 38.082031 23.921875 39.746094 C 23.910156 40.992188 23.902344 42.234375 23.882812 43.480469 C 23.863281 44.894531 23.824219 46.308594 23.808594 47.722656 C 23.785156 49.554688 23.777344 51.390625 23.757812 53.222656 C 23.742188 54.964844 23.714844 56.703125 23.6875 58.441406 C 23.660156 60.207031 23.628906 61.976562 23.597656 63.742188 C 23.578125 64.65625 23.546875 65.574219 23.53125 66.492188 C 23.527344 66.75 23.554688 67.011719 23.566406 67.273438 C 23.574219 67.441406 23.738281 67.597656 23.804688 67.535156 C 23.976562 67.378906 24.101562 67.636719 24.226562 67.535156 C 24.367188 67.429688 24.476562 67.492188 24.601562 67.5625 C 24.644531 67.589844 24.730469 67.566406 24.785156 67.542969 C 24.960938 67.472656 25.101562 67.460938 25.296875 67.554688 C 25.453125 67.628906 25.699219 67.617188 25.867188 67.554688 C 26.316406 67.378906 26.777344 67.476562 27.222656 67.492188 C 27.570312 67.507812 27.945312 67.351562 28.285156 67.566406 C 28.300781 67.578125 28.339844 67.566406 28.359375 67.554688 C 28.625 67.390625 28.933594 67.4375 29.195312 67.488281 C 29.664062 67.582031 30.109375 67.4375 30.613281 67.503906 C 30.578125 67.28125 30.539062 67.105469 30.519531 66.929688 C 30.414062 65.945312 30.3125 64.964844 30.214844 63.980469 C 30.1875 63.710938 30.160156 63.433594 30.160156 63.164062 C 30.160156 62.359375 30.171875 61.554688 30.1875 60.75 C 30.203125 60.101562 30.207031 59.449219 30.257812 58.804688 C 30.316406 58.109375 30.40625 57.410156 30.507812 56.714844 C 30.625 55.894531 30.757812 55.074219 30.910156 54.261719 C 31.039062 53.570312 31.167969 52.875 31.367188 52.203125 C 31.640625 51.300781 31.945312 50.402344 32.300781 49.53125 C 32.800781 48.308594 33.511719 47.207031 34.460938 46.277344 C 35.035156 45.722656 35.683594 45.28125 36.472656 45.105469 C 37.042969 44.976562 37.613281 44.976562 38.101562 45.394531 C 38.148438 45.4375 38.222656 45.445312 38.273438 45.484375 C 38.484375 45.664062 38.800781 45.652344 38.996094 45.867188 C 39.113281 46 39.242188 46.125 39.375 46.246094 C 39.859375 46.683594 40.253906 47.203125 40.582031 47.769531 C 41.175781 48.808594 41.625 49.910156 41.964844 51.058594 C 42.574219 53.105469 42.898438 55.203125 43.089844 57.320312 C 43.199219 58.566406 43.230469 59.828125 43.238281 61.085938 C 43.242188 62.148438 43.1875 63.210938 43.097656 64.265625 C 43.015625 65.230469 42.851562 66.1875 42.726562 67.148438 C 42.691406 67.40625 42.695312 67.40625 42.953125 67.511719 C 42.925781 67.53125 42.902344 67.554688 42.875 67.574219 Z M 23.578125 32.773438 C 23.460938 32.828125 23.398438 32.847656 23.347656 32.882812 C 22.933594 33.179688 22.515625 33.476562 22.105469 33.777344 C 21.128906 34.488281 20.160156 35.199219 19.1875 35.90625 C 18.292969 36.550781 17.402344 37.195312 16.503906 37.832031 C 15.171875 38.78125 13.832031 39.71875 12.492188 40.660156 C 12.304688 40.792969 12.207031 40.933594 12.222656 41.179688 C 12.261719 41.652344 12.273438 42.125 12.273438 42.59375 C 12.273438 43.496094 12.25 44.398438 12.25 45.300781 C 12.25 46.480469 12.261719 47.65625 12.265625 48.835938 C 12.269531 50.011719 12.277344 51.183594 12.273438 52.355469 C 12.273438 52.863281 12.242188 53.375 12.246094 53.882812 C 12.25 54.785156 12.28125 55.691406 12.285156 56.589844 C 12.292969 58.253906 12.285156 59.914062 12.285156 61.574219 C 12.285156 63.1875 12.277344 64.796875 12.292969 66.410156 C 12.296875 66.808594 12.246094 67.21875 12.421875 67.617188 C 12.882812 67.542969 13.34375 67.746094 13.777344 67.503906 C 13.800781 67.488281 13.855469 67.507812 13.882812 67.527344 C 13.96875 67.589844 14.03125 67.605469 14.121094 67.523438 C 14.179688 67.46875 14.289062 67.453125 14.375 67.449219 C 14.671875 67.441406 14.988281 67.398438 15.269531 67.464844 C 15.5625 67.535156 15.882812 67.214844 16.140625 67.542969 C 16.148438 67.550781 16.203125 67.503906 16.242188 67.503906 C 16.453125 67.496094 16.675781 67.453125 16.878906 67.503906 C 17.027344 67.539062 17.144531 67.566406 17.285156 67.492188 C 17.359375 67.449219 17.457031 67.441406 17.546875 67.4375 C 18.011719 67.417969 18.484375 67.378906 18.953125 67.386719 C 19.410156 67.398438 19.863281 67.484375 20.328125 67.4375 C 20.570312 67.410156 20.820312 67.46875 21.066406 67.460938 C 21.316406 67.453125 21.5625 67.613281 21.8125 67.460938 C 21.835938 67.449219 21.886719 67.46875 21.917969 67.484375 C 22.316406 67.691406 22.6875 67.460938 23.066406 67.410156 C 23.109375 67.40625 23.160156 67.320312 23.171875 67.265625 C 23.195312 67.148438 23.199219 67.03125 23.199219 66.914062 C 23.199219 66.277344 23.195312 65.640625 23.203125 65.003906 C 23.21875 64.105469 23.253906 63.210938 23.261719 62.308594 C 23.269531 61.371094 23.238281 60.429688 23.242188 59.488281 C 23.25 58.429688 23.28125 57.375 23.300781 56.316406 C 23.3125 55.640625 23.324219 54.960938 23.332031 54.28125 C 23.339844 53.863281 23.335938 53.445312 23.355469 53.03125 C 23.367188 52.761719 23.425781 52.496094 23.433594 52.230469 C 23.4375 52.027344 23.375 51.820312 23.375 51.617188 C 23.394531 50.5625 23.425781 49.507812 23.449219 48.449219 C 23.453125 48.269531 23.460938 48.085938 23.453125 47.90625 C 23.441406 47.542969 23.398438 47.175781 23.40625 46.8125 C 23.429688 45.605469 23.472656 44.394531 23.496094 43.1875 C 23.507812 42.558594 23.488281 41.929688 23.492188 41.304688 C 23.5 40.113281 23.515625 38.925781 23.523438 37.738281 C 23.527344 37.359375 23.519531 36.980469 23.523438 36.601562 C 23.539062 35.574219 23.558594 34.542969 23.574219 33.511719 C 23.574219 33.28125 23.574219 33.050781 23.574219 32.769531 Z M 48.898438 33.535156 C 48.890625 33.636719 48.875 33.710938 48.875 33.785156 C 48.886719 34.726562 48.898438 35.667969 48.910156 36.609375 C 48.925781 37.785156 48.941406 38.96875 48.957031 40.144531 C 48.976562 41.753906 49 43.359375 49.015625 44.96875 C 49.03125 46.320312 49.039062 47.667969 49.050781 49.015625 C 49.066406 50.089844 49.085938 51.164062 49.097656 52.234375 C 49.101562 53.007812 49.089844 53.78125 49.097656 54.554688 C 49.113281 56.421875 49.140625 58.292969 49.152344 60.164062 C 49.160156 61.066406 49.132812 61.96875 49.136719 62.871094 C 49.140625 63.851562 49.15625 64.835938 49.171875 65.816406 C 49.175781 66.273438 49.183594 66.734375 49.191406 67.191406 C 49.191406 67.332031 49.21875 67.496094 49.390625 67.464844 C 49.683594 67.414062 49.960938 67.527344 50.261719 67.492188 C 50.789062 67.421875 51.328125 67.503906 51.863281 67.523438 C 52.046875 67.527344 52.242188 67.566406 52.410156 67.519531 C 52.648438 67.453125 52.851562 67.492188 53.058594 67.574219 C 53.28125 67.664062 53.511719 67.703125 53.742188 67.652344 C 54.175781 67.558594 54.628906 67.722656 55.054688 67.546875 C 55.347656 67.695312 55.660156 67.632812 55.964844 67.652344 C 56.273438 67.667969 56.597656 67.695312 56.890625 67.621094 C 57.171875 67.554688 57.433594 67.597656 57.707031 67.601562 C 57.898438 67.605469 58.089844 67.65625 58.285156 67.652344 C 58.460938 67.652344 58.636719 67.578125 58.808594 67.585938 C 59.007812 67.59375 59.203125 67.652344 59.355469 67.679688 C 59.574219 67.460938 59.65625 67.285156 59.65625 67.019531 C 59.65625 66.804688 59.621094 66.597656 59.617188 66.386719 C 59.605469 65.894531 59.601562 65.398438 59.601562 64.902344 C 59.59375 63.972656 59.582031 63.046875 59.582031 62.117188 C 59.582031 60.917969 59.601562 59.714844 59.605469 58.511719 C 59.605469 57.597656 59.601562 56.679688 59.59375 55.765625 C 59.585938 55.257812 59.5625 54.75 59.5625 54.238281 C 59.5625 53.335938 59.582031 52.433594 59.585938 51.527344 C 59.59375 50.8125 59.59375 50.089844 59.59375 49.375 C 59.59375 49.269531 59.582031 49.164062 59.582031 49.058594 C 59.578125 48.667969 59.5625 48.277344 59.574219 47.890625 C 59.585938 47.398438 59.628906 46.902344 59.636719 46.414062 C 59.648438 45.871094 59.636719 45.332031 59.636719 44.792969 C 59.636719 44.074219 59.632812 43.355469 59.628906 42.640625 C 59.628906 41.898438 59.628906 41.15625 59.628906 40.402344 C 56.09375 38.136719 52.523438 35.851562 48.90625 33.535156 Z M 36.265625 24.6875 C 36.375 24.5625 36.476562 24.464844 36.550781 24.351562 C 36.894531 23.824219 37.359375 23.421875 37.890625 23.109375 C 38.207031 22.921875 38.539062 22.757812 38.9375 22.722656 C 39.246094 22.699219 39.542969 22.585938 39.863281 22.636719 C 40.5 22.738281 41.128906 22.835938 41.644531 23.300781 C 41.960938 23.589844 42.160156 23.921875 42.289062 24.308594 C 42.507812 24.972656 42.4375 25.625 42.222656 26.273438 C 41.90625 27.238281 41.414062 28.113281 40.898438 28.980469 C 40.214844 30.125 39.34375 31.109375 38.4375 32.074219 C 38.070312 32.46875 37.714844 32.871094 37.355469 33.265625 C 37.300781 33.324219 37.261719 33.398438 37.199219 33.445312 C 36.792969 33.746094 36.558594 33.828125 36.191406 33.503906 C 35.222656 32.640625 34.261719 31.777344 33.296875 30.914062 C 32.542969 30.234375 31.863281 29.496094 31.296875 28.65625 C 30.726562 27.820312 30.273438 26.929688 30.230469 25.890625 C 30.183594 24.714844 30.632812 23.78125 31.625 23.132812 C 31.921875 22.9375 32.238281 22.792969 32.609375 22.839844 C 32.671875 22.847656 32.738281 22.816406 32.800781 22.800781 C 32.839844 22.789062 32.890625 22.746094 32.90625 22.753906 C 33.292969 23.027344 33.757812 22.667969 34.15625 22.914062 C 34.519531 23.140625 34.921875 23.308594 35.273438 23.550781 C 35.632812 23.796875 35.898438 24.144531 36.117188 24.523438 C 36.144531 24.578125 36.199219 24.617188 36.265625 24.6875 Z M 36.863281 33.246094 C 37.003906 33.101562 37.128906 32.964844 37.253906 32.835938 C 38.40625 31.636719 39.546875 30.417969 40.460938 29.023438 C 41.132812 27.992188 41.707031 26.898438 41.960938 25.675781 C 42.089844 25.058594 41.875 24.507812 41.515625 24.039062 C 41.160156 23.582031 40.65625 23.304688 40.074219 23.230469 C 38.640625 23.042969 37.507812 23.535156 36.707031 24.753906 C 36.589844 24.929688 36.472656 25.097656 36.347656 25.265625 C 36.25 25.390625 36.136719 25.417969 36.023438 25.28125 C 35.921875 25.160156 35.820312 25.039062 35.730469 24.910156 C 34.992188 23.886719 34.015625 23.277344 32.746094 23.179688 C 32.097656 23.128906 31.558594 23.363281 31.152344 23.863281 C 30.777344 24.328125 30.628906 24.882812 30.636719 25.476562 C 30.65625 26.65625 31.171875 27.640625 31.851562 28.558594 C 31.976562 28.726562 32.082031 28.878906 32.011719 29.09375 C 32.007812 29.109375 32.03125 29.140625 32.046875 29.179688 C 32.113281 29.160156 32.183594 29.140625 32.269531 29.113281 C 32.390625 29.296875 32.527344 29.472656 32.628906 29.667969 C 32.738281 29.886719 32.9375 29.957031 33.136719 30.042969 C 33.160156 30.050781 33.167969 30.082031 33.1875 30.101562 C 33.847656 30.738281 34.492188 31.386719 35.164062 32 C 35.339844 32.15625 35.574219 32.25 35.695312 32.472656 C 35.710938 32.503906 35.757812 32.539062 35.789062 32.539062 C 36.003906 32.53125 36.105469 32.703125 36.246094 32.808594 C 36.445312 32.957031 36.644531 33.097656 36.863281 33.253906 Z M 36.863281 33.246094 " fill-opacity="1" fill-rule="nonzero"/></g></svg>