<svg xmlns="http://www.w3.org/2000/svg" xmlns:xlink="http://www.w3.org/1999/xlink" width="96" zoomAndPan="magnify" viewBox="0 0 72 72" height="96" preserveAspectRatio="xMidYMid meet" version="1.0"><defs><filter x="0%" y="0%" width="100%" height="100%" id="719dbc1dfb"><feColorMatrix values="0 0 0 0 1 0 0 0 0 1 0 0 0 0 1 0 0 0 1 0" color-interpolation-filters="sRGB"/></filter><mask id="8db683df66"><g filter="url(#719dbc1dfb)"><rect x="-7.2" width="86.4" fill="#000000" y="-7.2" height="86.4" fill-opacity="0.21"/></g></mask><clipPath id="c320b5972f"><path d="M 2 2 L 27 2 L 27 5.9375 L 2 5.9375 Z M 2 2 " clip-rule="nonzero"/></clipPath><clipPath id="b432ae217f"><path d="M 0.53125 0.6875 L 29.03125 0.6875 L 29.03125 5.9375 L 0.53125 5.9375 Z M 0.53125 0.6875 " clip-rule="nonzero"/></clipPath><clipPath id="531b9e4333"><rect x="0" width="30" y="0" height="7"/></clipPath><clipPath id="301ac36c96"><path d="M 9.082031 15.195312 L 42 15.195312 L 42 56.445312 L 9.082031 56.445312 Z M 9.082031 15.195312 " clip-rule="nonzero"/></clipPath><clipPath id="691e3a3599"><path d="M 37.101562 11.554688 L 64.851562 11.554688 L 64.851562 40 L 37.101562 40 Z M 37.101562 11.554688 " clip-rule="nonzero"/></clipPath></defs><g mask="url(#8db683df66)"><g transform="matrix(1, 0, 0, 1, 23, 37)"><g clip-path="url(#531b9e4333)"><g clip-path="url(#c320b5972f)"><path fill="#375726" d="M 12.757812 3.023438 C 12.386719 3.21875 11.886719 3.429688 11.277344 3.582031 C 11.082031 3.234375 10.640625 2.632812 9.824219 2.300781 C 9.09375 2.003906 8.425781 2.078125 8.089844 2.152344 C 8.085938 2.152344 8.082031 2.152344 8.078125 2.15625 C 8.078125 2.15625 8.078125 2.15625 8.074219 2.160156 C 8.070312 2.160156 8.070312 2.164062 8.066406 2.171875 C 8.0625 2.175781 8.0625 2.179688 8.0625 2.183594 C 8.0625 2.1875 8.0625 2.1875 8.0625 2.1875 C 8.066406 2.191406 8.066406 2.195312 8.066406 2.199219 C 8.066406 2.199219 8.066406 2.199219 8.066406 2.203125 C 8.234375 2.5 8.613281 3.054688 9.320312 3.40625 C 9.761719 3.632812 10.191406 3.707031 10.554688 3.71875 C 10.285156 3.753906 10 3.777344 9.703125 3.777344 C 9.058594 3.78125 8.417969 3.6875 7.796875 3.503906 C 7.585938 3.171875 7.109375 2.582031 6.265625 2.292969 C 5.519531 2.035156 4.855469 2.148438 4.527344 2.238281 C 4.523438 2.238281 4.523438 2.242188 4.523438 2.242188 C 4.519531 2.242188 4.519531 2.242188 4.515625 2.246094 C 4.511719 2.246094 4.511719 2.246094 4.511719 2.25 C 4.507812 2.25 4.503906 2.253906 4.503906 2.261719 C 4.5 2.265625 4.5 2.269531 4.5 2.273438 C 4.5 2.277344 4.5 2.277344 4.5 2.28125 C 4.503906 2.28125 4.503906 2.285156 4.503906 2.289062 C 4.503906 2.289062 4.503906 2.289062 4.503906 2.292969 C 4.6875 2.582031 5.097656 3.113281 5.820312 3.425781 C 6.242188 3.609375 6.648438 3.671875 6.992188 3.671875 C 7.316406 3.671875 7.585938 3.617188 7.769531 3.570312 C 8.027344 3.644531 8.292969 3.707031 8.554688 3.75 C 7.414062 3.96875 6.25 4.070312 5.089844 4.046875 C 4.304688 4.03125 3.511719 3.960938 2.730469 3.835938 C 2.707031 3.832031 2.6875 3.847656 2.6875 3.871094 C 2.6875 3.882812 2.695312 3.898438 2.707031 3.902344 C 2.710938 3.902344 2.714844 3.90625 2.714844 3.90625 C 3.5 4.03125 4.300781 4.101562 5.089844 4.117188 C 5.191406 4.117188 5.296875 4.121094 5.398438 4.121094 C 5.554688 4.121094 5.707031 4.117188 5.859375 4.113281 C 5.558594 4.183594 5.265625 4.289062 4.984375 4.425781 C 4.605469 4.613281 4.257812 4.859375 3.953125 5.152344 C 3.9375 5.167969 3.9375 5.191406 3.953125 5.203125 C 3.957031 5.210938 3.96875 5.214844 3.976562 5.214844 C 3.984375 5.214844 3.996094 5.210938 4 5.203125 C 4.300781 4.914062 4.644531 4.671875 5.015625 4.488281 C 5.476562 4.261719 5.972656 4.125 6.484375 4.085938 C 6.488281 4.085938 6.488281 4.082031 6.492188 4.082031 C 7.253906 4.035156 8.011719 3.933594 8.757812 3.78125 C 9.066406 3.824219 9.375 3.847656 9.683594 3.847656 C 9.691406 3.847656 9.699219 3.847656 9.703125 3.847656 C 9.789062 3.847656 9.871094 3.84375 9.949219 3.839844 C 9.617188 3.941406 9.242188 4.117188 8.886719 4.421875 C 8.289062 4.9375 8.050781 5.566406 7.964844 5.894531 C 7.964844 5.894531 7.964844 5.898438 7.964844 5.898438 C 7.964844 5.902344 7.964844 5.90625 7.964844 5.90625 C 7.964844 5.910156 7.964844 5.910156 7.964844 5.914062 C 7.964844 5.917969 7.96875 5.921875 7.972656 5.925781 C 7.972656 5.929688 7.976562 5.933594 7.984375 5.9375 C 7.988281 5.9375 7.992188 5.9375 7.996094 5.9375 C 7.996094 5.9375 7.996094 5.9375 8 5.9375 C 8.339844 5.929688 9.007812 5.839844 9.644531 5.375 C 10.371094 4.847656 10.648438 4.136719 10.75 3.757812 C 10.929688 3.730469 11.101562 3.695312 11.269531 3.65625 C 11.894531 3.503906 12.410156 3.285156 12.789062 3.085938 C 12.808594 3.078125 12.8125 3.054688 12.804688 3.039062 C 12.796875 3.023438 12.773438 3.015625 12.757812 3.023438 Z M 6.242188 2.359375 C 7.003906 2.621094 7.457031 3.128906 7.683594 3.460938 L 4.648438 2.28125 C 4.996094 2.199219 5.585938 2.132812 6.242188 2.359375 Z M 5.847656 3.363281 C 5.214844 3.085938 4.824219 2.636719 4.625 2.34375 L 7.660156 3.523438 C 7.265625 3.617188 6.585938 3.683594 5.847656 3.363281 Z M 9.796875 2.363281 C 10.542969 2.667969 10.964844 3.199219 11.175781 3.542969 L 8.210938 2.199219 C 8.5625 2.136719 9.15625 2.101562 9.796875 2.363281 Z M 8.183594 2.261719 L 11.148438 3.605469 C 10.75 3.675781 10.066406 3.707031 9.351562 3.347656 C 8.730469 3.035156 8.367188 2.5625 8.183594 2.261719 Z M 8.929688 4.476562 C 9.539062 3.953125 10.207031 3.816406 10.609375 3.789062 L 8.0625 5.808594 C 8.167969 5.472656 8.40625 4.925781 8.929688 4.476562 Z M 9.605469 5.320312 C 9.042969 5.726562 8.460938 5.839844 8.105469 5.863281 L 10.65625 3.84375 C 10.535156 4.226562 10.253906 4.847656 9.605469 5.320312 Z M 16.53125 2.917969 C 16.527344 2.933594 16.515625 2.941406 16.5 2.941406 C 16.496094 2.941406 16.492188 2.941406 16.488281 2.9375 C 16.484375 2.9375 16.480469 2.933594 16.476562 2.929688 C 16.457031 2.921875 16.453125 2.898438 16.464844 2.882812 C 16.472656 2.867188 16.496094 2.863281 16.511719 2.871094 C 16.527344 2.878906 16.539062 2.902344 16.53125 2.917969 Z M 26.835938 3.835938 C 26.054688 3.960938 25.261719 4.03125 24.476562 4.046875 C 23.316406 4.070312 22.148438 3.96875 21 3.75 C 21.261719 3.703125 21.519531 3.644531 21.773438 3.570312 C 21.957031 3.617188 22.230469 3.671875 22.550781 3.671875 C 22.898438 3.671875 23.300781 3.609375 23.722656 3.425781 C 24.445312 3.113281 24.859375 2.582031 25.039062 2.292969 C 25.039062 2.289062 25.039062 2.289062 25.039062 2.289062 C 25.042969 2.285156 25.042969 2.28125 25.042969 2.28125 C 25.042969 2.277344 25.042969 2.277344 25.042969 2.273438 C 25.042969 2.269531 25.042969 2.265625 25.042969 2.261719 C 25.039062 2.253906 25.039062 2.25 25.035156 2.25 C 25.03125 2.246094 25.03125 2.246094 25.03125 2.246094 C 25.027344 2.242188 25.023438 2.242188 25.019531 2.242188 C 25.019531 2.242188 25.019531 2.238281 25.019531 2.238281 C 24.6875 2.148438 24.023438 2.035156 23.28125 2.292969 C 22.433594 2.582031 21.960938 3.171875 21.75 3.503906 C 21.128906 3.6875 20.484375 3.78125 19.839844 3.777344 C 19.542969 3.777344 19.261719 3.753906 18.992188 3.71875 C 19.351562 3.707031 19.785156 3.628906 20.226562 3.40625 C 20.929688 3.054688 21.3125 2.5 21.476562 2.203125 C 21.476562 2.199219 21.476562 2.199219 21.476562 2.199219 C 21.480469 2.195312 21.480469 2.191406 21.480469 2.1875 C 21.480469 2.1875 21.480469 2.1875 21.480469 2.183594 C 21.480469 2.179688 21.480469 2.175781 21.480469 2.171875 C 21.476562 2.164062 21.472656 2.160156 21.46875 2.160156 C 21.46875 2.15625 21.46875 2.15625 21.464844 2.15625 C 21.464844 2.152344 21.460938 2.152344 21.457031 2.152344 C 21.457031 2.152344 21.457031 2.152344 21.453125 2.152344 C 21.121094 2.078125 20.449219 2.003906 19.71875 2.300781 C 18.902344 2.632812 18.460938 3.234375 18.265625 3.582031 C 17.671875 3.433594 17.179688 3.226562 16.8125 3.039062 C 16.796875 3.027344 16.777344 3.035156 16.765625 3.050781 C 16.757812 3.070312 16.765625 3.089844 16.78125 3.097656 C 17.15625 3.292969 17.664062 3.503906 18.277344 3.65625 C 18.277344 3.65625 18.277344 3.65625 18.28125 3.65625 C 18.445312 3.695312 18.617188 3.730469 18.792969 3.757812 C 18.894531 4.136719 19.171875 4.847656 19.898438 5.375 C 20.535156 5.839844 21.203125 5.929688 21.546875 5.9375 C 21.550781 5.9375 21.558594 5.9375 21.5625 5.9375 C 21.566406 5.933594 21.570312 5.929688 21.574219 5.925781 C 21.578125 5.921875 21.578125 5.917969 21.582031 5.914062 C 21.582031 5.910156 21.582031 5.910156 21.582031 5.910156 C 21.582031 5.90625 21.582031 5.902344 21.582031 5.898438 C 21.582031 5.898438 21.582031 5.894531 21.582031 5.894531 C 21.492188 5.566406 21.257812 4.9375 20.660156 4.421875 C 20.304688 4.117188 19.929688 3.941406 19.59375 3.839844 C 19.675781 3.84375 19.757812 3.847656 19.839844 3.847656 C 19.847656 3.847656 19.855469 3.847656 19.863281 3.847656 C 20.175781 3.847656 20.488281 3.824219 20.800781 3.78125 C 20.800781 3.78125 20.800781 3.78125 20.804688 3.78125 C 21.527344 3.929688 22.257812 4.027344 22.992188 4.078125 C 22.996094 4.082031 23.003906 4.085938 23.011719 4.085938 C 23.523438 4.125 24.019531 4.261719 24.480469 4.488281 C 24.851562 4.671875 25.195312 4.914062 25.496094 5.203125 C 25.5 5.210938 25.511719 5.214844 25.519531 5.214844 C 25.527344 5.214844 25.535156 5.210938 25.542969 5.203125 C 25.558594 5.191406 25.558594 5.167969 25.542969 5.152344 C 25.238281 4.859375 24.890625 4.613281 24.507812 4.425781 C 24.226562 4.285156 23.929688 4.179688 23.621094 4.109375 C 23.804688 4.117188 23.984375 4.121094 24.167969 4.121094 C 24.273438 4.121094 24.375 4.117188 24.480469 4.117188 C 25.269531 4.101562 26.066406 4.03125 26.851562 3.90625 C 26.855469 3.90625 26.859375 3.902344 26.859375 3.902344 C 26.875 3.894531 26.882812 3.882812 26.882812 3.871094 C 26.882812 3.847656 26.859375 3.832031 26.835938 3.835938 Z M 20.195312 3.347656 C 19.476562 3.707031 18.796875 3.675781 18.398438 3.605469 L 21.363281 2.261719 C 21.179688 2.566406 20.8125 3.035156 20.195312 3.347656 Z M 19.746094 2.363281 C 20.390625 2.101562 20.984375 2.136719 21.332031 2.199219 L 18.367188 3.542969 C 18.578125 3.199219 19.003906 2.667969 19.746094 2.363281 Z M 18.890625 3.84375 L 21.441406 5.863281 C 21.085938 5.839844 20.5 5.726562 19.941406 5.320312 C 19.292969 4.847656 19.011719 4.226562 18.890625 3.84375 Z M 21.484375 5.808594 L 18.933594 3.789062 C 19.335938 3.816406 20.007812 3.953125 20.613281 4.476562 C 21.140625 4.925781 21.378906 5.472656 21.484375 5.808594 Z M 23.695312 3.363281 C 22.960938 3.683594 22.28125 3.617188 21.886719 3.523438 L 24.921875 2.34375 C 24.71875 2.636719 24.332031 3.085938 23.695312 3.363281 Z M 23.300781 2.359375 C 23.957031 2.132812 24.550781 2.199219 24.894531 2.28125 L 21.859375 3.460938 C 22.089844 3.128906 22.542969 2.621094 23.300781 2.359375 Z M 23.300781 2.359375 " fill-opacity="1" fill-rule="nonzero"/></g><g clip-path="url(#b432ae217f)"><path fill="#d79034" d="M 15.140625 1.078125 C 14.933594 1.253906 14.835938 1.480469 14.789062 1.679688 C 14.746094 1.484375 14.648438 1.253906 14.4375 1.078125 C 13.976562 0.6875 13.246094 0.820312 12.855469 1.1875 C 12.554688 1.472656 12.429688 1.933594 12.511719 2.484375 C 12.539062 2.660156 12.585938 2.828125 12.742188 3.074219 C 12.914062 3.339844 13.207031 3.699219 13.789062 4.347656 C 14.109375 4.703125 14.429688 5.046875 14.761719 5.402344 C 14.769531 5.410156 14.78125 5.414062 14.789062 5.414062 C 14.800781 5.414062 14.808594 5.410156 14.816406 5.402344 C 15.132812 5.066406 15.460938 4.710938 15.789062 4.347656 C 16.363281 3.707031 16.65625 3.351562 16.828125 3.085938 C 16.992188 2.832031 17.042969 2.660156 17.066406 2.484375 C 17.148438 1.933594 17.027344 1.472656 16.722656 1.1875 C 16.332031 0.820312 15.605469 0.691406 15.140625 1.078125 Z M 14.449219 1.25 C 14.652344 1.417969 14.722656 1.65625 14.746094 1.832031 L 14.753906 1.902344 C 14.753906 1.914062 14.753906 1.925781 14.753906 1.9375 L 14.753906 1.972656 C 14.753906 1.976562 14.75 1.980469 14.753906 1.988281 C 14.753906 2 14.753906 2.015625 14.753906 2.027344 C 14.753906 2.03125 14.753906 2.03125 14.753906 2.035156 C 14.753906 2.035156 14.753906 2.039062 14.753906 2.039062 C 14.753906 2.042969 14.753906 2.042969 14.753906 2.046875 C 14.753906 2.199219 14.699219 2.351562 14.601562 2.46875 C 14.484375 2.605469 14.324219 2.6875 14.148438 2.703125 C 14.007812 2.71875 13.871094 2.675781 13.765625 2.585938 C 13.65625 2.496094 13.59375 2.367188 13.578125 2.230469 C 13.558594 2.003906 13.726562 1.804688 13.953125 1.785156 C 14.132812 1.769531 14.289062 1.898438 14.304688 2.078125 C 14.316406 2.214844 14.214844 2.335938 14.078125 2.347656 C 13.96875 2.359375 13.875 2.277344 13.867188 2.171875 C 13.863281 2.152344 13.847656 2.140625 13.828125 2.140625 C 13.808594 2.140625 13.792969 2.160156 13.796875 2.179688 C 13.808594 2.324219 13.9375 2.429688 14.082031 2.417969 C 14.257812 2.402344 14.390625 2.246094 14.375 2.070312 C 14.355469 1.855469 14.164062 1.695312 13.949219 1.714844 C 13.683594 1.738281 13.488281 1.972656 13.511719 2.234375 C 13.539062 2.542969 13.796875 2.777344 14.101562 2.777344 C 14.121094 2.777344 14.136719 2.777344 14.15625 2.773438 C 14.351562 2.757812 14.527344 2.664062 14.652344 2.515625 C 14.714844 2.441406 14.761719 2.355469 14.789062 2.269531 C 14.816406 2.355469 14.863281 2.441406 14.925781 2.515625 C 15.050781 2.664062 15.230469 2.757812 15.425781 2.773438 C 15.441406 2.777344 15.460938 2.777344 15.476562 2.777344 C 15.78125 2.777344 16.042969 2.542969 16.070312 2.234375 C 16.09375 1.972656 15.894531 1.738281 15.632812 1.714844 C 15.414062 1.695312 15.222656 1.855469 15.203125 2.070312 C 15.1875 2.246094 15.320312 2.402344 15.496094 2.417969 C 15.566406 2.425781 15.636719 2.402344 15.691406 2.355469 C 15.742188 2.3125 15.777344 2.25 15.78125 2.179688 C 15.785156 2.160156 15.769531 2.140625 15.75 2.140625 C 15.730469 2.140625 15.714844 2.152344 15.714844 2.171875 C 15.707031 2.222656 15.683594 2.269531 15.644531 2.304688 C 15.605469 2.335938 15.554688 2.351562 15.503906 2.347656 C 15.363281 2.335938 15.261719 2.214844 15.273438 2.078125 C 15.289062 1.898438 15.445312 1.769531 15.625 1.785156 C 15.851562 1.804688 16.019531 2.003906 16 2.230469 C 15.988281 2.367188 15.921875 2.496094 15.8125 2.585938 C 15.707031 2.675781 15.570312 2.71875 15.429688 2.703125 C 15.253906 2.6875 15.09375 2.605469 14.980469 2.46875 C 14.878906 2.347656 14.824219 2.199219 14.824219 2.042969 C 14.824219 2.042969 14.824219 2.042969 14.824219 2.039062 C 14.824219 2.039062 14.824219 2.035156 14.824219 2.03125 C 14.824219 2.015625 14.824219 2 14.828125 1.988281 C 14.828125 1.980469 14.828125 1.976562 14.824219 1.972656 C 14.824219 1.960938 14.824219 1.953125 14.824219 1.941406 C 14.824219 1.9375 14.824219 1.9375 14.824219 1.933594 C 14.828125 1.925781 14.828125 1.914062 14.828125 1.898438 C 14.828125 1.878906 14.832031 1.855469 14.835938 1.828125 C 14.859375 1.660156 14.925781 1.417969 15.132812 1.25 C 15.5 0.941406 16.082031 1.046875 16.394531 1.339844 C 16.640625 1.570312 16.738281 1.941406 16.671875 2.390625 C 16.648438 2.535156 16.609375 2.675781 16.472656 2.886719 C 16.324219 3.113281 16.082031 3.410156 15.59375 3.949219 C 15.335938 4.238281 15.074219 4.523438 14.789062 4.824219 C 14.511719 4.53125 14.25 4.242188 13.984375 3.949219 C 13.105469 2.96875 12.957031 2.726562 12.910156 2.390625 C 12.84375 1.941406 12.941406 1.570312 13.183594 1.339844 C 13.363281 1.167969 13.636719 1.0625 13.90625 1.0625 C 14.101562 1.0625 14.292969 1.117188 14.449219 1.25 Z M 17 2.472656 C 16.972656 2.644531 16.925781 2.804688 16.769531 3.050781 C 16.597656 3.3125 16.308594 3.664062 15.738281 4.300781 C 15.417969 4.65625 15.097656 5.003906 14.789062 5.328125 C 14.464844 4.984375 14.152344 4.648438 13.84375 4.300781 C 13.261719 3.652344 12.96875 3.300781 12.804688 3.035156 C 12.652344 2.800781 12.605469 2.640625 12.582031 2.472656 C 12.503906 1.945312 12.617188 1.507812 12.90625 1.238281 C 13.117188 1.035156 13.4375 0.910156 13.753906 0.910156 C 13.972656 0.910156 14.1875 0.972656 14.367188 1.109375 C 13.972656 0.890625 13.4375 1.007812 13.136719 1.289062 C 12.875 1.535156 12.769531 1.929688 12.839844 2.402344 C 12.890625 2.75 13.039062 3.003906 13.933594 3.996094 C 14.207031 4.300781 14.476562 4.59375 14.761719 4.898438 C 14.769531 4.902344 14.78125 4.90625 14.789062 4.90625 C 14.800781 4.90625 14.808594 4.902344 14.816406 4.898438 C 15.109375 4.585938 15.378906 4.292969 15.644531 3.996094 C 16.132812 3.453125 16.382812 3.152344 16.53125 2.925781 C 16.671875 2.703125 16.71875 2.554688 16.742188 2.402344 C 16.808594 1.929688 16.703125 1.535156 16.445312 1.289062 C 16.144531 1.007812 15.609375 0.890625 15.214844 1.109375 C 15.652344 0.773438 16.316406 0.898438 16.675781 1.238281 C 16.960938 1.507812 17.074219 1.945312 17 2.472656 Z M 1.847656 2.878906 C 1.480469 2.761719 1.144531 2.796875 0.929688 2.847656 C 0.839844 2.867188 0.765625 2.929688 0.730469 3.015625 C 0.699219 3.101562 0.707031 3.195312 0.757812 3.273438 C 0.769531 3.292969 0.785156 3.3125 0.796875 3.332031 C 0.769531 3.34375 0.742188 3.355469 0.71875 3.367188 C 0.636719 3.410156 0.582031 3.488281 0.570312 3.582031 C 0.558594 3.671875 0.589844 3.761719 0.65625 3.824219 C 0.820312 3.972656 1.09375 4.167969 1.476562 4.246094 C 1.589844 4.269531 1.703125 4.28125 1.808594 4.28125 C 2.136719 4.28125 2.414062 4.183594 2.605469 4.085938 C 2.683594 4.046875 2.738281 3.96875 2.753906 3.882812 C 2.765625 3.867188 2.773438 3.851562 2.78125 3.832031 C 2.816406 3.746094 2.804688 3.648438 2.753906 3.570312 C 2.597656 3.335938 2.308594 3.027344 1.847656 2.878906 Z M 0.816406 3.238281 C 0.777344 3.179688 0.769531 3.105469 0.796875 3.042969 C 0.824219 2.976562 0.875 2.929688 0.945312 2.914062 C 1.050781 2.890625 1.183594 2.871094 1.335938 2.871094 C 1.488281 2.871094 1.652344 2.890625 1.828125 2.945312 C 2.269531 3.085938 2.542969 3.382812 2.695312 3.609375 C 2.71875 3.640625 2.730469 3.679688 2.730469 3.714844 C 2.714844 3.679688 2.695312 3.652344 2.664062 3.625 C 2.453125 3.4375 2.101562 3.207031 1.617188 3.175781 C 1.316406 3.15625 1.054688 3.222656 0.863281 3.304688 C 0.847656 3.28125 0.832031 3.257812 0.816406 3.238281 Z M 2.6875 3.855469 C 2.660156 3.894531 2.617188 3.921875 2.566406 3.933594 C 2.300781 3.992188 1.894531 4.019531 1.476562 3.820312 C 1.214844 3.695312 1.03125 3.515625 0.90625 3.359375 C 1.066406 3.296875 1.273438 3.242188 1.515625 3.242188 C 1.546875 3.242188 1.582031 3.242188 1.613281 3.246094 C 2.078125 3.273438 2.417969 3.496094 2.621094 3.679688 C 2.671875 3.722656 2.695312 3.789062 2.6875 3.855469 Z M 2.574219 4.023438 C 2.328125 4.144531 1.945312 4.269531 1.488281 4.179688 C 1.125 4.105469 0.863281 3.917969 0.703125 3.773438 C 0.652344 3.726562 0.628906 3.660156 0.636719 3.589844 C 0.648438 3.519531 0.6875 3.460938 0.75 3.429688 C 0.777344 3.417969 0.808594 3.402344 0.839844 3.386719 C 0.96875 3.554688 1.164062 3.746094 1.449219 3.882812 C 1.703125 4.003906 1.957031 4.046875 2.175781 4.046875 C 2.328125 4.046875 2.46875 4.027344 2.582031 4 C 2.597656 4 2.609375 3.992188 2.621094 3.988281 C 2.609375 4.003906 2.589844 4.015625 2.574219 4.023438 Z M 29 3.582031 C 28.984375 3.488281 28.933594 3.410156 28.847656 3.367188 C 28.824219 3.355469 28.796875 3.34375 28.769531 3.332031 C 28.785156 3.3125 28.796875 3.292969 28.808594 3.273438 C 28.859375 3.195312 28.871094 3.101562 28.835938 3.015625 C 28.800781 2.929688 28.730469 2.867188 28.636719 2.847656 C 28.421875 2.796875 28.085938 2.761719 27.71875 2.878906 C 27.257812 3.027344 26.972656 3.335938 26.8125 3.570312 C 26.761719 3.648438 26.75 3.746094 26.785156 3.832031 C 26.792969 3.851562 26.800781 3.867188 26.8125 3.882812 C 26.828125 3.96875 26.882812 4.046875 26.964844 4.085938 C 27.15625 4.183594 27.433594 4.28125 27.761719 4.28125 C 27.867188 4.28125 27.976562 4.269531 28.09375 4.246094 C 28.472656 4.167969 28.746094 3.972656 28.910156 3.824219 C 28.980469 3.761719 29.011719 3.671875 29 3.582031 Z M 26.871094 3.609375 C 27.023438 3.382812 27.296875 3.085938 27.738281 2.945312 C 27.914062 2.890625 28.082031 2.871094 28.230469 2.871094 C 28.382812 2.871094 28.515625 2.890625 28.621094 2.914062 C 28.691406 2.929688 28.746094 2.976562 28.769531 3.042969 C 28.796875 3.105469 28.789062 3.179688 28.75 3.238281 C 28.738281 3.257812 28.722656 3.28125 28.703125 3.304688 C 28.511719 3.222656 28.253906 3.15625 27.949219 3.175781 C 27.464844 3.207031 27.113281 3.4375 26.902344 3.625 C 26.875 3.652344 26.851562 3.679688 26.835938 3.714844 C 26.839844 3.679688 26.847656 3.640625 26.871094 3.609375 Z M 26.878906 3.855469 C 26.871094 3.789062 26.898438 3.722656 26.949219 3.679688 C 27.152344 3.496094 27.488281 3.273438 27.953125 3.246094 C 27.988281 3.242188 28.019531 3.242188 28.054688 3.242188 C 28.292969 3.242188 28.5 3.296875 28.660156 3.359375 C 28.535156 3.515625 28.351562 3.695312 28.089844 3.820312 C 27.671875 4.019531 27.265625 3.992188 27 3.933594 C 26.949219 3.921875 26.910156 3.894531 26.878906 3.855469 Z M 28.863281 3.773438 C 28.707031 3.917969 28.441406 4.105469 28.078125 4.179688 C 27.625 4.269531 27.238281 4.144531 26.996094 4.023438 C 26.976562 4.015625 26.960938 4.003906 26.945312 3.988281 C 26.957031 3.992188 26.972656 4 26.984375 4 C 27.097656 4.027344 27.238281 4.046875 27.390625 4.046875 C 27.613281 4.046875 27.863281 4.003906 28.121094 3.882812 C 28.402344 3.746094 28.597656 3.554688 28.726562 3.386719 C 28.757812 3.402344 28.789062 3.417969 28.816406 3.429688 C 28.878906 3.460938 28.921875 3.519531 28.929688 3.589844 C 28.9375 3.660156 28.914062 3.726562 28.863281 3.773438 Z M 3.664062 5.003906 C 3.421875 5.003906 3.222656 5.203125 3.222656 5.445312 C 3.222656 5.6875 3.421875 5.882812 3.664062 5.882812 C 3.910156 5.882812 4.105469 5.6875 4.105469 5.445312 C 4.105469 5.203125 3.910156 5.003906 3.664062 5.003906 Z M 3.664062 5.816406 C 3.460938 5.816406 3.292969 5.648438 3.292969 5.445312 C 3.292969 5.238281 3.460938 5.074219 3.664062 5.074219 C 3.871094 5.074219 4.035156 5.238281 4.035156 5.445312 C 4.035156 5.648438 3.871094 5.816406 3.664062 5.816406 Z M 25.832031 5.003906 C 25.585938 5.003906 25.390625 5.203125 25.390625 5.445312 C 25.390625 5.6875 25.585938 5.882812 25.832031 5.882812 C 26.074219 5.882812 26.273438 5.6875 26.273438 5.445312 C 26.273438 5.203125 26.074219 5.003906 25.832031 5.003906 Z M 25.832031 5.816406 C 25.625 5.816406 25.460938 5.648438 25.460938 5.445312 C 25.460938 5.238281 25.625 5.074219 25.832031 5.074219 C 26.035156 5.074219 26.203125 5.238281 26.203125 5.445312 C 26.203125 5.648438 26.035156 5.816406 25.832031 5.816406 Z M 25.832031 5.816406 " fill-opacity="1" fill-rule="nonzero"/></g></g></g></g><g clip-path="url(#301ac36c96)"><path fill="#000000" d="M 22.902344 27.640625 C 21.78125 29.667969 19.710938 32.136719 18.34375 34.148438 C 14.828125 39.765625 11.894531 45.847656 9.078125 51.804688 C 9.121094 51.992188 9.417969 52.109375 9.601562 52.203125 C 10.316406 52.527344 11.140625 52.617188 11.8125 53.039062 C 12.714844 53.648438 13.234375 54.355469 14.4375 54.285156 C 14.972656 54.304688 15.660156 54.183594 16.15625 54.304688 C 16.28125 54.351562 16.417969 54.445312 16.550781 54.566406 C 16.796875 54.769531 17.101562 55.042969 17.394531 55.234375 C 18.730469 56.214844 20.023438 55.464844 21.148438 55.507812 C 21.628906 55.730469 22.195312 56.246094 22.796875 56.34375 C 23.785156 56.542969 25.601562 56.679688 26.601562 56.515625 C 27.003906 56.457031 27.523438 56.070312 27.789062 55.890625 C 27.867188 55.835938 27.945312 55.789062 28.035156 55.816406 C 29.457031 56.222656 30.410156 56.605469 31.976562 55.316406 C 32.132812 55.195312 32.257812 55.097656 32.332031 55.050781 C 32.398438 55.011719 32.445312 55.015625 32.5625 55.082031 C 32.804688 55.214844 33.214844 55.484375 33.546875 55.507812 C 34.554688 55.609375 35.582031 55.398438 36.367188 54.742188 C 36.585938 54.550781 36.8125 54.214844 37.054688 54.0625 C 37.148438 54.015625 37.328125 54.0625 37.453125 54.097656 C 37.761719 54.191406 38.027344 54.210938 38.335938 54.167969 C 39.40625 54.074219 39.914062 53.808594 40.824219 53.242188 C 41.078125 53.070312 41.4375 53.007812 41.679688 52.847656 C 41.984375 52.609375 41.597656 51.882812 41.527344 51.59375 L 41.519531 51.578125 C 39.78125 46.675781 36.667969 40.414062 34.226562 35.613281 C 32.75 32.851562 29.871094 27.753906 29.585938 26.710938 C 29.53125 26.03125 29.828125 25.117188 30.039062 24.363281 C 30.257812 23.507812 30.75 22.550781 31.117188 21.652344 C 31.183594 21.492188 31.257812 21.316406 31.265625 21.183594 C 31.285156 20.78125 31.0625 20.1875 30.90625 19.777344 C 30.71875 19.269531 30.464844 18.785156 30.65625 18.238281 C 30.796875 17.515625 31.554688 15.824219 30.941406 15.328125 C 30.773438 15.210938 30.480469 15.199219 30.292969 15.332031 C 29.960938 15.585938 29.890625 15.976562 29.804688 16.414062 C 29.707031 16.996094 29.699219 17.648438 29.625 17.976562 C 29.605469 18.050781 29.59375 18.101562 29.550781 18.148438 C 28.820312 18.574219 27.839844 18.746094 27.203125 19.261719 C 26.773438 19.605469 26.363281 20.082031 25.964844 20.464844 C 25.8125 20.628906 25.632812 20.582031 25.488281 20.445312 C 24.792969 19.859375 24.066406 19.257812 23.179688 19.007812 C 22.941406 18.953125 22.640625 18.910156 22.386719 18.875 C 22.167969 18.832031 22 18.855469 21.835938 18.746094 C 21.492188 18.449219 21.40625 16.515625 20.875 15.875 C 20.675781 15.617188 20.414062 15.492188 20.0625 15.609375 C 19.910156 15.660156 19.730469 15.761719 19.710938 15.929688 C 19.6875 16.515625 20.34375 18.03125 20.625 18.707031 C 20.667969 18.816406 20.683594 18.910156 20.660156 19.03125 C 19.46875 21.832031 21.957031 23.96875 23.015625 26.457031 C 23.09375 26.691406 23.03125 26.9375 23.019531 27.175781 C 23.019531 27.375 22.972656 27.5 22.90625 27.640625 Z M 16.125 53.976562 C 13.59375 54.648438 12.128906 52.507812 9.898438 51.96875 C 9.871094 51.964844 9.847656 51.953125 9.828125 51.9375 L 9.746094 51.882812 C 9.691406 51.847656 9.714844 51.761719 9.78125 51.757812 C 11.398438 51.667969 12.871094 53.421875 14.273438 53.640625 C 14.820312 53.730469 15.386719 53.671875 15.941406 53.738281 C 16.074219 53.753906 16.378906 53.792969 16.371094 53.855469 C 16.375 53.90625 16.199219 53.957031 16.125 53.976562 Z M 16.300781 53.207031 C 16.246094 53.441406 16.058594 53.535156 15.84375 53.515625 C 14.476562 53.492188 13.203125 53.1875 12.246094 52.191406 C 12.117188 52.054688 12.085938 51.894531 12.167969 51.71875 C 15.308594 45.03125 17.839844 37.859375 21.882812 31.632812 C 22.359375 30.890625 23.132812 29.691406 23.546875 29.121094 C 23.695312 28.910156 23.820312 28.769531 24.113281 28.734375 C 24.265625 28.722656 24.503906 28.753906 24.582031 28.855469 L 24.589844 28.863281 C 24.65625 28.980469 24.582031 29.128906 24.550781 29.25 C 24.347656 29.867188 24.117188 30.484375 23.875 31.101562 C 22.917969 33.515625 21.75 35.875 20.785156 38.289062 C 18.871094 43.117188 17.839844 48.289062 16.300781 53.207031 Z M 23.226562 27.957031 C 23.132812 27.867188 23.316406 27.410156 23.574219 27.40625 C 24.394531 27.394531 26.4375 27.554688 27.476562 27.472656 C 28.101562 27.425781 28.632812 27.175781 29.078125 27.128906 C 29.226562 27.113281 29.507812 27.414062 29.5 27.59375 C 29.421875 27.855469 28.667969 28.101562 27.769531 28.230469 C 27.003906 28.335938 24.953125 28.320312 24.953125 28.320312 C 24.671875 28.296875 23.546875 28.277344 23.222656 27.957031 Z M 21.042969 55.140625 C 19.816406 55.933594 16.960938 55.15625 16.640625 54.085938 C 16.621094 54.023438 16.6875 53.972656 16.742188 54 C 17.53125 54.398438 19.417969 55.023438 21.042969 54.960938 C 21.113281 54.960938 21.042969 55.121094 21.042969 55.140625 Z M 16.691406 53.445312 L 16.6875 53.429688 C 18.4375 44.992188 21.445312 37.085938 24.742188 29.160156 C 24.847656 28.964844 25.019531 28.882812 25.226562 28.902344 C 25.4375 28.898438 25.542969 29.003906 25.484375 29.25 C 25.390625 29.714844 25.238281 30.167969 25.128906 30.628906 C 23.136719 38.410156 22.210938 46.578125 21.300781 54.480469 C 20.007812 55.074219 17.613281 54.582031 16.691406 53.445312 Z M 21.710938 55.394531 L 21.710938 55.378906 C 21.695312 55.195312 21.78125 55.054688 21.960938 55.148438 C 23.3125 55.707031 25.089844 55.90625 26.5625 55.792969 C 26.890625 55.769531 27.203125 55.535156 27.539062 55.488281 C 27.65625 55.472656 27.746094 55.5 27.753906 55.554688 C 27.058594 56.800781 22.082031 56.328125 21.710938 55.394531 Z M 21.636719 54.652344 L 21.632812 54.648438 C 21.9375 46.601562 23.777344 38.347656 25.273438 30.4375 C 25.371094 30.082031 25.566406 29.378906 25.648438 29.085938 C 25.683594 28.851562 25.964844 28.921875 26.15625 28.914062 C 26.296875 28.921875 26.339844 29 26.3125 29.167969 C 26.277344 29.414062 26.300781 29.683594 26.28125 29.9375 C 25.769531 38.265625 27.644531 46.488281 27.875 54.789062 C 27.953125 56.214844 21.710938 55.460938 21.636719 54.652344 Z M 26.28125 33.078125 L 26.28125 33.058594 C 26.269531 31.949219 26.484375 30.824219 26.480469 29.730469 C 26.5 29.449219 26.386719 29.042969 26.707031 28.90625 C 26.929688 28.832031 27.234375 28.78125 27.460938 28.851562 C 28.945312 37.128906 31.015625 45.472656 32.027344 53.871094 C 32.042969 54.058594 32.039062 54.1875 31.914062 54.289062 C 31.5625 54.671875 28.511719 55.667969 28.191406 54.820312 C 27.972656 47.578125 26.40625 40.292969 26.28125 33.078125 Z M 32.082031 54.671875 C 31.78125 55.929688 28.5 56.050781 28.09375 55.589844 C 28.066406 55.554688 28.0625 55.5 28.105469 55.472656 L 28.113281 55.46875 C 29.4375 55.339844 30.796875 55.324219 31.964844 54.550781 C 32.085938 54.488281 32.109375 54.570312 32.082031 54.671875 Z M 32.375 54.148438 L 32.371094 54.136719 C 31.410156 45.699219 29.128906 37.464844 27.695312 29.113281 C 27.671875 28.945312 27.714844 28.773438 27.914062 28.746094 C 28.113281 28.691406 28.289062 28.773438 28.355469 28.964844 C 28.464844 29.230469 28.589844 29.488281 28.675781 29.757812 C 31.195312 37.464844 33.488281 45.285156 36.585938 52.785156 C 36.894531 53.992188 32.859375 55.203125 32.375 54.148438 Z M 36.824219 53.792969 C 35.875 55.117188 33.863281 55.6875 32.449219 54.777344 L 32.449219 54.773438 C 32.457031 54.742188 32.570312 54.738281 32.621094 54.738281 C 34.3125 54.792969 34.679688 54.9375 36.144531 53.878906 C 36.300781 53.769531 36.4375 53.671875 36.542969 53.605469 C 36.648438 53.535156 36.734375 53.472656 36.851562 53.515625 C 36.964844 53.566406 36.886719 53.714844 36.824219 53.796875 Z M 41.226562 52.597656 C 41.300781 52.730469 40.765625 52.917969 40.722656 52.941406 C 39.636719 53.539062 38.371094 54.261719 37.199219 53.574219 L 37.199219 53.570312 C 37.195312 53.539062 37.300781 53.503906 37.347656 53.511719 C 37.863281 53.597656 38.371094 53.601562 38.953125 53.507812 C 39.5 53.429688 40.082031 53.097656 40.5625 52.847656 C 40.863281 52.6875 41.144531 52.441406 41.226562 52.597656 Z M 29.707031 28.335938 C 29.828125 28.417969 29.90625 28.585938 30.078125 28.835938 C 32.785156 33.28125 34.957031 38.28125 37.089844 43.054688 C 38.171875 45.453125 39.621094 48.433594 40.535156 50.820312 C 40.777344 51.46875 40.957031 51.996094 40.996094 52.316406 C 40.996094 52.339844 40.992188 52.367188 40.976562 52.386719 C 40.9375 52.445312 40.820312 52.515625 40.738281 52.546875 C 39.53125 53.058594 37.960938 53.777344 36.863281 52.859375 L 36.851562 52.847656 C 33.886719 44.976562 31.070312 37.011719 28.53125 28.988281 C 28.492188 28.867188 28.476562 28.730469 28.609375 28.65625 C 28.746094 28.585938 28.953125 28.476562 29.082031 28.59375 C 29.261719 28.761719 29.457031 29.222656 29.660156 29.449219 C 29.664062 29.453125 29.667969 29.449219 29.664062 29.445312 C 29.664062 29.402344 29.429688 28.957031 29.328125 28.738281 C 29.304688 28.6875 29.289062 28.640625 29.289062 28.589844 C 29.289062 28.414062 29.558594 28.28125 29.707031 28.335938 Z M 29.804688 17.933594 C 29.878906 17.507812 30.128906 15.671875 30.429688 15.515625 L 30.441406 15.511719 C 31.320312 15.359375 30.574219 17.945312 30.402344 18.457031 C 30.378906 18.511719 30.359375 18.554688 30.304688 18.585938 C 30.164062 18.664062 29.921875 18.660156 29.792969 18.570312 C 29.773438 18.554688 29.761719 18.535156 29.757812 18.511719 C 29.746094 18.414062 29.769531 18.207031 29.808594 17.933594 Z M 21.886719 19.019531 C 23.265625 18.972656 24.433594 19.964844 25.492188 20.800781 C 25.5625 20.855469 25.652344 20.921875 25.734375 20.914062 L 25.75 20.914062 C 25.832031 20.90625 25.914062 20.824219 25.976562 20.757812 C 26.933594 19.765625 28.023438 18.894531 29.34375 18.433594 C 29.433594 18.402344 29.5 18.378906 29.441406 18.425781 C 29.023438 18.753906 26.394531 20.96875 25.964844 21.273438 C 25.902344 21.28125 25.769531 21.1875 25.691406 21.140625 C 24.449219 20.332031 23.367188 19.464844 21.890625 19.09375 C 21.753906 19.054688 21.730469 19.027344 21.886719 19.019531 Z M 20.195312 15.816406 L 20.203125 15.816406 C 20.757812 15.550781 21.601562 18.402344 21.445312 18.914062 C 20.863281 19.554688 19.703125 15.925781 20.195312 15.816406 Z M 20.714844 21.4375 C 20.757812 21.007812 20.746094 19.265625 21.175781 19.222656 L 21.1875 19.222656 C 22.90625 19.664062 24.578125 20.484375 25.796875 21.804688 C 25.921875 21.9375 26.007812 21.890625 26.085938 21.761719 C 26.609375 20.988281 29.449219 18.175781 30.25 18.941406 C 30.578125 19.300781 30.484375 20.097656 30.617188 20.660156 C 30.667969 20.875 30.574219 20.972656 30.359375 21 C 29.53125 21.148438 28.632812 21.15625 27.835938 21.417969 C 27.394531 21.5625 27.035156 21.867188 26.644531 22.140625 C 26.523438 22.226562 26.417969 22.304688 26.335938 22.359375 C 26.199219 22.453125 26.152344 22.480469 26.074219 22.460938 C 25.246094 22.167969 24.285156 21.554688 23.375 21.472656 C 22.582031 21.421875 21.804688 21.632812 21.023438 21.636719 C 20.871094 21.640625 20.695312 21.617188 20.710938 21.4375 Z M 21.101562 22.316406 C 21.070312 22.277344 21.054688 22.242188 21.070312 22.207031 L 21.074219 22.199219 C 22.144531 21.308594 23.972656 21.859375 25.226562 22.324219 C 25.519531 22.425781 25.78125 22.773438 26.0625 22.84375 C 26.523438 22.667969 28.222656 21.375 29.417969 21.363281 C 29.703125 21.351562 30.914062 21.292969 30.765625 21.621094 C 30.539062 22.308594 30.089844 23.71875 29.816406 24.554688 C 29.480469 25.542969 29.320312 26.226562 29.15625 26.515625 C 29.082031 26.597656 28.957031 26.722656 28.84375 26.773438 C 28.550781 26.890625 27.917969 26.96875 27.179688 27.011719 C 26.570312 27.050781 25.886719 27.058594 25.28125 27.042969 C 24.839844 27.027344 24.441406 27 24.140625 26.957031 C 23.910156 26.914062 23.761719 26.902344 23.617188 26.804688 C 23.171875 26.285156 21.8125 23.050781 21.097656 22.316406 Z M 23.160156 28.578125 C 23.476562 28.355469 23.640625 28.472656 23.632812 28.785156 C 23.628906 28.960938 23.40625 29.167969 23.316406 29.320312 C 18.410156 36.140625 15.410156 44.019531 12.113281 51.707031 C 12.039062 51.867188 12.019531 51.996094 11.851562 51.960938 C 11.488281 51.878906 10.246094 51.601562 9.917969 51.523438 C 9.785156 51.492188 9.878906 51.339844 9.914062 51.25 C 10.316406 50.382812 10.777344 49.535156 11.1875 48.675781 L 11.195312 48.660156 C 14.089844 42.621094 17.847656 34.890625 22.0625 29.671875 C 22.328125 29.355469 22.800781 28.816406 23.160156 28.578125 Z M 23.160156 28.578125 " fill-opacity="1" fill-rule="nonzero"/></g><path fill="#000000" d="M 33.226562 47.269531 C 33.890625 49.582031 34.84375 51.847656 35.742188 54.074219 C 35.125 51.75 34.136719 49.492188 33.226562 47.269531 Z M 33.226562 47.269531 " fill-opacity="1" fill-rule="nonzero"/><g clip-path="url(#691e3a3599)"><path fill="#000000" d="M 59.371094 27.820312 C 59.398438 28.109375 59.421875 28.398438 59.433594 28.691406 C 59.496094 30.074219 59.554688 31.472656 59.628906 32.859375 C 59.628906 32.90625 59.617188 32.941406 59.566406 32.964844 C 59.542969 32.980469 59.542969 32.992188 59.542969 33.015625 C 59.542969 33.027344 59.554688 33.039062 59.566406 33.039062 C 59.617188 33.039062 59.640625 33.0625 59.640625 33.125 C 59.738281 35.027344 59.847656 36.941406 59.886719 38.859375 C 59.898438 39.230469 59.714844 39.460938 59.3125 39.496094 C 57.3125 39.675781 55.296875 39.835938 53.285156 39.953125 C 52.933594 39.980469 52.617188 39.992188 52.359375 39.992188 C 51.808594 40.003906 51.285156 39.703125 50.957031 39.28125 C 50.933594 39.253906 50.894531 39.195312 50.871094 39.148438 C 50.859375 39.136719 50.847656 39.136719 50.847656 39.148438 C 50.296875 40.050781 49.335938 40.003906 48.359375 39.941406 C 46.429688 39.820312 44.515625 39.691406 42.589844 39.53125 C 42.429688 39.519531 42.308594 39.496094 42.246094 39.449219 C 42.125 39.363281 42.0625 39.230469 42.0625 39.050781 C 42.101562 37.039062 42.1875 35.039062 42.285156 33.039062 C 42.285156 33.003906 42.296875 32.964844 42.308594 32.941406 C 42.320312 32.929688 42.320312 32.917969 42.308594 32.90625 C 42.285156 32.871094 42.285156 32.808594 42.285156 32.75 C 42.394531 30.675781 42.492188 29.039062 42.578125 27.796875 C 42.578125 27.796875 42.578125 27.785156 42.5625 27.785156 C 42.5625 27.785156 42.550781 27.785156 42.550781 27.796875 C 41.941406 30.992188 41.222656 34.570312 41.160156 37.941406 C 41.160156 38.027344 41.101562 38.097656 41.089844 38.171875 C 40.953125 38.664062 40.589844 38.664062 40.101562 38.691406 C 39.476562 38.714844 38.867188 38.714844 38.246094 38.691406 C 38.003906 38.675781 37.792969 38.664062 37.613281 38.628906 C 37.390625 38.59375 37.195312 38.472656 37.171875 38.230469 C 37.101562 37.398438 37.136719 36.570312 37.171875 35.675781 C 37.195312 34.703125 37.257812 33.691406 37.355469 32.652344 C 37.539062 30.664062 37.808594 28.570312 38.171875 26.363281 C 38.527344 24.207031 38.929688 22.230469 39.378906 20.414062 C 39.722656 19.050781 40.148438 17.726562 40.699219 16.4375 C 40.820312 16.160156 40.941406 15.90625 41.0625 15.675781 C 41.113281 15.59375 41.171875 15.53125 41.269531 15.496094 C 41.480469 15.398438 41.671875 15.316406 41.882812 15.230469 C 43.660156 14.519531 45.457031 13.90625 47.234375 13.253906 C 47.273438 13.242188 47.296875 13.230469 47.320312 13.207031 C 47.917969 12.558594 48.675781 12.027344 49.542969 11.820312 C 50.675781 11.558594 51.90625 11.570312 53.019531 11.917969 C 53.640625 12.109375 54.214844 12.558594 54.617188 13.039062 C 54.6875 13.125 54.699219 13.171875 54.8125 13.195312 C 55.273438 13.328125 55.617188 13.425781 55.835938 13.496094 C 57.542969 14.050781 59.214844 14.703125 60.859375 15.4375 C 61.042969 15.519531 61.191406 15.796875 61.261719 15.964844 C 61.433594 16.351562 61.59375 16.75 61.738281 17.148438 C 62.09375 18.136719 62.421875 19.0625 62.667969 20.050781 C 63.421875 23.183594 63.996094 26.351562 64.386719 29.558594 C 64.421875 29.808594 64.445312 30.0625 64.472656 30.316406 C 64.640625 31.980469 64.738281 33.449219 64.765625 34.90625 C 64.777344 35.941406 64.851562 36.980469 64.753906 38.027344 C 64.726562 38.269531 64.679688 38.4375 64.460938 38.546875 C 64.347656 38.59375 64.214844 38.628906 64.058594 38.640625 C 63.800781 38.664062 63.558594 38.675781 63.300781 38.675781 C 62.652344 38.691406 62.105469 38.675781 61.640625 38.664062 C 61.203125 38.652344 60.824219 38.558594 60.726562 38.085938 C 60.726562 38.074219 60.714844 38.0625 60.703125 38.050781 C 60.664062 38.015625 60.640625 37.992188 60.640625 37.953125 C 60.617188 35.570312 60.347656 33.242188 59.96875 30.992188 C 59.8125 30.0625 59.617188 29.003906 59.371094 27.785156 C 59.371094 27.773438 59.371094 27.773438 59.359375 27.773438 L 59.371094 27.820312 C 59.386719 27.808594 59.371094 27.808594 59.371094 27.820312 Z M 49.847656 12.449219 C 49.46875 12.617188 49.199219 12.75 48.945312 13.085938 C 48.761719 13.339844 48.785156 13.675781 48.832031 14.015625 C 48.832031 14.027344 48.847656 14.027344 48.859375 14.027344 C 49.125 13.980469 49.382812 13.953125 49.613281 13.941406 C 50.738281 13.859375 51.859375 13.882812 52.992188 14.003906 C 53.003906 14.003906 53.019531 14.003906 53.019531 13.992188 C 53.066406 13.796875 53.101562 13.59375 53.128906 13.386719 C 53.1875 13.027344 52.933594 12.75 52.617188 12.59375 C 52.554688 12.558594 52.480469 12.519531 52.421875 12.472656 C 52.945312 12.519531 53.53125 12.859375 53.519531 13.449219 C 53.519531 13.507812 53.519531 13.570312 53.519531 13.617188 C 53.519531 13.675781 53.53125 13.726562 53.554688 13.785156 C 53.933594 14.519531 54.3125 15.304688 54.8125 15.964844 C 54.8125 15.980469 54.824219 15.980469 54.835938 15.964844 L 55.53125 15.28125 C 55.542969 15.269531 55.542969 15.253906 55.542969 15.242188 C 55.46875 15.0625 55.371094 14.882812 55.261719 14.714844 C 54.945312 14.183594 54.578125 13.675781 54.164062 13.21875 C 53.824219 12.820312 53.382812 12.558594 52.859375 12.414062 C 52.175781 12.230469 51.492188 12.160156 50.785156 12.171875 C 50.320312 12.183594 49.882812 12.230469 49.492188 12.339844 C 48.308594 12.640625 47.46875 13.582031 46.785156 14.546875 C 46.625 14.761719 46.480469 14.992188 46.34375 15.230469 C 46.332031 15.253906 46.332031 15.28125 46.359375 15.304688 L 46.859375 15.90625 C 46.859375 15.917969 46.871094 15.917969 46.882812 15.90625 C 47.40625 15.242188 47.882812 14.53125 48.347656 13.820312 C 48.371094 13.785156 48.382812 13.75 48.394531 13.703125 C 48.429688 13.386719 48.46875 13.195312 48.710938 12.964844 C 49.054688 12.675781 49.417969 12.507812 49.847656 12.449219 Z M 58.359375 38.90625 L 59.117188 38.835938 C 59.128906 38.835938 59.140625 38.820312 59.140625 38.808594 L 58.957031 33.125 C 58.957031 33.109375 58.945312 33.097656 58.933594 33.097656 L 58.140625 32.941406 C 57.042969 32.703125 55.933594 32.519531 54.796875 32.386719 C 54.519531 32.351562 54.394531 32.003906 54.617188 31.847656 C 54.785156 31.726562 55.175781 31.796875 55.371094 31.847656 C 55.382812 31.847656 55.382812 31.847656 55.382812 31.835938 C 55.371094 30.894531 55.382812 29.964844 55.421875 29.027344 C 55.480469 27.691406 55.542969 26.363281 55.664062 25.039062 C 55.664062 25.039062 55.664062 25.039062 55.664062 25.027344 C 55.664062 25.027344 55.664062 25.027344 55.675781 25.027344 C 55.6875 25.109375 55.6875 25.207031 55.6875 25.292969 C 55.703125 27.363281 55.628906 29.4375 55.492188 31.496094 C 55.480469 31.605469 55.46875 31.726562 55.457031 31.835938 C 55.457031 31.847656 55.457031 31.847656 55.46875 31.847656 C 56.007812 31.90625 56.53125 31.992188 57.054688 32.085938 C 57.421875 32.160156 57.773438 32.21875 58.128906 32.292969 L 58.910156 32.460938 C 58.921875 32.460938 58.933594 32.460938 58.933594 32.449219 C 58.886719 30.640625 58.835938 28.835938 58.824219 27.027344 C 58.824219 25.992188 58.800781 24.953125 58.773438 23.917969 C 58.761719 23.726562 58.761719 23.519531 58.773438 23.316406 C 58.605469 21.929688 58.554688 20.53125 58.933594 19.171875 C 59.25 18.027344 59.75 16.964844 60.445312 15.992188 C 60.445312 15.980469 60.445312 15.980469 60.445312 15.964844 C 59.75 15.675781 59.066406 15.363281 58.359375 15.074219 C 57.335938 14.652344 56.3125 14.28125 55.285156 13.941406 C 55.25 13.929688 55.25 13.941406 55.273438 13.964844 C 55.578125 14.386719 55.882812 14.859375 56.054688 15.363281 C 56.078125 15.425781 56.066406 15.472656 56.019531 15.519531 C 55.785156 15.773438 55.554688 16.015625 55.3125 16.242188 C 55.296875 16.253906 55.296875 16.253906 55.3125 16.269531 C 55.53125 16.484375 55.773438 16.703125 56.019531 16.894531 C 56.089844 16.941406 56.105469 17.003906 56.066406 17.0625 C 55.96875 17.242188 55.882812 17.375 55.835938 17.472656 C 54.347656 20.242188 52.894531 23.074219 51.1875 26.097656 C 50.820312 26.75 50.492188 27.328125 49.980469 27.835938 C 49.96875 27.847656 49.96875 27.859375 49.96875 27.871094 C 49.96875 27.917969 49.96875 27.964844 49.96875 28.015625 C 50.066406 30.941406 50.261719 33.871094 50.847656 36.75 C 51.015625 37.605469 51.226562 38.582031 51.90625 39.097656 C 52.128906 39.269531 52.371094 39.253906 52.699219 39.242188 C 52.945312 39.242188 53.25 39.230469 53.601562 39.207031 C 55.296875 39.125 56.898438 39.027344 58.359375 38.90625 Z M 54.507812 18.808594 C 54.8125 18.242188 55.105469 17.664062 55.410156 17.097656 C 55.421875 17.085938 55.410156 17.0625 55.394531 17.050781 C 54.507812 16.21875 53.957031 15.183594 53.46875 14.039062 C 53.46875 14.027344 53.457031 14.027344 53.457031 14.039062 C 53.101562 15.871094 52.640625 17.664062 52.113281 19.449219 C 51.53125 21.449219 50.933594 23.4375 50.335938 25.425781 C 50.164062 25.980469 49.980469 26.53125 49.785156 27.085938 C 49.710938 27.28125 49.664062 27.460938 49.625 27.617188 C 49.613281 27.691406 49.625 27.703125 49.675781 27.640625 C 49.722656 27.59375 49.761719 27.519531 49.808594 27.4375 C 49.917969 27.21875 50.042969 27.003906 50.164062 26.796875 C 51.652344 24.160156 53.089844 21.496094 54.507812 18.808594 Z M 46.175781 24.617188 C 46.175781 24.617188 46.1875 24.617188 46.175781 24.617188 C 46.234375 25.027344 46.285156 25.425781 46.320312 25.835938 C 46.503906 27.785156 46.625 29.75 46.699219 31.703125 C 46.699219 31.714844 46.710938 31.726562 46.722656 31.714844 C 46.90625 31.691406 47.089844 31.664062 47.273438 31.628906 C 47.601562 31.570312 47.761719 32.003906 47.492188 32.171875 C 47.445312 32.207031 47.359375 32.230469 47.222656 32.253906 C 45.796875 32.484375 44.382812 32.785156 42.964844 33.097656 C 42.953125 33.097656 42.941406 33.109375 42.941406 33.125 C 42.941406 33.292969 42.941406 33.460938 42.929688 33.617188 C 42.871094 35.28125 42.820312 36.941406 42.785156 38.605469 C 42.785156 38.691406 42.785156 38.773438 42.785156 38.859375 C 42.785156 38.871094 42.796875 38.882812 42.808594 38.882812 C 44.6875 39.015625 46.578125 39.125 48.457031 39.207031 C 48.738281 39.21875 49.003906 39.21875 49.285156 39.21875 C 50.003906 39.207031 50.261719 38.628906 50.394531 38.039062 C 50.40625 37.980469 50.40625 37.929688 50.394531 37.871094 C 50.296875 37.53125 50.222656 37.183594 50.152344 36.847656 C 49.894531 35.519531 49.699219 34.183594 49.578125 32.847656 C 49.457031 31.496094 49.382812 30.292969 49.347656 29.21875 C 49.320312 28.640625 49.308594 28.195312 49.296875 27.882812 C 49.285156 27.546875 49.296875 27.269531 49.394531 26.980469 C 49.492188 26.664062 49.601562 26.363281 49.710938 26.0625 C 49.722656 26.039062 49.722656 26.003906 49.710938 25.980469 C 48.222656 23.0625 46.808594 20.097656 45.480469 17.085938 C 45.441406 16.992188 45.457031 16.917969 45.539062 16.859375 C 45.859375 16.640625 46.152344 16.414062 46.441406 16.171875 C 46.457031 16.160156 46.46875 16.136719 46.441406 16.125 C 46.285156 15.929688 46.125 15.738281 45.957031 15.558594 C 45.832031 15.414062 45.917969 15.269531 46.003906 15.097656 C 46.1875 14.738281 46.40625 14.414062 46.664062 14.109375 C 46.699219 14.074219 46.6875 14.0625 46.636719 14.074219 C 44.992188 14.652344 43.371094 15.28125 41.757812 15.953125 C 41.746094 15.953125 41.746094 15.964844 41.746094 15.980469 C 42.273438 16.75 42.675781 17.691406 42.953125 18.582031 C 43.394531 19.941406 43.441406 21.449219 43.257812 22.847656 C 43.234375 23.0625 43.210938 23.269531 43.210938 23.4375 C 43.175781 24.859375 43.136719 26.28125 43.113281 27.703125 C 43.089844 29.28125 43.015625 30.871094 42.953125 32.449219 C 42.953125 32.460938 42.953125 32.460938 42.964844 32.460938 C 44.175781 32.171875 45.382812 31.929688 46.601562 31.726562 C 46.613281 31.726562 46.613281 31.714844 46.613281 31.703125 C 46.589844 31.53125 46.566406 31.351562 46.539062 31.171875 C 46.320312 28.992188 46.1875 26.796875 46.136719 24.605469 C 46.152344 24.628906 46.164062 24.617188 46.175781 24.617188 Z M 46.054688 17.109375 C 47.273438 19.859375 48.578125 22.570312 49.917969 25.269531 C 49.917969 25.28125 49.933594 25.28125 49.933594 25.269531 L 50.371094 23.738281 C 50.371094 23.726562 50.371094 23.714844 50.371094 23.714844 C 49.6875 21.664062 49.25 19.519531 48.859375 17.398438 C 48.664062 16.316406 48.480469 15.21875 48.40625 14.125 C 48.40625 14.097656 48.394531 14.097656 48.382812 14.125 C 48.359375 14.171875 48.332031 14.230469 48.296875 14.292969 C 47.992188 14.808594 47.664062 15.316406 47.332031 15.808594 C 46.992188 16.316406 46.539062 16.726562 46.054688 17.097656 C 46.054688 17.085938 46.054688 17.097656 46.054688 17.109375 Z M 50.699219 20.386719 C 50.699219 20.292969 50.6875 20.207031 50.675781 20.109375 C 50.640625 18.125 50.640625 16.136719 50.722656 14.148438 C 50.722656 14.136719 50.710938 14.125 50.699219 14.125 C 50.664062 14.125 50.613281 14.125 50.542969 14.125 C 49.992188 14.136719 49.429688 14.183594 48.871094 14.242188 C 48.859375 14.242188 48.859375 14.253906 48.859375 14.253906 C 48.859375 14.269531 48.859375 14.269531 48.859375 14.28125 C 48.929688 14.835938 48.992188 15.398438 49.078125 15.953125 C 49.457031 18.304688 49.917969 20.640625 50.578125 22.917969 C 50.589844 22.964844 50.601562 22.964844 50.613281 22.917969 C 50.6875 22.652344 50.761719 22.386719 50.847656 22.109375 C 51.601562 19.558594 52.394531 17.015625 52.933594 14.398438 C 52.945312 14.339844 52.957031 14.292969 52.957031 14.253906 C 52.957031 14.230469 52.945312 14.21875 52.921875 14.21875 C 52.273438 14.160156 51.628906 14.136719 50.96875 14.125 C 50.933594 14.125 50.917969 14.136719 50.917969 14.171875 C 50.90625 16.242188 50.847656 18.328125 50.699219 20.386719 C 50.699219 20.386719 50.699219 20.398438 50.699219 20.386719 C 50.699219 20.398438 50.699219 20.386719 50.699219 20.386719 Z M 39.6875 38.136719 C 39.894531 38.136719 40.101562 38.125 40.320312 38.097656 C 40.40625 38.085938 40.441406 38.097656 40.441406 38.003906 C 40.453125 35.917969 40.710938 33.835938 41.101562 31.75 C 41.394531 30.195312 41.710938 28.726562 42.0625 27.316406 C 42.550781 25.363281 42.871094 24.097656 43.003906 23.53125 C 43.015625 23.425781 43.027344 23.316406 43.027344 23.21875 C 43.027344 22.882812 43.0625 22.570312 43.089844 22.207031 C 43.175781 21.015625 43.101562 19.808594 42.722656 18.675781 C 42.417969 17.75 42.015625 16.859375 41.492188 16.039062 C 41.492188 16.027344 41.480469 16.027344 41.464844 16.039062 C 41.464844 16.039062 41.464844 16.039062 41.453125 16.050781 C 41.367188 16.230469 41.269531 16.425781 41.199219 16.617188 C 40.699219 17.808594 40.296875 19.027344 39.992188 20.28125 C 39.160156 23.691406 38.539062 27.148438 38.125 30.640625 C 37.917969 32.351562 37.78125 34.074219 37.722656 35.808594 C 37.699219 36.558594 37.699219 37.304688 37.722656 38.050781 C 37.722656 38.074219 37.734375 38.085938 37.757812 38.085938 C 38.394531 38.183594 39.0625 38.148438 39.6875 38.136719 Z M 59.273438 24.773438 C 59.886719 27.109375 60.335938 29.039062 60.738281 31.195312 C 61.054688 32.882812 61.261719 34.570312 61.375 36.28125 C 61.410156 36.871094 61.410156 37.484375 61.421875 38.085938 C 61.421875 38.109375 61.445312 38.136719 61.472656 38.136719 L 61.777344 38.148438 C 62.445312 38.160156 63.140625 38.148438 63.824219 38.125 C 63.933594 38.125 64.042969 38.097656 64.15625 38.074219 C 64.167969 38.074219 64.179688 38.0625 64.179688 38.039062 C 64.226562 37.558594 64.238281 37.074219 64.238281 36.605469 C 64.238281 33.761719 64.03125 30.929688 63.628906 28.109375 C 63.324219 25.929688 62.921875 23.773438 62.445312 21.628906 C 62.203125 20.546875 61.957031 19.449219 61.582031 18.386719 C 61.277344 17.519531 61.019531 16.808594 60.703125 16.0625 C 60.703125 16.050781 60.691406 16.050781 60.691406 16.050781 C 60.066406 16.882812 59.605469 17.820312 59.261719 18.808594 C 58.933594 19.796875 58.8125 20.871094 58.859375 21.894531 C 58.871094 22.125 58.898438 22.558594 58.945312 23.207031 C 58.996094 23.726562 59.152344 24.269531 59.273438 24.773438 Z M 59.273438 24.773438 " fill-opacity="1" fill-rule="nonzero"/></g></svg>