<svg xmlns="http://www.w3.org/2000/svg" xmlns:xlink="http://www.w3.org/1999/xlink" width="96" zoomAndPan="magnify" viewBox="0 0 72 72" height="96" preserveAspectRatio="xMidYMid meet" version="1.0"><defs><filter x="0%" y="0%" width="100%" height="100%" id="32997295c4"><feColorMatrix values="0 0 0 0 1 0 0 0 0 1 0 0 0 0 1 0 0 0 1 0" color-interpolation-filters="sRGB"/></filter><clipPath id="d2d83c31b9"><path d="M 37 9.730469 L 62.707031 9.730469 L 62.707031 61 L 37 61 Z M 37 9.730469 " clip-rule="nonzero"/></clipPath><clipPath id="9c6a9f6dfa"><path d="M 9.457031 10 L 37 10 L 37 62.230469 L 9.457031 62.230469 Z M 9.457031 10 " clip-rule="nonzero"/></clipPath><mask id="c81c77457f"><g filter="url(#32997295c4)"><rect x="-7.2" width="86.4" fill="#000000" y="-7.2" height="86.4" fill-opacity="0.21"/></g></mask><clipPath id="05e463ac3d"><path d="M 2 2 L 27 2 L 27 5.9375 L 2 5.9375 Z M 2 2 " clip-rule="nonzero"/></clipPath><clipPath id="259c49f7a3"><path d="M 0.53125 0.6875 L 29.03125 0.6875 L 29.03125 5.9375 L 0.53125 5.9375 Z M 0.53125 0.6875 " clip-rule="nonzero"/></clipPath><clipPath id="4d263bbd8a"><rect x="0" width="30" y="0" height="7"/></clipPath></defs><g clip-path="url(#d2d83c31b9)"><path fill="#110a08" d="M 62.671875 43.511719 C 62.636719 43.390625 62.570312 43.289062 62.453125 43.230469 C 62.25 43.132812 62 43.246094 61.820312 43.34375 C 61.078125 43.742188 60.199219 44.328125 59.28125 44.621094 C 57.714844 45.121094 56.269531 44.601562 55.175781 43.445312 C 54.457031 42.6875 53.761719 41.371094 53.210938 40.429688 C 53.203125 40.417969 53.203125 40.402344 53.210938 40.390625 C 53.222656 40.371094 53.246094 40.367188 53.265625 40.378906 C 53.398438 40.460938 54.214844 40.75 55.296875 40.863281 C 56.605469 40.996094 57.773438 40.460938 58.867188 39.707031 C 59.566406 39.226562 60.171875 38.597656 60.566406 37.84375 C 60.945312 37.113281 61.085938 35.824219 60.109375 35.449219 C 59.523438 35.222656 58.863281 35.234375 58.25 35.3125 C 57.503906 35.410156 56.765625 35.585938 56.117188 35.96875 C 55.484375 36.34375 54.976562 36.804688 54.472656 37.1875 C 53.875 37.640625 53.378906 38.152344 52.929688 38.636719 C 52.910156 38.65625 52.886719 38.671875 52.855469 38.675781 C 52.785156 38.6875 52.71875 38.636719 52.710938 38.566406 C 52.605469 37.914062 52.6875 37.351562 52.945312 36.886719 C 53.101562 36.609375 53.445312 36.269531 53.972656 35.878906 C 55.0625 35.070312 56.035156 34.273438 56.976562 33.230469 C 57.839844 32.277344 58.386719 31.023438 58.996094 29.578125 C 59.171875 29.167969 59.394531 28.554688 59.671875 27.746094 C 59.847656 27.226562 59.949219 26.699219 59.972656 26.171875 C 60.015625 25.082031 59.941406 24.011719 59.742188 22.953125 C 59.515625 21.75 59.328125 20.886719 59.175781 20.359375 C 58.964844 19.640625 58.707031 18.945312 58.398438 18.269531 C 58.046875 17.496094 57.5625 16.4375 56.941406 15.085938 C 56.289062 13.660156 55.550781 12.460938 54.613281 10.804688 C 54.433594 10.488281 54.230469 10.183594 54 9.882812 C 53.953125 9.820312 53.882812 9.78125 53.800781 9.773438 C 52.878906 9.710938 51.914062 9.71875 50.902344 9.792969 C 49.878906 9.863281 49.136719 9.929688 48.679688 9.992188 C 47.671875 10.125 46.417969 10.371094 44.921875 10.730469 C 43.496094 11.074219 41.820312 11.5625 39.898438 12.191406 C 38.933594 12.507812 38.183594 12.867188 37.496094 13.464844 C 37.429688 13.523438 37.394531 13.613281 37.398438 13.703125 C 37.441406 14.195312 37.550781 14.601562 37.585938 15.074219 C 37.734375 17.3125 38.730469 23.171875 38.808594 23.601562 C 39.0625 24.96875 39.242188 25.84375 39.347656 26.222656 C 39.386719 26.371094 40.378906 29.4375 40.921875 30.488281 C 41.3125 31.242188 41.902344 32.121094 42.695312 33.121094 C 43.222656 33.792969 43.769531 34.347656 44.335938 34.785156 C 45.5 35.683594 46.859375 36.367188 48.253906 36.832031 C 48.808594 37.015625 49.390625 37.15625 49.894531 37.460938 C 50.398438 37.769531 50.859375 38.050781 51.335938 38.355469 C 51.378906 38.382812 51.390625 38.460938 51.3125 38.433594 C 50.894531 38.292969 50.503906 38.015625 50.121094 37.800781 C 49.589844 37.5 49.042969 37.296875 48.460938 37.117188 C 48.082031 37 47.703125 36.890625 47.3125 36.839844 C 46.136719 36.679688 44.613281 37.171875 44.558594 38.550781 C 44.554688 38.578125 44.554688 38.601562 44.554688 38.628906 C 44.554688 39.261719 44.75 39.808594 45.148438 40.277344 C 45.445312 40.628906 45.734375 40.917969 46.148438 41.113281 C 47.800781 41.894531 49.910156 41.339844 51.359375 40.363281 C 51.421875 40.320312 51.496094 40.296875 51.578125 40.289062 L 51.59375 40.289062 C 51.617188 40.292969 51.636719 40.320312 51.632812 40.347656 C 51.417969 41.511719 51.148438 42.53125 50.820312 43.410156 C 50.390625 44.554688 49.835938 45.765625 49.148438 47.050781 C 48.992188 47.351562 48.804688 47.644531 48.589844 47.90625 C 48.476562 48.039062 48.355469 48.175781 48.203125 48.265625 C 47.972656 48.402344 47.445312 48.390625 47.136719 48.28125 C 47.03125 48.242188 46.976562 48.160156 46.851562 48.164062 C 46.617188 48.167969 46.4375 48.394531 46.316406 48.570312 C 46.136719 48.839844 45.976562 49.117188 45.84375 49.410156 C 45.769531 49.5625 45.707031 49.71875 45.648438 49.875 C 45.609375 49.984375 45.421875 50.304688 45.5625 50.382812 C 45.65625 50.433594 45.851562 50.328125 45.921875 50.273438 C 46.054688 50.179688 46.140625 50.03125 46.21875 49.894531 C 46.394531 49.582031 46.539062 49.257812 46.65625 48.921875 C 46.6875 48.839844 46.792969 48.734375 46.96875 48.8125 C 47.511719 49.050781 48.214844 48.90625 48.699219 48.441406 C 49.046875 48.109375 49.386719 47.621094 49.597656 47.195312 C 49.960938 46.464844 50.382812 45.761719 50.695312 44.988281 C 51.125 43.921875 51.410156 43.199219 51.546875 42.8125 C 51.703125 42.367188 51.796875 42.058594 51.824219 41.882812 C 51.828125 41.863281 51.839844 41.84375 51.859375 41.832031 C 51.894531 41.8125 51.941406 41.824219 51.960938 41.863281 L 51.953125 41.867188 C 51.980469 41.917969 52.003906 42 52.027344 42.113281 C 52.195312 43.015625 52.34375 43.773438 52.464844 44.390625 C 52.796875 46.082031 52.925781 47.660156 53.144531 49.652344 C 53.195312 50.128906 53.347656 50.566406 53.347656 50.984375 C 53.347656 51.1875 53.394531 51.523438 53.484375 51.988281 C 53.542969 52.28125 53.585938 52.625 53.605469 53.015625 C 53.652344 53.796875 53.84375 54.917969 53.898438 55.40625 C 53.984375 56.207031 54.160156 56.921875 54.210938 57.816406 C 54.21875 57.96875 54.140625 58.0625 53.976562 58.089844 C 52.800781 58.285156 51.6875 58.519531 50.636719 58.785156 C 49.90625 58.96875 49.273438 59.308594 48.738281 59.800781 C 48.605469 59.921875 48.558594 60.058594 48.597656 60.21875 C 48.605469 60.265625 48.640625 60.300781 48.6875 60.3125 C 51.179688 60.902344 53.546875 61.023438 55.777344 60.675781 C 56.773438 60.523438 58.078125 60.195312 59.691406 59.691406 C 60.035156 59.585938 60.410156 59.402344 60.683594 59.300781 C 60.945312 59.207031 61.191406 59.074219 61.417969 58.914062 L 62.285156 58.285156 L 62.285156 58.28125 C 62.328125 58.25 62.335938 58.1875 62.300781 58.148438 C 62.175781 57.992188 62.003906 57.871094 61.785156 57.792969 C 61.148438 57.558594 60.453125 57.410156 59.710938 57.351562 C 58.53125 57.253906 57.625 57.226562 56.519531 57.375 C 56.339844 57.398438 56.230469 57.332031 56.195312 57.175781 C 56.078125 56.613281 55.914062 55.921875 55.703125 55.101562 C 55.292969 53.496094 55.097656 52.488281 54.6875 50.53125 C 54.496094 49.617188 54.34375 48.785156 54.234375 48.023438 C 54.117188 47.21875 53.9375 46.011719 53.695312 44.40625 C 53.660156 44.179688 53.621094 43.867188 53.574219 43.46875 C 53.515625 42.941406 53.417969 42.472656 53.296875 42.058594 C 53.292969 42.050781 53.292969 42.042969 53.296875 42.035156 C 53.304688 42.015625 53.328125 42.007812 53.34375 42.015625 C 53.390625 42.039062 53.425781 42.074219 53.441406 42.136719 C 53.519531 42.378906 53.625 42.582031 53.75 42.75 C 54.078125 43.191406 54.480469 43.636719 54.964844 44.089844 C 56.03125 45.09375 57.269531 45.480469 58.683594 45.25 C 59.527344 45.109375 60.246094 44.765625 61.015625 44.363281 C 61.261719 44.234375 61.484375 44.136719 61.679688 44.066406 C 61.734375 44.046875 61.792969 44.074219 61.808594 44.128906 C 61.878906 44.332031 62.199219 44.730469 62.460938 44.621094 C 62.667969 44.53125 62.683594 44.113281 62.699219 43.925781 C 62.707031 43.796875 62.710938 43.644531 62.671875 43.511719 Z M 53.214844 39.28125 C 53.359375 39.105469 53.964844 38.640625 54.328125 38.359375 C 54.761719 38.027344 55.1875 37.683594 55.621094 37.351562 C 56.09375 36.996094 56.539062 36.648438 57.125 36.503906 C 57.707031 36.363281 58.304688 36.324219 58.898438 36.359375 C 59.324219 36.386719 59.683594 36.488281 59.65625 36.988281 C 59.628906 37.546875 59.160156 38.085938 58.761719 38.492188 C 58.003906 39.265625 57.710938 39.773438 56.660156 40.035156 C 55.652344 40.285156 54.851562 40.285156 53.675781 39.859375 C 53.199219 39.6875 53.101562 39.414062 53.214844 39.28125 Z M 39.933594 25.960938 C 39.910156 25.96875 39.882812 25.953125 39.871094 25.925781 C 39.605469 24.992188 39.390625 24.136719 39.222656 23.359375 C 39.140625 22.980469 39.089844 22.554688 39.0625 22.078125 C 39.035156 21.535156 38.929688 21.050781 38.851562 20.367188 C 38.753906 19.492188 38.660156 18.652344 38.570312 17.839844 C 38.425781 16.550781 38.363281 15.359375 38.296875 14.191406 C 38.261719 13.605469 39.539062 13.164062 39.730469 13.078125 C 40.816406 12.578125 41.941406 12.183594 43.101562 11.882812 C 44.839844 11.4375 46.636719 11.054688 48.496094 10.738281 C 49.179688 10.621094 49.875 10.542969 50.566406 10.476562 C 50.890625 10.445312 52.769531 10.3125 52.902344 10.3125 C 52.933594 10.3125 52.933594 10.355469 52.910156 10.363281 C 52.082031 10.617188 51.210938 10.976562 50.277344 11.355469 C 49.214844 11.785156 48.375 12 47.128906 12.390625 C 44.972656 13.070312 42.65625 13.4375 40.179688 13.496094 C 39.746094 13.507812 39.433594 13.527344 39.1875 13.660156 C 39.105469 13.707031 39.101562 13.832031 39.175781 13.886719 C 39.5 14.128906 41.058594 14.015625 41.773438 14.007812 C 43.074219 13.996094 44.476562 13.773438 45.664062 13.394531 C 46.625 13.089844 47.011719 13.003906 47.945312 12.730469 C 48.378906 12.605469 48.707031 12.5 48.933594 12.417969 C 50.476562 11.847656 51.796875 11.316406 52.910156 10.820312 C 53.121094 10.726562 53.3125 10.59375 53.480469 10.425781 C 53.488281 10.417969 53.496094 10.410156 53.503906 10.40625 C 53.542969 10.386719 53.59375 10.402344 53.613281 10.445312 C 53.929688 11.082031 54.285156 11.640625 54.570312 12.226562 C 54.738281 12.585938 55.109375 13.285156 55.675781 14.324219 C 55.933594 14.796875 56.125 15.269531 56.359375 15.699219 C 56.789062 16.484375 57.277344 17.507812 57.832031 18.765625 C 57.957031 19.054688 58.363281 20.148438 58.554688 20.601562 C 58.589844 20.6875 58.417969 20.71875 57.957031 20.949219 C 57.640625 21.109375 55.878906 22.484375 54.558594 22.902344 C 53.742188 23.160156 52.96875 23.101562 52.003906 22.9375 C 50.855469 22.742188 49.5625 22.625 48.492188 22.984375 C 47.335938 23.375 46.195312 24.421875 44.570312 24.488281 C 41.800781 24.597656 41.378906 24.847656 39.953125 25.953125 C 39.949219 25.957031 39.941406 25.960938 39.933594 25.960938 Z M 51.226562 39.753906 C 50.050781 40.59375 48.746094 40.964844 47.339844 40.769531 C 46.507812 40.65625 45.960938 40.320312 45.457031 39.59375 C 45.167969 39.179688 45.078125 38.730469 45.1875 38.234375 C 45.378906 37.347656 46.722656 37.347656 47.390625 37.492188 C 48.121094 37.652344 50.339844 38.546875 51.234375 38.875 C 51.738281 39.0625 51.304688 39.699219 51.226562 39.753906 Z M 51.941406 37.96875 C 51.964844 38.171875 51.804688 38.285156 51.742188 38.203125 C 51.148438 37.433594 49.316406 36.574219 48.449219 36.136719 C 48.144531 35.984375 47.644531 35.886719 47.023438 35.625 C 45.222656 34.875 43.78125 33.734375 42.6875 32.195312 C 41.859375 31.03125 41.253906 29.957031 40.871094 28.972656 C 40.570312 28.191406 40.300781 27.40625 40.066406 26.609375 C 40.054688 26.566406 40.074219 26.523438 40.109375 26.492188 C 40.734375 25.960938 41.375 25.46875 42.234375 25.265625 C 42.917969 25.101562 43.632812 25.152344 44.320312 25.105469 C 45.667969 25.011719 46.757812 24.605469 48.003906 23.878906 C 48.613281 23.527344 49.289062 23.460938 49.984375 23.375 C 50.671875 23.289062 51.40625 23.414062 52.082031 23.535156 C 52.71875 23.648438 53.277344 23.757812 53.917969 23.636719 C 54.582031 23.515625 55.207031 23.304688 55.78125 23 C 55.835938 22.972656 57.78125 21.683594 58.554688 21.226562 C 58.59375 21.203125 58.644531 21.214844 58.671875 21.253906 C 58.722656 21.332031 58.761719 21.417969 58.78125 21.507812 C 59.21875 23.367188 59.445312 25.234375 59.140625 27 C 58.996094 27.847656 58.507812 29 58.335938 29.605469 C 58.175781 30.171875 57.710938 31.011719 57.503906 31.488281 C 57.351562 31.839844 56.316406 33.160156 56.070312 33.449219 C 55.914062 33.628906 55.675781 33.847656 55.355469 34.09375 C 55.097656 34.292969 54.84375 34.492188 54.601562 34.703125 C 54.378906 34.890625 54.175781 35.085938 53.925781 35.230469 C 53.671875 35.378906 53.414062 35.546875 53.167969 35.71875 C 52.367188 36.292969 51.839844 37.039062 51.941406 37.96875 Z M 53.738281 47.949219 C 54.203125 51.355469 54.917969 54.722656 55.632812 58.085938 C 55.652344 58.179688 55.671875 58.277344 55.742188 58.34375 C 55.828125 58.421875 55.953125 58.425781 56.066406 58.429688 C 57.769531 58.453125 59.476562 58.414062 61.175781 58.308594 C 61.042969 58.511719 60.796875 58.609375 60.570312 58.691406 C 57.25 59.859375 53.664062 60.269531 50.164062 59.875 C 51.515625 59.15625 53.007812 58.691406 54.53125 58.511719 C 54.628906 58.5 54.746094 58.480469 54.792969 58.390625 C 54.816406 58.335938 54.8125 58.273438 54.800781 58.214844 C 54.800781 57.554688 54.609375 56.84375 54.519531 56.191406 C 54.425781 55.527344 54.335938 54.867188 54.257812 54.203125 L 53.832031 51.382812 C 53.714844 50.773438 53.710938 50.15625 53.597656 49.445312 C 53.113281 46.324219 52.542969 43.183594 52.289062 40.035156 C 53.164062 42.578125 53.378906 45.289062 53.738281 47.949219 Z M 53.738281 47.949219 " fill-opacity="1" fill-rule="nonzero"/></g><g clip-path="url(#9c6a9f6dfa)"><path fill="#110a08" d="M 36.386719 14.179688 C 36.382812 14.042969 36.117188 13.847656 35.753906 13.664062 C 34.707031 13.144531 33.25 12.746094 32.84375 12.628906 C 29.972656 11.800781 27.203125 11.203125 24.535156 10.832031 C 23.933594 10.75 23.191406 10.703125 22.3125 10.695312 C 22.261719 10.695312 22.003906 10.6875 21.898438 10.679688 C 21.347656 10.640625 20.738281 10.648438 20.066406 10.695312 C 19.867188 10.710938 19.699219 10.761719 19.558594 10.851562 C 19.527344 10.871094 19.503906 10.902344 19.484375 10.9375 C 18.539062 12.851562 17.886719 14.195312 17.523438 14.960938 C 16.699219 16.703125 15.964844 18.714844 15.320312 20.992188 C 14.949219 22.296875 14.6875 23.546875 14.527344 24.742188 C 14.328125 26.226562 14.410156 27.71875 14.769531 29.21875 C 15.402344 31.855469 17.21875 34.140625 19.289062 35.804688 C 19.679688 36.117188 20.117188 36.378906 20.53125 36.65625 C 21.363281 37.214844 22.277344 37.613281 22.714844 38.578125 C 22.726562 38.605469 22.71875 38.640625 22.695312 38.660156 C 22.667969 38.683594 22.625 38.679688 22.601562 38.648438 L 22.347656 38.347656 C 22.324219 38.320312 22.296875 38.292969 22.265625 38.273438 C 21.613281 37.761719 20.886719 37.332031 20.085938 36.984375 C 19.335938 36.660156 18.773438 36.398438 18.042969 36.273438 C 16.878906 36.070312 15.273438 36.339844 14.875 37.617188 C 14.492188 38.839844 15.316406 39.769531 16.3125 40.417969 C 17.691406 41.320312 19.195312 41.683594 20.820312 41.507812 C 21.316406 41.457031 21.804688 41.367188 22.292969 41.234375 C 22.324219 41.226562 22.355469 41.234375 22.382812 41.25 C 22.429688 41.285156 22.441406 41.351562 22.40625 41.402344 L 21.976562 41.96875 C 21.976562 41.96875 21.976562 41.972656 21.972656 41.976562 C 21.179688 42.765625 20.253906 43.332031 19.191406 43.667969 C 18.515625 43.882812 17.707031 43.910156 17.03125 43.992188 C 15.652344 44.160156 14.683594 44.839844 13.574219 45.664062 C 13.183594 45.949219 12.699219 46.246094 12.214844 46.179688 C 12.015625 46.152344 11.707031 46.09375 11.28125 46.003906 C 10.496094 45.835938 10.136719 45.246094 9.757812 44.664062 C 9.726562 44.617188 9.679688 44.589844 9.625 44.589844 C 9.535156 44.585938 9.460938 44.65625 9.457031 44.746094 C 9.4375 45.667969 10.300781 46.320312 11.121094 46.519531 C 11.894531 46.707031 12.628906 46.65625 13.320312 46.367188 C 13.460938 46.308594 13.761719 46.113281 14.21875 45.777344 C 15.113281 45.121094 15.90625 44.609375 17.035156 44.472656 C 17.828125 44.375 18.257812 44.324219 18.324219 44.3125 C 19.445312 44.164062 20.457031 43.761719 21.359375 43.105469 C 21.863281 42.738281 22.121094 42.429688 22.5 41.9375 C 22.515625 41.917969 22.539062 41.914062 22.5625 41.921875 C 22.585938 41.933594 22.597656 41.960938 22.585938 41.988281 C 22.425781 42.355469 22.386719 42.730469 22.324219 43.136719 C 22.113281 44.484375 22.011719 45.707031 22.007812 46.796875 C 22.003906 48.195312 21.910156 49.371094 21.785156 50.421875 C 21.464844 53.113281 21.234375 55.03125 21.09375 56.171875 C 21.007812 56.882812 20.886719 57.671875 20.726562 58.546875 C 20.679688 58.804688 20.539062 58.816406 20.320312 58.804688 C 18.78125 58.71875 17.222656 59.019531 15.847656 59.488281 C 15.46875 59.617188 15.0625 59.828125 14.632812 60.128906 C 14.550781 60.1875 14.515625 60.300781 14.566406 60.390625 C 14.648438 60.535156 14.820312 60.679688 15.070312 60.808594 C 15.453125 61.011719 15.898438 61.113281 16.332031 61.292969 C 16.890625 61.527344 17.527344 61.683594 18.046875 61.753906 C 18.972656 61.886719 20.070312 62.003906 21.332031 62.117188 C 23.679688 62.328125 25.882812 62.332031 28.054688 61.398438 C 28.226562 61.324219 28.367188 61.234375 28.472656 61.125 C 28.507812 61.089844 28.511719 61.035156 28.480469 60.996094 C 28.234375 60.691406 27.847656 60.542969 27.460938 60.367188 C 27.273438 60.28125 27.078125 60.210938 26.867188 60.148438 C 25.523438 59.753906 24.121094 59.535156 22.664062 59.496094 C 22.628906 59.496094 22.601562 59.464844 22.601562 59.429688 C 22.59375 56.578125 22.726562 53.789062 22.996094 51.066406 C 23.222656 48.78125 23.339844 47.484375 23.355469 47.167969 C 23.363281 46.875 23.449219 45.574219 23.601562 43.265625 C 23.652344 42.480469 23.773438 41.625 23.886719 40.953125 C 23.890625 40.941406 23.898438 40.933594 23.90625 40.925781 C 23.925781 40.917969 23.949219 40.925781 23.957031 40.945312 C 23.957031 40.945312 24.617188 41.65625 25.140625 42.230469 C 25.289062 42.386719 25.726562 42.773438 26.453125 43.394531 C 26.664062 43.570312 26.925781 43.738281 27.238281 43.898438 C 27.9375 44.257812 28.667969 44.523438 29.25 44.488281 C 30.007812 44.445312 30.746094 44.351562 31.3125 44.511719 C 31.535156 44.574219 31.636719 44.714844 31.617188 44.929688 C 31.59375 45.230469 31.675781 45.507812 31.875 45.757812 C 31.878906 45.761719 31.882812 45.765625 31.886719 45.769531 C 31.941406 45.824219 32.03125 45.824219 32.082031 45.769531 C 32.269531 45.578125 32.269531 45.035156 32.234375 44.820312 C 32.070312 43.894531 30.875 43.914062 30.175781 44.035156 C 30.132812 44.042969 29.800781 44.082031 29.5625 44.078125 C 28.796875 44.066406 28.300781 43.808594 28.042969 43.671875 C 27.03125 43.132812 25.949219 42.167969 25.023438 41.433594 C 24.628906 41.121094 24.832031 41.144531 24.871094 41.15625 C 25.664062 41.390625 27.300781 41.21875 28.558594 40.5625 C 29.246094 40.203125 29.773438 39.738281 30.121094 39.117188 C 30.285156 38.820312 30.386719 38.535156 30.335938 38.28125 C 30.042969 36.816406 27.601562 37.679688 26.636719 38.074219 C 25.785156 38.417969 24.671875 39.179688 24.304688 39.625 C 24.25 39.691406 24.039062 39.703125 24.136719 39.492188 C 24.300781 39.140625 24.695312 38.785156 24.800781 38.683594 C 25.585938 37.894531 26.699219 37.507812 27.714844 37.203125 C 28.609375 36.933594 29.125 36.757812 29.261719 36.683594 C 29.75 36.402344 30.183594 36.101562 30.5625 35.777344 C 30.796875 35.574219 31.132812 35.167969 31.570312 34.5625 C 31.972656 34.007812 32.304688 33.542969 32.566406 33.167969 C 32.976562 32.574219 33.371094 31.835938 33.738281 30.949219 C 34.089844 30.113281 34.3125 29.539062 34.402344 29.226562 C 35.03125 27.101562 35.484375 24.914062 35.761719 22.671875 C 35.90625 21.519531 36.027344 20.492188 36.128906 19.582031 C 36.199219 18.96875 36.242188 18.429688 36.265625 17.96875 C 36.3125 16.886719 36.40625 16.152344 36.398438 15.21875 C 36.402344 15.136719 36.40625 14.941406 36.386719 14.179688 Z M 20.394531 11.085938 C 20.507812 11.066406 20.703125 11.054688 20.988281 11.046875 C 22.644531 11.007812 24.164062 11.117188 25.546875 11.382812 C 28.320312 11.917969 30.625 12.457031 34.015625 13.59375 C 34.082031 13.617188 35.003906 13.984375 35.214844 14.222656 C 35.21875 14.242188 35.210938 14.265625 35.1875 14.269531 C 35.167969 14.273438 33.558594 14.359375 32.039062 14.289062 C 30.496094 14.21875 28.503906 13.699219 28.15625 13.617188 C 25.660156 13.015625 24.046875 12.75 22.007812 11.878906 C 21.382812 11.617188 20.804688 11.371094 20.382812 11.144531 C 20.375 11.140625 20.367188 11.128906 20.367188 11.117188 C 20.363281 11.101562 20.375 11.085938 20.394531 11.085938 Z M 20.484375 40.644531 C 19.828125 40.601562 18.960938 40.46875 17.890625 40.253906 C 16.5625 39.984375 15.320312 39.277344 15.398438 37.746094 C 15.398438 37.683594 15.417969 37.628906 15.449219 37.574219 C 15.722656 37.113281 16.199219 36.9375 16.761719 36.960938 C 17.582031 37 18.371094 37.171875 19.121094 37.488281 C 20.164062 37.925781 21.203125 38.414062 22.03125 39.257812 C 22.269531 39.503906 22.679688 40.011719 22.71875 40.382812 C 22.722656 40.429688 22.695312 40.46875 22.648438 40.476562 C 21.839844 40.628906 21.117188 40.6875 20.484375 40.644531 Z M 22.097656 60.117188 C 22.113281 60.15625 22.148438 60.179688 22.1875 60.183594 C 23.417969 60.285156 24.261719 60.355469 24.726562 60.394531 C 25.675781 60.476562 26.585938 60.6875 27.453125 61.035156 C 27.46875 61.042969 27.480469 61.054688 27.484375 61.070312 C 27.492188 61.097656 27.476562 61.125 27.449219 61.132812 C 26.648438 61.371094 25.824219 61.492188 24.980469 61.496094 C 23.15625 61.503906 21.257812 61.445312 19.464844 61.066406 C 18.167969 60.792969 17.546875 60.703125 16.132812 60.394531 C 16.109375 60.390625 16.089844 60.371094 16.082031 60.347656 C 16.070312 60.308594 16.09375 60.269531 16.128906 60.257812 C 17.785156 59.796875 19.464844 59.652344 21.167969 59.828125 L 21.195312 59.828125 C 21.261719 59.820312 21.308594 59.761719 21.300781 59.695312 C 21.234375 59.125 21.222656 58.660156 21.316406 58.039062 C 21.460938 57.039062 21.585938 55.960938 21.6875 54.808594 C 21.691406 54.75 21.921875 52.765625 22.089844 51.140625 C 22.125 50.785156 22.191406 50.304688 22.285156 49.707031 C 22.378906 49.101562 22.4375 48.625 22.460938 48.265625 C 22.589844 46.332031 22.679688 44.96875 22.730469 44.183594 C 22.757812 43.808594 22.847656 43.136719 23.003906 42.175781 C 23.058594 41.824219 23.066406 41.355469 23.234375 40.988281 C 23.238281 40.980469 23.25 40.972656 23.257812 40.976562 C 23.269531 40.976562 23.277344 40.988281 23.273438 40.996094 C 23.152344 41.867188 23.070312 42.742188 23.011719 43.679688 C 22.816406 46.902344 22.667969 48.90625 22.5625 49.695312 C 22.511719 50.082031 22.46875 50.523438 22.441406 51.019531 C 22.402344 51.621094 22.367188 52.058594 22.335938 52.34375 C 22.0625 54.558594 21.929688 56.816406 21.933594 59.125 C 21.933594 59.503906 21.988281 59.835938 22.097656 60.117188 Z M 25.234375 39.359375 C 26.195312 38.71875 27.34375 38.132812 28.570312 37.980469 C 29.28125 37.894531 29.625 38.078125 29.730469 38.230469 C 29.875 38.445312 29.59375 38.765625 29.46875 38.925781 C 29.300781 39.144531 29.097656 39.339844 28.882812 39.507812 C 27.753906 40.382812 26.550781 40.585938 25.113281 40.59375 C 24.960938 40.59375 24.804688 40.585938 24.648438 40.566406 C 24.59375 40.558594 24.132812 40.523438 24.207031 40.425781 C 24.523438 39.996094 24.941406 39.554688 25.234375 39.359375 Z M 34.804688 24.996094 C 34.65625 25.921875 34.492188 26.746094 34.3125 27.46875 C 33.863281 29.285156 33.179688 31.21875 32.105469 32.769531 C 31.585938 33.527344 31.023438 34.230469 30.417969 34.882812 C 30.179688 35.140625 29.769531 35.441406 29.1875 35.785156 C 28.582031 36.140625 28.011719 36.4375 27.3125 36.675781 C 26.570312 36.929688 26.089844 37.097656 25.867188 37.179688 C 24.910156 37.53125 24.300781 38.039062 23.859375 38.960938 C 23.785156 39.117188 23.695312 39.339844 23.589844 39.453125 C 23.585938 39.457031 23.519531 39.457031 23.511719 39.433594 C 23.355469 38.867188 23.238281 38.597656 23.152344 38.367188 C 22.835938 37.503906 22.410156 37.082031 21.570312 36.589844 C 20.792969 36.132812 20.21875 35.746094 19.847656 35.425781 C 18.703125 34.433594 17.570312 33.332031 16.789062 32.078125 C 15.46875 29.964844 14.964844 27.628906 15.269531 25.074219 C 15.277344 25.027344 15.3125 24.984375 15.355469 24.96875 C 16.152344 24.730469 17.078125 24.546875 17.890625 24.644531 C 17.929688 24.648438 17.96875 24.660156 18.007812 24.671875 C 18.628906 24.898438 19.121094 25.039062 19.484375 25.09375 C 19.871094 25.152344 20.355469 24.933594 20.785156 24.714844 C 21.800781 24.199219 22.796875 23.960938 24.03125 24.414062 C 25.066406 24.796875 26.007812 25.414062 27.125 25.554688 C 27.730469 25.632812 28.347656 25.546875 28.921875 25.339844 C 29.46875 25.148438 29.898438 24.726562 30.429688 24.542969 C 31.042969 24.324219 31.785156 24.28125 32.648438 24.417969 C 33.378906 24.53125 34.082031 24.699219 34.757812 24.921875 C 34.789062 24.929688 34.8125 24.964844 34.804688 24.996094 Z M 34.84375 24.152344 C 34.84375 24.152344 34.84375 24.15625 34.84375 24.160156 C 34.832031 24.191406 34.796875 24.207031 34.761719 24.199219 C 33.566406 23.800781 32.175781 23.578125 30.921875 23.808594 C 30.09375 23.957031 29.441406 24.488281 28.65625 24.734375 C 27.859375 24.984375 26.964844 24.875 26.175781 24.648438 C 25.164062 24.359375 24.328125 23.710938 23.261719 23.546875 C 22.554688 23.4375 21.800781 23.507812 21.15625 23.820312 C 20.707031 24.039062 20.269531 24.347656 19.765625 24.421875 C 19.253906 24.5 18.765625 24.222656 18.273438 24.136719 C 17.699219 24.035156 17.097656 24.046875 16.527344 24.175781 C 16.121094 24.269531 15.765625 24.304688 15.351562 24.507812 C 15.339844 24.511719 15.324219 24.515625 15.3125 24.511719 C 15.277344 24.507812 15.25 24.472656 15.257812 24.4375 C 15.402344 23.621094 15.582031 22.839844 15.789062 22.09375 C 16.398438 19.933594 17.023438 18.066406 17.667969 16.496094 C 18.332031 14.882812 19.070312 13.238281 19.882812 11.554688 C 19.917969 11.484375 20.003906 11.457031 20.074219 11.492188 C 21.652344 12.300781 23.316406 12.9375 25.074219 13.394531 C 26.800781 13.84375 28.445312 14.226562 30.003906 14.535156 C 31.535156 14.835938 33.152344 14.914062 34.859375 14.765625 C 35.519531 14.710938 35.679688 14.59375 35.65625 15.394531 C 35.597656 17.816406 35.46875 19.859375 35.261719 21.535156 C 35.144531 22.511719 35.003906 23.382812 34.84375 24.152344 Z M 34.84375 24.152344 " fill-opacity="1" fill-rule="nonzero"/></g><g mask="url(#c81c77457f)"><g transform="matrix(1, 0, 0, 1, 23, 37)"><g clip-path="url(#4d263bbd8a)"><g clip-path="url(#05e463ac3d)"><path fill="#375726" d="M 12.757812 3.023438 C 12.386719 3.21875 11.886719 3.429688 11.277344 3.582031 C 11.082031 3.234375 10.640625 2.632812 9.824219 2.300781 C 9.09375 2.003906 8.425781 2.078125 8.089844 2.152344 C 8.085938 2.152344 8.082031 2.152344 8.078125 2.15625 C 8.078125 2.15625 8.078125 2.15625 8.074219 2.160156 C 8.070312 2.160156 8.070312 2.164062 8.066406 2.171875 C 8.0625 2.175781 8.0625 2.179688 8.0625 2.183594 C 8.0625 2.1875 8.0625 2.1875 8.0625 2.1875 C 8.066406 2.191406 8.066406 2.195312 8.066406 2.199219 C 8.066406 2.199219 8.066406 2.199219 8.066406 2.203125 C 8.234375 2.5 8.613281 3.054688 9.320312 3.40625 C 9.761719 3.632812 10.191406 3.707031 10.554688 3.71875 C 10.285156 3.753906 10 3.777344 9.703125 3.777344 C 9.058594 3.78125 8.417969 3.6875 7.796875 3.503906 C 7.585938 3.171875 7.109375 2.582031 6.265625 2.292969 C 5.519531 2.035156 4.855469 2.148438 4.527344 2.238281 C 4.523438 2.238281 4.523438 2.242188 4.523438 2.242188 C 4.519531 2.242188 4.519531 2.242188 4.515625 2.246094 C 4.511719 2.246094 4.511719 2.246094 4.511719 2.25 C 4.507812 2.25 4.503906 2.253906 4.503906 2.261719 C 4.5 2.265625 4.5 2.269531 4.5 2.273438 C 4.5 2.277344 4.5 2.277344 4.5 2.28125 C 4.503906 2.28125 4.503906 2.285156 4.503906 2.289062 C 4.503906 2.289062 4.503906 2.289062 4.503906 2.292969 C 4.6875 2.582031 5.097656 3.113281 5.820312 3.425781 C 6.242188 3.609375 6.648438 3.671875 6.992188 3.671875 C 7.316406 3.671875 7.585938 3.617188 7.769531 3.570312 C 8.027344 3.644531 8.292969 3.707031 8.554688 3.75 C 7.414062 3.96875 6.25 4.070312 5.089844 4.046875 C 4.304688 4.03125 3.511719 3.960938 2.730469 3.835938 C 2.707031 3.832031 2.6875 3.847656 2.6875 3.871094 C 2.6875 3.882812 2.695312 3.898438 2.707031 3.902344 C 2.710938 3.902344 2.714844 3.90625 2.714844 3.90625 C 3.5 4.03125 4.300781 4.101562 5.089844 4.117188 C 5.191406 4.117188 5.296875 4.121094 5.398438 4.121094 C 5.554688 4.121094 5.707031 4.117188 5.859375 4.113281 C 5.558594 4.183594 5.265625 4.289062 4.984375 4.425781 C 4.605469 4.613281 4.257812 4.859375 3.953125 5.152344 C 3.9375 5.167969 3.9375 5.191406 3.953125 5.203125 C 3.957031 5.210938 3.96875 5.214844 3.976562 5.214844 C 3.984375 5.214844 3.996094 5.210938 4 5.203125 C 4.300781 4.914062 4.644531 4.671875 5.015625 4.488281 C 5.476562 4.261719 5.972656 4.125 6.484375 4.085938 C 6.488281 4.085938 6.488281 4.082031 6.492188 4.082031 C 7.253906 4.035156 8.011719 3.933594 8.757812 3.78125 C 9.066406 3.824219 9.375 3.847656 9.683594 3.847656 C 9.691406 3.847656 9.699219 3.847656 9.703125 3.847656 C 9.789062 3.847656 9.871094 3.84375 9.949219 3.839844 C 9.617188 3.941406 9.242188 4.117188 8.886719 4.421875 C 8.289062 4.9375 8.050781 5.566406 7.964844 5.894531 C 7.964844 5.894531 7.964844 5.898438 7.964844 5.898438 C 7.964844 5.902344 7.964844 5.90625 7.964844 5.90625 C 7.964844 5.910156 7.964844 5.910156 7.964844 5.914062 C 7.964844 5.917969 7.96875 5.921875 7.972656 5.925781 C 7.972656 5.929688 7.976562 5.933594 7.984375 5.9375 C 7.988281 5.9375 7.992188 5.9375 7.996094 5.9375 C 7.996094 5.9375 7.996094 5.9375 8 5.9375 C 8.339844 5.929688 9.007812 5.839844 9.644531 5.375 C 10.371094 4.847656 10.648438 4.136719 10.75 3.757812 C 10.929688 3.730469 11.101562 3.695312 11.269531 3.65625 C 11.894531 3.503906 12.410156 3.285156 12.789062 3.085938 C 12.808594 3.078125 12.8125 3.054688 12.804688 3.039062 C 12.796875 3.023438 12.773438 3.015625 12.757812 3.023438 Z M 6.242188 2.359375 C 7.003906 2.621094 7.457031 3.128906 7.683594 3.460938 L 4.648438 2.28125 C 4.996094 2.199219 5.585938 2.132812 6.242188 2.359375 Z M 5.847656 3.363281 C 5.214844 3.085938 4.824219 2.636719 4.625 2.34375 L 7.660156 3.523438 C 7.265625 3.617188 6.585938 3.683594 5.847656 3.363281 Z M 9.796875 2.363281 C 10.542969 2.667969 10.964844 3.199219 11.175781 3.542969 L 8.210938 2.199219 C 8.5625 2.136719 9.15625 2.101562 9.796875 2.363281 Z M 8.183594 2.261719 L 11.148438 3.605469 C 10.75 3.675781 10.066406 3.707031 9.351562 3.347656 C 8.730469 3.035156 8.367188 2.5625 8.183594 2.261719 Z M 8.929688 4.476562 C 9.539062 3.953125 10.207031 3.816406 10.609375 3.789062 L 8.0625 5.808594 C 8.167969 5.472656 8.40625 4.925781 8.929688 4.476562 Z M 9.605469 5.320312 C 9.042969 5.726562 8.460938 5.839844 8.105469 5.863281 L 10.65625 3.84375 C 10.535156 4.226562 10.253906 4.847656 9.605469 5.320312 Z M 16.53125 2.917969 C 16.527344 2.933594 16.515625 2.941406 16.5 2.941406 C 16.496094 2.941406 16.492188 2.941406 16.488281 2.9375 C 16.484375 2.9375 16.480469 2.933594 16.476562 2.929688 C 16.457031 2.921875 16.453125 2.898438 16.464844 2.882812 C 16.472656 2.867188 16.496094 2.863281 16.511719 2.871094 C 16.527344 2.878906 16.539062 2.902344 16.53125 2.917969 Z M 26.835938 3.835938 C 26.054688 3.960938 25.261719 4.03125 24.476562 4.046875 C 23.316406 4.070312 22.148438 3.96875 21 3.75 C 21.261719 3.703125 21.519531 3.644531 21.773438 3.570312 C 21.957031 3.617188 22.230469 3.671875 22.550781 3.671875 C 22.898438 3.671875 23.300781 3.609375 23.722656 3.425781 C 24.445312 3.113281 24.859375 2.582031 25.039062 2.292969 C 25.039062 2.289062 25.039062 2.289062 25.039062 2.289062 C 25.042969 2.285156 25.042969 2.28125 25.042969 2.28125 C 25.042969 2.277344 25.042969 2.277344 25.042969 2.273438 C 25.042969 2.269531 25.042969 2.265625 25.042969 2.261719 C 25.039062 2.253906 25.039062 2.25 25.035156 2.25 C 25.03125 2.246094 25.03125 2.246094 25.03125 2.246094 C 25.027344 2.242188 25.023438 2.242188 25.019531 2.242188 C 25.019531 2.242188 25.019531 2.238281 25.019531 2.238281 C 24.6875 2.148438 24.023438 2.035156 23.28125 2.292969 C 22.433594 2.582031 21.960938 3.171875 21.75 3.503906 C 21.128906 3.6875 20.484375 3.78125 19.839844 3.777344 C 19.542969 3.777344 19.261719 3.753906 18.992188 3.71875 C 19.351562 3.707031 19.785156 3.628906 20.226562 3.40625 C 20.929688 3.054688 21.3125 2.5 21.476562 2.203125 C 21.476562 2.199219 21.476562 2.199219 21.476562 2.199219 C 21.480469 2.195312 21.480469 2.191406 21.480469 2.1875 C 21.480469 2.1875 21.480469 2.1875 21.480469 2.183594 C 21.480469 2.179688 21.480469 2.175781 21.480469 2.171875 C 21.476562 2.164062 21.472656 2.160156 21.46875 2.160156 C 21.46875 2.15625 21.46875 2.15625 21.464844 2.15625 C 21.464844 2.152344 21.460938 2.152344 21.457031 2.152344 C 21.457031 2.152344 21.457031 2.152344 21.453125 2.152344 C 21.121094 2.078125 20.449219 2.003906 19.71875 2.300781 C 18.902344 2.632812 18.460938 3.234375 18.265625 3.582031 C 17.671875 3.433594 17.179688 3.226562 16.8125 3.039062 C 16.796875 3.027344 16.777344 3.035156 16.765625 3.050781 C 16.757812 3.070312 16.765625 3.089844 16.78125 3.097656 C 17.15625 3.292969 17.664062 3.503906 18.277344 3.65625 C 18.277344 3.65625 18.277344 3.65625 18.28125 3.65625 C 18.445312 3.695312 18.617188 3.730469 18.792969 3.757812 C 18.894531 4.136719 19.171875 4.847656 19.898438 5.375 C 20.535156 5.839844 21.203125 5.929688 21.546875 5.9375 C 21.550781 5.9375 21.558594 5.9375 21.5625 5.9375 C 21.566406 5.933594 21.570312 5.929688 21.574219 5.925781 C 21.578125 5.921875 21.578125 5.917969 21.582031 5.914062 C 21.582031 5.910156 21.582031 5.910156 21.582031 5.910156 C 21.582031 5.90625 21.582031 5.902344 21.582031 5.898438 C 21.582031 5.898438 21.582031 5.894531 21.582031 5.894531 C 21.492188 5.566406 21.257812 4.9375 20.660156 4.421875 C 20.304688 4.117188 19.929688 3.941406 19.59375 3.839844 C 19.675781 3.84375 19.757812 3.847656 19.839844 3.847656 C 19.847656 3.847656 19.855469 3.847656 19.863281 3.847656 C 20.175781 3.847656 20.488281 3.824219 20.800781 3.78125 C 20.800781 3.78125 20.800781 3.78125 20.804688 3.78125 C 21.527344 3.929688 22.257812 4.027344 22.992188 4.078125 C 22.996094 4.082031 23.003906 4.085938 23.011719 4.085938 C 23.523438 4.125 24.019531 4.261719 24.480469 4.488281 C 24.851562 4.671875 25.195312 4.914062 25.496094 5.203125 C 25.5 5.210938 25.511719 5.214844 25.519531 5.214844 C 25.527344 5.214844 25.535156 5.210938 25.542969 5.203125 C 25.558594 5.191406 25.558594 5.167969 25.542969 5.152344 C 25.238281 4.859375 24.890625 4.613281 24.507812 4.425781 C 24.226562 4.285156 23.929688 4.179688 23.621094 4.109375 C 23.804688 4.117188 23.984375 4.121094 24.167969 4.121094 C 24.273438 4.121094 24.375 4.117188 24.480469 4.117188 C 25.269531 4.101562 26.066406 4.03125 26.851562 3.90625 C 26.855469 3.90625 26.859375 3.902344 26.859375 3.902344 C 26.875 3.894531 26.882812 3.882812 26.882812 3.871094 C 26.882812 3.847656 26.859375 3.832031 26.835938 3.835938 Z M 20.195312 3.347656 C 19.476562 3.707031 18.796875 3.675781 18.398438 3.605469 L 21.363281 2.261719 C 21.179688 2.566406 20.8125 3.035156 20.195312 3.347656 Z M 19.746094 2.363281 C 20.390625 2.101562 20.984375 2.136719 21.332031 2.199219 L 18.367188 3.542969 C 18.578125 3.199219 19.003906 2.667969 19.746094 2.363281 Z M 18.890625 3.84375 L 21.441406 5.863281 C 21.085938 5.839844 20.5 5.726562 19.941406 5.320312 C 19.292969 4.847656 19.011719 4.226562 18.890625 3.84375 Z M 21.484375 5.808594 L 18.933594 3.789062 C 19.335938 3.816406 20.007812 3.953125 20.613281 4.476562 C 21.140625 4.925781 21.378906 5.472656 21.484375 5.808594 Z M 23.695312 3.363281 C 22.960938 3.683594 22.28125 3.617188 21.886719 3.523438 L 24.921875 2.34375 C 24.71875 2.636719 24.332031 3.085938 23.695312 3.363281 Z M 23.300781 2.359375 C 23.957031 2.132812 24.550781 2.199219 24.894531 2.28125 L 21.859375 3.460938 C 22.089844 3.128906 22.542969 2.621094 23.300781 2.359375 Z M 23.300781 2.359375 " fill-opacity="1" fill-rule="nonzero"/></g><g clip-path="url(#259c49f7a3)"><path fill="#d79034" d="M 15.140625 1.078125 C 14.933594 1.253906 14.835938 1.480469 14.789062 1.679688 C 14.746094 1.484375 14.648438 1.253906 14.4375 1.078125 C 13.976562 0.6875 13.246094 0.820312 12.855469 1.1875 C 12.554688 1.472656 12.429688 1.933594 12.511719 2.484375 C 12.539062 2.660156 12.585938 2.828125 12.742188 3.074219 C 12.914062 3.339844 13.207031 3.699219 13.789062 4.347656 C 14.109375 4.703125 14.429688 5.046875 14.761719 5.402344 C 14.769531 5.410156 14.78125 5.414062 14.789062 5.414062 C 14.800781 5.414062 14.808594 5.410156 14.816406 5.402344 C 15.132812 5.066406 15.460938 4.710938 15.789062 4.347656 C 16.363281 3.707031 16.65625 3.351562 16.828125 3.085938 C 16.992188 2.832031 17.042969 2.660156 17.066406 2.484375 C 17.148438 1.933594 17.027344 1.472656 16.722656 1.1875 C 16.332031 0.820312 15.605469 0.691406 15.140625 1.078125 Z M 14.449219 1.25 C 14.652344 1.417969 14.722656 1.65625 14.746094 1.832031 L 14.753906 1.902344 C 14.753906 1.914062 14.753906 1.925781 14.753906 1.9375 L 14.753906 1.972656 C 14.753906 1.976562 14.75 1.980469 14.753906 1.988281 C 14.753906 2 14.753906 2.015625 14.753906 2.027344 C 14.753906 2.03125 14.753906 2.03125 14.753906 2.035156 C 14.753906 2.035156 14.753906 2.039062 14.753906 2.039062 C 14.753906 2.042969 14.753906 2.042969 14.753906 2.046875 C 14.753906 2.199219 14.699219 2.351562 14.601562 2.46875 C 14.484375 2.605469 14.324219 2.6875 14.148438 2.703125 C 14.007812 2.71875 13.871094 2.675781 13.765625 2.585938 C 13.65625 2.496094 13.59375 2.367188 13.578125 2.230469 C 13.558594 2.003906 13.726562 1.804688 13.953125 1.785156 C 14.132812 1.769531 14.289062 1.898438 14.304688 2.078125 C 14.316406 2.214844 14.214844 2.335938 14.078125 2.347656 C 13.96875 2.359375 13.875 2.277344 13.867188 2.171875 C 13.863281 2.152344 13.847656 2.140625 13.828125 2.140625 C 13.808594 2.140625 13.792969 2.160156 13.796875 2.179688 C 13.808594 2.324219 13.9375 2.429688 14.082031 2.417969 C 14.257812 2.402344 14.390625 2.246094 14.375 2.070312 C 14.355469 1.855469 14.164062 1.695312 13.949219 1.714844 C 13.683594 1.738281 13.488281 1.972656 13.511719 2.234375 C 13.539062 2.542969 13.796875 2.777344 14.101562 2.777344 C 14.121094 2.777344 14.136719 2.777344 14.15625 2.773438 C 14.351562 2.757812 14.527344 2.664062 14.652344 2.515625 C 14.714844 2.441406 14.761719 2.355469 14.789062 2.269531 C 14.816406 2.355469 14.863281 2.441406 14.925781 2.515625 C 15.050781 2.664062 15.230469 2.757812 15.425781 2.773438 C 15.441406 2.777344 15.460938 2.777344 15.476562 2.777344 C 15.78125 2.777344 16.042969 2.542969 16.070312 2.234375 C 16.09375 1.972656 15.894531 1.738281 15.632812 1.714844 C 15.414062 1.695312 15.222656 1.855469 15.203125 2.070312 C 15.1875 2.246094 15.320312 2.402344 15.496094 2.417969 C 15.566406 2.425781 15.636719 2.402344 15.691406 2.355469 C 15.742188 2.3125 15.777344 2.25 15.78125 2.179688 C 15.785156 2.160156 15.769531 2.140625 15.75 2.140625 C 15.730469 2.140625 15.714844 2.152344 15.714844 2.171875 C 15.707031 2.222656 15.683594 2.269531 15.644531 2.304688 C 15.605469 2.335938 15.554688 2.351562 15.503906 2.347656 C 15.363281 2.335938 15.261719 2.214844 15.273438 2.078125 C 15.289062 1.898438 15.445312 1.769531 15.625 1.785156 C 15.851562 1.804688 16.019531 2.003906 16 2.230469 C 15.988281 2.367188 15.921875 2.496094 15.8125 2.585938 C 15.707031 2.675781 15.570312 2.71875 15.429688 2.703125 C 15.253906 2.6875 15.09375 2.605469 14.980469 2.46875 C 14.878906 2.347656 14.824219 2.199219 14.824219 2.042969 C 14.824219 2.042969 14.824219 2.042969 14.824219 2.039062 C 14.824219 2.039062 14.824219 2.035156 14.824219 2.03125 C 14.824219 2.015625 14.824219 2 14.828125 1.988281 C 14.828125 1.980469 14.828125 1.976562 14.824219 1.972656 C 14.824219 1.960938 14.824219 1.953125 14.824219 1.941406 C 14.824219 1.9375 14.824219 1.9375 14.824219 1.933594 C 14.828125 1.925781 14.828125 1.914062 14.828125 1.898438 C 14.828125 1.878906 14.832031 1.855469 14.835938 1.828125 C 14.859375 1.660156 14.925781 1.417969 15.132812 1.25 C 15.5 0.941406 16.082031 1.046875 16.394531 1.339844 C 16.640625 1.570312 16.738281 1.941406 16.671875 2.390625 C 16.648438 2.535156 16.609375 2.675781 16.472656 2.886719 C 16.324219 3.113281 16.082031 3.410156 15.59375 3.949219 C 15.335938 4.238281 15.074219 4.523438 14.789062 4.824219 C 14.511719 4.53125 14.25 4.242188 13.984375 3.949219 C 13.105469 2.96875 12.957031 2.726562 12.910156 2.390625 C 12.84375 1.941406 12.941406 1.570312 13.183594 1.339844 C 13.363281 1.167969 13.636719 1.0625 13.90625 1.0625 C 14.101562 1.0625 14.292969 1.117188 14.449219 1.25 Z M 17 2.472656 C 16.972656 2.644531 16.925781 2.804688 16.769531 3.050781 C 16.597656 3.3125 16.308594 3.664062 15.738281 4.300781 C 15.417969 4.65625 15.097656 5.003906 14.789062 5.328125 C 14.464844 4.984375 14.152344 4.648438 13.84375 4.300781 C 13.261719 3.652344 12.96875 3.300781 12.804688 3.035156 C 12.652344 2.800781 12.605469 2.640625 12.582031 2.472656 C 12.503906 1.945312 12.617188 1.507812 12.90625 1.238281 C 13.117188 1.035156 13.4375 0.910156 13.753906 0.910156 C 13.972656 0.910156 14.1875 0.972656 14.367188 1.109375 C 13.972656 0.890625 13.4375 1.007812 13.136719 1.289062 C 12.875 1.535156 12.769531 1.929688 12.839844 2.402344 C 12.890625 2.75 13.039062 3.003906 13.933594 3.996094 C 14.207031 4.300781 14.476562 4.59375 14.761719 4.898438 C 14.769531 4.902344 14.78125 4.90625 14.789062 4.90625 C 14.800781 4.90625 14.808594 4.902344 14.816406 4.898438 C 15.109375 4.585938 15.378906 4.292969 15.644531 3.996094 C 16.132812 3.453125 16.382812 3.152344 16.53125 2.925781 C 16.671875 2.703125 16.71875 2.554688 16.742188 2.402344 C 16.808594 1.929688 16.703125 1.535156 16.445312 1.289062 C 16.144531 1.007812 15.609375 0.890625 15.214844 1.109375 C 15.652344 0.773438 16.316406 0.898438 16.675781 1.238281 C 16.960938 1.507812 17.074219 1.945312 17 2.472656 Z M 1.847656 2.878906 C 1.480469 2.761719 1.144531 2.796875 0.929688 2.847656 C 0.839844 2.867188 0.765625 2.929688 0.730469 3.015625 C 0.699219 3.101562 0.707031 3.195312 0.757812 3.273438 C 0.769531 3.292969 0.785156 3.3125 0.796875 3.332031 C 0.769531 3.34375 0.742188 3.355469 0.71875 3.367188 C 0.636719 3.410156 0.582031 3.488281 0.570312 3.582031 C 0.558594 3.671875 0.589844 3.761719 0.65625 3.824219 C 0.820312 3.972656 1.09375 4.167969 1.476562 4.246094 C 1.589844 4.269531 1.703125 4.28125 1.808594 4.28125 C 2.136719 4.28125 2.414062 4.183594 2.605469 4.085938 C 2.683594 4.046875 2.738281 3.96875 2.753906 3.882812 C 2.765625 3.867188 2.773438 3.851562 2.78125 3.832031 C 2.816406 3.746094 2.804688 3.648438 2.753906 3.570312 C 2.597656 3.335938 2.308594 3.027344 1.847656 2.878906 Z M 0.816406 3.238281 C 0.777344 3.179688 0.769531 3.105469 0.796875 3.042969 C 0.824219 2.976562 0.875 2.929688 0.945312 2.914062 C 1.050781 2.890625 1.183594 2.871094 1.335938 2.871094 C 1.488281 2.871094 1.652344 2.890625 1.828125 2.945312 C 2.269531 3.085938 2.542969 3.382812 2.695312 3.609375 C 2.71875 3.640625 2.730469 3.679688 2.730469 3.714844 C 2.714844 3.679688 2.695312 3.652344 2.664062 3.625 C 2.453125 3.4375 2.101562 3.207031 1.617188 3.175781 C 1.316406 3.15625 1.054688 3.222656 0.863281 3.304688 C 0.847656 3.28125 0.832031 3.257812 0.816406 3.238281 Z M 2.6875 3.855469 C 2.660156 3.894531 2.617188 3.921875 2.566406 3.933594 C 2.300781 3.992188 1.894531 4.019531 1.476562 3.820312 C 1.214844 3.695312 1.03125 3.515625 0.90625 3.359375 C 1.066406 3.296875 1.273438 3.242188 1.515625 3.242188 C 1.546875 3.242188 1.582031 3.242188 1.613281 3.246094 C 2.078125 3.273438 2.417969 3.496094 2.621094 3.679688 C 2.671875 3.722656 2.695312 3.789062 2.6875 3.855469 Z M 2.574219 4.023438 C 2.328125 4.144531 1.945312 4.269531 1.488281 4.179688 C 1.125 4.105469 0.863281 3.917969 0.703125 3.773438 C 0.652344 3.726562 0.628906 3.660156 0.636719 3.589844 C 0.648438 3.519531 0.6875 3.460938 0.75 3.429688 C 0.777344 3.417969 0.808594 3.402344 0.839844 3.386719 C 0.96875 3.554688 1.164062 3.746094 1.449219 3.882812 C 1.703125 4.003906 1.957031 4.046875 2.175781 4.046875 C 2.328125 4.046875 2.46875 4.027344 2.582031 4 C 2.597656 4 2.609375 3.992188 2.621094 3.988281 C 2.609375 4.003906 2.589844 4.015625 2.574219 4.023438 Z M 29 3.582031 C 28.984375 3.488281 28.933594 3.410156 28.847656 3.367188 C 28.824219 3.355469 28.796875 3.34375 28.769531 3.332031 C 28.785156 3.3125 28.796875 3.292969 28.808594 3.273438 C 28.859375 3.195312 28.871094 3.101562 28.835938 3.015625 C 28.800781 2.929688 28.730469 2.867188 28.636719 2.847656 C 28.421875 2.796875 28.085938 2.761719 27.71875 2.878906 C 27.257812 3.027344 26.972656 3.335938 26.8125 3.570312 C 26.761719 3.648438 26.75 3.746094 26.785156 3.832031 C 26.792969 3.851562 26.800781 3.867188 26.8125 3.882812 C 26.828125 3.96875 26.882812 4.046875 26.964844 4.085938 C 27.15625 4.183594 27.433594 4.28125 27.761719 4.28125 C 27.867188 4.28125 27.976562 4.269531 28.09375 4.246094 C 28.472656 4.167969 28.746094 3.972656 28.910156 3.824219 C 28.980469 3.761719 29.011719 3.671875 29 3.582031 Z M 26.871094 3.609375 C 27.023438 3.382812 27.296875 3.085938 27.738281 2.945312 C 27.914062 2.890625 28.082031 2.871094 28.230469 2.871094 C 28.382812 2.871094 28.515625 2.890625 28.621094 2.914062 C 28.691406 2.929688 28.746094 2.976562 28.769531 3.042969 C 28.796875 3.105469 28.789062 3.179688 28.75 3.238281 C 28.738281 3.257812 28.722656 3.28125 28.703125 3.304688 C 28.511719 3.222656 28.253906 3.15625 27.949219 3.175781 C 27.464844 3.207031 27.113281 3.4375 26.902344 3.625 C 26.875 3.652344 26.851562 3.679688 26.835938 3.714844 C 26.839844 3.679688 26.847656 3.640625 26.871094 3.609375 Z M 26.878906 3.855469 C 26.871094 3.789062 26.898438 3.722656 26.949219 3.679688 C 27.152344 3.496094 27.488281 3.273438 27.953125 3.246094 C 27.988281 3.242188 28.019531 3.242188 28.054688 3.242188 C 28.292969 3.242188 28.5 3.296875 28.660156 3.359375 C 28.535156 3.515625 28.351562 3.695312 28.089844 3.820312 C 27.671875 4.019531 27.265625 3.992188 27 3.933594 C 26.949219 3.921875 26.910156 3.894531 26.878906 3.855469 Z M 28.863281 3.773438 C 28.707031 3.917969 28.441406 4.105469 28.078125 4.179688 C 27.625 4.269531 27.238281 4.144531 26.996094 4.023438 C 26.976562 4.015625 26.960938 4.003906 26.945312 3.988281 C 26.957031 3.992188 26.972656 4 26.984375 4 C 27.097656 4.027344 27.238281 4.046875 27.390625 4.046875 C 27.613281 4.046875 27.863281 4.003906 28.121094 3.882812 C 28.402344 3.746094 28.597656 3.554688 28.726562 3.386719 C 28.757812 3.402344 28.789062 3.417969 28.816406 3.429688 C 28.878906 3.460938 28.921875 3.519531 28.929688 3.589844 C 28.9375 3.660156 28.914062 3.726562 28.863281 3.773438 Z M 3.664062 5.003906 C 3.421875 5.003906 3.222656 5.203125 3.222656 5.445312 C 3.222656 5.6875 3.421875 5.882812 3.664062 5.882812 C 3.910156 5.882812 4.105469 5.6875 4.105469 5.445312 C 4.105469 5.203125 3.910156 5.003906 3.664062 5.003906 Z M 3.664062 5.816406 C 3.460938 5.816406 3.292969 5.648438 3.292969 5.445312 C 3.292969 5.238281 3.460938 5.074219 3.664062 5.074219 C 3.871094 5.074219 4.035156 5.238281 4.035156 5.445312 C 4.035156 5.648438 3.871094 5.816406 3.664062 5.816406 Z M 25.832031 5.003906 C 25.585938 5.003906 25.390625 5.203125 25.390625 5.445312 C 25.390625 5.6875 25.585938 5.882812 25.832031 5.882812 C 26.074219 5.882812 26.273438 5.6875 26.273438 5.445312 C 26.273438 5.203125 26.074219 5.003906 25.832031 5.003906 Z M 25.832031 5.816406 C 25.625 5.816406 25.460938 5.648438 25.460938 5.445312 C 25.460938 5.238281 25.625 5.074219 25.832031 5.074219 C 26.035156 5.074219 26.203125 5.238281 26.203125 5.445312 C 26.203125 5.648438 26.035156 5.816406 25.832031 5.816406 Z M 25.832031 5.816406 " fill-opacity="1" fill-rule="nonzero"/></g></g></g></g></svg>