<svg xmlns="http://www.w3.org/2000/svg" xmlns:xlink="http://www.w3.org/1999/xlink" width="96" zoomAndPan="magnify" viewBox="0 0 72 72" height="96" preserveAspectRatio="xMidYMid meet" version="1.0"><defs><filter x="0%" y="0%" width="100%" height="100%" id="bc2ed3e724"><feColorMatrix values="0 0 0 0 1 0 0 0 0 1 0 0 0 0 1 0 0 0 1 0" color-interpolation-filters="sRGB"/></filter><mask id="dc6496b856"><g filter="url(#bc2ed3e724)"><rect x="-7.2" width="86.4" fill="#000000" y="-7.2" height="86.4" fill-opacity="0.21"/></g></mask><clipPath id="c932cdd6a9"><path d="M 2 2 L 27 2 L 27 5.9375 L 2 5.9375 Z M 2 2 " clip-rule="nonzero"/></clipPath><clipPath id="427b4906b1"><path d="M 0.53125 0.6875 L 29.03125 0.6875 L 29.03125 5.9375 L 0.53125 5.9375 Z M 0.53125 0.6875 " clip-rule="nonzero"/></clipPath><clipPath id="5f2ddf185a"><rect x="0" width="30" y="0" height="7"/></clipPath><clipPath id="903ca2a372"><path d="M 10.695312 10 L 60.945312 10 L 60.945312 66.449219 L 10.695312 66.449219 Z M 10.695312 10 " clip-rule="nonzero"/></clipPath><clipPath id="0df4275bc3"><path d="M 37 7.199219 L 40 7.199219 L 40 11 L 37 11 Z M 37 7.199219 " clip-rule="nonzero"/></clipPath></defs><g mask="url(#dc6496b856)"><g transform="matrix(1, 0, 0, 1, 23, 37)"><g clip-path="url(#5f2ddf185a)"><g clip-path="url(#c932cdd6a9)"><path fill="#375726" d="M 12.757812 3.023438 C 12.386719 3.21875 11.886719 3.429688 11.277344 3.582031 C 11.082031 3.234375 10.640625 2.632812 9.824219 2.300781 C 9.09375 2.003906 8.425781 2.078125 8.089844 2.152344 C 8.085938 2.152344 8.082031 2.152344 8.078125 2.15625 C 8.078125 2.15625 8.078125 2.15625 8.074219 2.160156 C 8.070312 2.160156 8.070312 2.164062 8.066406 2.171875 C 8.0625 2.175781 8.0625 2.179688 8.0625 2.183594 C 8.0625 2.1875 8.0625 2.1875 8.0625 2.1875 C 8.066406 2.191406 8.066406 2.195312 8.066406 2.199219 C 8.066406 2.199219 8.066406 2.199219 8.066406 2.203125 C 8.234375 2.5 8.613281 3.054688 9.320312 3.40625 C 9.761719 3.632812 10.191406 3.707031 10.554688 3.71875 C 10.285156 3.753906 10 3.777344 9.703125 3.777344 C 9.058594 3.78125 8.417969 3.6875 7.796875 3.503906 C 7.585938 3.171875 7.109375 2.582031 6.265625 2.292969 C 5.519531 2.035156 4.855469 2.148438 4.527344 2.238281 C 4.523438 2.238281 4.523438 2.242188 4.523438 2.242188 C 4.519531 2.242188 4.519531 2.242188 4.515625 2.246094 C 4.511719 2.246094 4.511719 2.246094 4.511719 2.25 C 4.507812 2.25 4.503906 2.253906 4.503906 2.261719 C 4.5 2.265625 4.5 2.269531 4.5 2.273438 C 4.5 2.277344 4.5 2.277344 4.5 2.28125 C 4.503906 2.28125 4.503906 2.285156 4.503906 2.289062 C 4.503906 2.289062 4.503906 2.289062 4.503906 2.292969 C 4.6875 2.582031 5.097656 3.113281 5.820312 3.425781 C 6.242188 3.609375 6.648438 3.671875 6.992188 3.671875 C 7.316406 3.671875 7.585938 3.617188 7.769531 3.570312 C 8.027344 3.644531 8.292969 3.707031 8.554688 3.75 C 7.414062 3.96875 6.25 4.070312 5.089844 4.046875 C 4.304688 4.03125 3.511719 3.960938 2.730469 3.835938 C 2.707031 3.832031 2.6875 3.847656 2.6875 3.871094 C 2.6875 3.882812 2.695312 3.898438 2.707031 3.902344 C 2.710938 3.902344 2.714844 3.90625 2.714844 3.90625 C 3.5 4.03125 4.300781 4.101562 5.089844 4.117188 C 5.191406 4.117188 5.296875 4.121094 5.398438 4.121094 C 5.554688 4.121094 5.707031 4.117188 5.859375 4.113281 C 5.558594 4.183594 5.265625 4.289062 4.984375 4.425781 C 4.605469 4.613281 4.257812 4.859375 3.953125 5.152344 C 3.9375 5.167969 3.9375 5.191406 3.953125 5.203125 C 3.957031 5.210938 3.96875 5.214844 3.976562 5.214844 C 3.984375 5.214844 3.996094 5.210938 4 5.203125 C 4.300781 4.914062 4.644531 4.671875 5.015625 4.488281 C 5.476562 4.261719 5.972656 4.125 6.484375 4.085938 C 6.488281 4.085938 6.488281 4.082031 6.492188 4.082031 C 7.253906 4.035156 8.011719 3.933594 8.757812 3.78125 C 9.066406 3.824219 9.375 3.847656 9.683594 3.847656 C 9.691406 3.847656 9.699219 3.847656 9.703125 3.847656 C 9.789062 3.847656 9.871094 3.84375 9.949219 3.839844 C 9.617188 3.941406 9.242188 4.117188 8.886719 4.421875 C 8.289062 4.9375 8.050781 5.566406 7.964844 5.894531 C 7.964844 5.894531 7.964844 5.898438 7.964844 5.898438 C 7.964844 5.902344 7.964844 5.90625 7.964844 5.90625 C 7.964844 5.910156 7.964844 5.910156 7.964844 5.914062 C 7.964844 5.917969 7.96875 5.921875 7.972656 5.925781 C 7.972656 5.929688 7.976562 5.933594 7.984375 5.9375 C 7.988281 5.9375 7.992188 5.9375 7.996094 5.9375 C 7.996094 5.9375 7.996094 5.9375 8 5.9375 C 8.339844 5.929688 9.007812 5.839844 9.644531 5.375 C 10.371094 4.847656 10.648438 4.136719 10.75 3.757812 C 10.929688 3.730469 11.101562 3.695312 11.269531 3.65625 C 11.894531 3.503906 12.410156 3.285156 12.789062 3.085938 C 12.808594 3.078125 12.8125 3.054688 12.804688 3.039062 C 12.796875 3.023438 12.773438 3.015625 12.757812 3.023438 Z M 6.242188 2.359375 C 7.003906 2.621094 7.457031 3.128906 7.683594 3.460938 L 4.648438 2.28125 C 4.996094 2.199219 5.585938 2.132812 6.242188 2.359375 Z M 5.847656 3.363281 C 5.214844 3.085938 4.824219 2.636719 4.625 2.34375 L 7.660156 3.523438 C 7.265625 3.617188 6.585938 3.683594 5.847656 3.363281 Z M 9.796875 2.363281 C 10.542969 2.667969 10.964844 3.199219 11.175781 3.542969 L 8.210938 2.199219 C 8.5625 2.136719 9.15625 2.101562 9.796875 2.363281 Z M 8.183594 2.261719 L 11.148438 3.605469 C 10.75 3.675781 10.066406 3.707031 9.351562 3.347656 C 8.730469 3.035156 8.367188 2.5625 8.183594 2.261719 Z M 8.929688 4.476562 C 9.539062 3.953125 10.207031 3.816406 10.609375 3.789062 L 8.0625 5.808594 C 8.167969 5.472656 8.40625 4.925781 8.929688 4.476562 Z M 9.605469 5.320312 C 9.042969 5.726562 8.460938 5.839844 8.105469 5.863281 L 10.65625 3.84375 C 10.535156 4.226562 10.253906 4.847656 9.605469 5.320312 Z M 16.53125 2.917969 C 16.527344 2.933594 16.515625 2.941406 16.5 2.941406 C 16.496094 2.941406 16.492188 2.941406 16.488281 2.9375 C 16.484375 2.9375 16.480469 2.933594 16.476562 2.929688 C 16.457031 2.921875 16.453125 2.898438 16.464844 2.882812 C 16.472656 2.867188 16.496094 2.863281 16.511719 2.871094 C 16.527344 2.878906 16.539062 2.902344 16.53125 2.917969 Z M 26.835938 3.835938 C 26.054688 3.960938 25.261719 4.03125 24.476562 4.046875 C 23.316406 4.070312 22.148438 3.96875 21 3.75 C 21.261719 3.703125 21.519531 3.644531 21.773438 3.570312 C 21.957031 3.617188 22.230469 3.671875 22.550781 3.671875 C 22.898438 3.671875 23.300781 3.609375 23.722656 3.425781 C 24.445312 3.113281 24.859375 2.582031 25.039062 2.292969 C 25.039062 2.289062 25.039062 2.289062 25.039062 2.289062 C 25.042969 2.285156 25.042969 2.28125 25.042969 2.28125 C 25.042969 2.277344 25.042969 2.277344 25.042969 2.273438 C 25.042969 2.269531 25.042969 2.265625 25.042969 2.261719 C 25.039062 2.253906 25.039062 2.25 25.035156 2.25 C 25.03125 2.246094 25.03125 2.246094 25.03125 2.246094 C 25.027344 2.242188 25.023438 2.242188 25.019531 2.242188 C 25.019531 2.242188 25.019531 2.238281 25.019531 2.238281 C 24.6875 2.148438 24.023438 2.035156 23.28125 2.292969 C 22.433594 2.582031 21.960938 3.171875 21.75 3.503906 C 21.128906 3.6875 20.484375 3.78125 19.839844 3.777344 C 19.542969 3.777344 19.261719 3.753906 18.992188 3.71875 C 19.351562 3.707031 19.785156 3.628906 20.226562 3.40625 C 20.929688 3.054688 21.3125 2.5 21.476562 2.203125 C 21.476562 2.199219 21.476562 2.199219 21.476562 2.199219 C 21.480469 2.195312 21.480469 2.191406 21.480469 2.1875 C 21.480469 2.1875 21.480469 2.1875 21.480469 2.183594 C 21.480469 2.179688 21.480469 2.175781 21.480469 2.171875 C 21.476562 2.164062 21.472656 2.160156 21.46875 2.160156 C 21.46875 2.15625 21.46875 2.15625 21.464844 2.15625 C 21.464844 2.152344 21.460938 2.152344 21.457031 2.152344 C 21.457031 2.152344 21.457031 2.152344 21.453125 2.152344 C 21.121094 2.078125 20.449219 2.003906 19.71875 2.300781 C 18.902344 2.632812 18.460938 3.234375 18.265625 3.582031 C 17.671875 3.433594 17.179688 3.226562 16.8125 3.039062 C 16.796875 3.027344 16.777344 3.035156 16.765625 3.050781 C 16.757812 3.070312 16.765625 3.089844 16.78125 3.097656 C 17.15625 3.292969 17.664062 3.503906 18.277344 3.65625 C 18.277344 3.65625 18.277344 3.65625 18.28125 3.65625 C 18.445312 3.695312 18.617188 3.730469 18.792969 3.757812 C 18.894531 4.136719 19.171875 4.847656 19.898438 5.375 C 20.535156 5.839844 21.203125 5.929688 21.546875 5.9375 C 21.550781 5.9375 21.558594 5.9375 21.5625 5.9375 C 21.566406 5.933594 21.570312 5.929688 21.574219 5.925781 C 21.578125 5.921875 21.578125 5.917969 21.582031 5.914062 C 21.582031 5.910156 21.582031 5.910156 21.582031 5.910156 C 21.582031 5.90625 21.582031 5.902344 21.582031 5.898438 C 21.582031 5.898438 21.582031 5.894531 21.582031 5.894531 C 21.492188 5.566406 21.257812 4.9375 20.660156 4.421875 C 20.304688 4.117188 19.929688 3.941406 19.59375 3.839844 C 19.675781 3.84375 19.757812 3.847656 19.839844 3.847656 C 19.847656 3.847656 19.855469 3.847656 19.863281 3.847656 C 20.175781 3.847656 20.488281 3.824219 20.800781 3.78125 C 20.800781 3.78125 20.800781 3.78125 20.804688 3.78125 C 21.527344 3.929688 22.257812 4.027344 22.992188 4.078125 C 22.996094 4.082031 23.003906 4.085938 23.011719 4.085938 C 23.523438 4.125 24.019531 4.261719 24.480469 4.488281 C 24.851562 4.671875 25.195312 4.914062 25.496094 5.203125 C 25.5 5.210938 25.511719 5.214844 25.519531 5.214844 C 25.527344 5.214844 25.535156 5.210938 25.542969 5.203125 C 25.558594 5.191406 25.558594 5.167969 25.542969 5.152344 C 25.238281 4.859375 24.890625 4.613281 24.507812 4.425781 C 24.226562 4.285156 23.929688 4.179688 23.621094 4.109375 C 23.804688 4.117188 23.984375 4.121094 24.167969 4.121094 C 24.273438 4.121094 24.375 4.117188 24.480469 4.117188 C 25.269531 4.101562 26.066406 4.03125 26.851562 3.90625 C 26.855469 3.90625 26.859375 3.902344 26.859375 3.902344 C 26.875 3.894531 26.882812 3.882812 26.882812 3.871094 C 26.882812 3.847656 26.859375 3.832031 26.835938 3.835938 Z M 20.195312 3.347656 C 19.476562 3.707031 18.796875 3.675781 18.398438 3.605469 L 21.363281 2.261719 C 21.179688 2.566406 20.8125 3.035156 20.195312 3.347656 Z M 19.746094 2.363281 C 20.390625 2.101562 20.984375 2.136719 21.332031 2.199219 L 18.367188 3.542969 C 18.578125 3.199219 19.003906 2.667969 19.746094 2.363281 Z M 18.890625 3.84375 L 21.441406 5.863281 C 21.085938 5.839844 20.5 5.726562 19.941406 5.320312 C 19.292969 4.847656 19.011719 4.226562 18.890625 3.84375 Z M 21.484375 5.808594 L 18.933594 3.789062 C 19.335938 3.816406 20.007812 3.953125 20.613281 4.476562 C 21.140625 4.925781 21.378906 5.472656 21.484375 5.808594 Z M 23.695312 3.363281 C 22.960938 3.683594 22.28125 3.617188 21.886719 3.523438 L 24.921875 2.34375 C 24.71875 2.636719 24.332031 3.085938 23.695312 3.363281 Z M 23.300781 2.359375 C 23.957031 2.132812 24.550781 2.199219 24.894531 2.28125 L 21.859375 3.460938 C 22.089844 3.128906 22.542969 2.621094 23.300781 2.359375 Z M 23.300781 2.359375 " fill-opacity="1" fill-rule="nonzero"/></g><g clip-path="url(#427b4906b1)"><path fill="#d79034" d="M 15.140625 1.078125 C 14.933594 1.253906 14.835938 1.480469 14.789062 1.679688 C 14.746094 1.484375 14.648438 1.253906 14.4375 1.078125 C 13.976562 0.6875 13.246094 0.820312 12.855469 1.1875 C 12.554688 1.472656 12.429688 1.933594 12.511719 2.484375 C 12.539062 2.660156 12.585938 2.828125 12.742188 3.074219 C 12.914062 3.339844 13.207031 3.699219 13.789062 4.347656 C 14.109375 4.703125 14.429688 5.046875 14.761719 5.402344 C 14.769531 5.410156 14.78125 5.414062 14.789062 5.414062 C 14.800781 5.414062 14.808594 5.410156 14.816406 5.402344 C 15.132812 5.066406 15.460938 4.710938 15.789062 4.347656 C 16.363281 3.707031 16.65625 3.351562 16.828125 3.085938 C 16.992188 2.832031 17.042969 2.660156 17.066406 2.484375 C 17.148438 1.933594 17.027344 1.472656 16.722656 1.1875 C 16.332031 0.820312 15.605469 0.691406 15.140625 1.078125 Z M 14.449219 1.25 C 14.652344 1.417969 14.722656 1.65625 14.746094 1.832031 L 14.753906 1.902344 C 14.753906 1.914062 14.753906 1.925781 14.753906 1.9375 L 14.753906 1.972656 C 14.753906 1.976562 14.75 1.980469 14.753906 1.988281 C 14.753906 2 14.753906 2.015625 14.753906 2.027344 C 14.753906 2.03125 14.753906 2.03125 14.753906 2.035156 C 14.753906 2.035156 14.753906 2.039062 14.753906 2.039062 C 14.753906 2.042969 14.753906 2.042969 14.753906 2.046875 C 14.753906 2.199219 14.699219 2.351562 14.601562 2.46875 C 14.484375 2.605469 14.324219 2.6875 14.148438 2.703125 C 14.007812 2.71875 13.871094 2.675781 13.765625 2.585938 C 13.65625 2.496094 13.59375 2.367188 13.578125 2.230469 C 13.558594 2.003906 13.726562 1.804688 13.953125 1.785156 C 14.132812 1.769531 14.289062 1.898438 14.304688 2.078125 C 14.316406 2.214844 14.214844 2.335938 14.078125 2.347656 C 13.96875 2.359375 13.875 2.277344 13.867188 2.171875 C 13.863281 2.152344 13.847656 2.140625 13.828125 2.140625 C 13.808594 2.140625 13.792969 2.160156 13.796875 2.179688 C 13.808594 2.324219 13.9375 2.429688 14.082031 2.417969 C 14.257812 2.402344 14.390625 2.246094 14.375 2.070312 C 14.355469 1.855469 14.164062 1.695312 13.949219 1.714844 C 13.683594 1.738281 13.488281 1.972656 13.511719 2.234375 C 13.539062 2.542969 13.796875 2.777344 14.101562 2.777344 C 14.121094 2.777344 14.136719 2.777344 14.15625 2.773438 C 14.351562 2.757812 14.527344 2.664062 14.652344 2.515625 C 14.714844 2.441406 14.761719 2.355469 14.789062 2.269531 C 14.816406 2.355469 14.863281 2.441406 14.925781 2.515625 C 15.050781 2.664062 15.230469 2.757812 15.425781 2.773438 C 15.441406 2.777344 15.460938 2.777344 15.476562 2.777344 C 15.78125 2.777344 16.042969 2.542969 16.070312 2.234375 C 16.09375 1.972656 15.894531 1.738281 15.632812 1.714844 C 15.414062 1.695312 15.222656 1.855469 15.203125 2.070312 C 15.1875 2.246094 15.320312 2.402344 15.496094 2.417969 C 15.566406 2.425781 15.636719 2.402344 15.691406 2.355469 C 15.742188 2.3125 15.777344 2.25 15.78125 2.179688 C 15.785156 2.160156 15.769531 2.140625 15.75 2.140625 C 15.730469 2.140625 15.714844 2.152344 15.714844 2.171875 C 15.707031 2.222656 15.683594 2.269531 15.644531 2.304688 C 15.605469 2.335938 15.554688 2.351562 15.503906 2.347656 C 15.363281 2.335938 15.261719 2.214844 15.273438 2.078125 C 15.289062 1.898438 15.445312 1.769531 15.625 1.785156 C 15.851562 1.804688 16.019531 2.003906 16 2.230469 C 15.988281 2.367188 15.921875 2.496094 15.8125 2.585938 C 15.707031 2.675781 15.570312 2.71875 15.429688 2.703125 C 15.253906 2.6875 15.09375 2.605469 14.980469 2.46875 C 14.878906 2.347656 14.824219 2.199219 14.824219 2.042969 C 14.824219 2.042969 14.824219 2.042969 14.824219 2.039062 C 14.824219 2.039062 14.824219 2.035156 14.824219 2.03125 C 14.824219 2.015625 14.824219 2 14.828125 1.988281 C 14.828125 1.980469 14.828125 1.976562 14.824219 1.972656 C 14.824219 1.960938 14.824219 1.953125 14.824219 1.941406 C 14.824219 1.9375 14.824219 1.9375 14.824219 1.933594 C 14.828125 1.925781 14.828125 1.914062 14.828125 1.898438 C 14.828125 1.878906 14.832031 1.855469 14.835938 1.828125 C 14.859375 1.660156 14.925781 1.417969 15.132812 1.25 C 15.5 0.941406 16.082031 1.046875 16.394531 1.339844 C 16.640625 1.570312 16.738281 1.941406 16.671875 2.390625 C 16.648438 2.535156 16.609375 2.675781 16.472656 2.886719 C 16.324219 3.113281 16.082031 3.410156 15.59375 3.949219 C 15.335938 4.238281 15.074219 4.523438 14.789062 4.824219 C 14.511719 4.53125 14.25 4.242188 13.984375 3.949219 C 13.105469 2.96875 12.957031 2.726562 12.910156 2.390625 C 12.84375 1.941406 12.941406 1.570312 13.183594 1.339844 C 13.363281 1.167969 13.636719 1.0625 13.90625 1.0625 C 14.101562 1.0625 14.292969 1.117188 14.449219 1.25 Z M 17 2.472656 C 16.972656 2.644531 16.925781 2.804688 16.769531 3.050781 C 16.597656 3.3125 16.308594 3.664062 15.738281 4.300781 C 15.417969 4.65625 15.097656 5.003906 14.789062 5.328125 C 14.464844 4.984375 14.152344 4.648438 13.84375 4.300781 C 13.261719 3.652344 12.96875 3.300781 12.804688 3.035156 C 12.652344 2.800781 12.605469 2.640625 12.582031 2.472656 C 12.503906 1.945312 12.617188 1.507812 12.90625 1.238281 C 13.117188 1.035156 13.4375 0.910156 13.753906 0.910156 C 13.972656 0.910156 14.1875 0.972656 14.367188 1.109375 C 13.972656 0.890625 13.4375 1.007812 13.136719 1.289062 C 12.875 1.535156 12.769531 1.929688 12.839844 2.402344 C 12.890625 2.75 13.039062 3.003906 13.933594 3.996094 C 14.207031 4.300781 14.476562 4.59375 14.761719 4.898438 C 14.769531 4.902344 14.78125 4.90625 14.789062 4.90625 C 14.800781 4.90625 14.808594 4.902344 14.816406 4.898438 C 15.109375 4.585938 15.378906 4.292969 15.644531 3.996094 C 16.132812 3.453125 16.382812 3.152344 16.53125 2.925781 C 16.671875 2.703125 16.71875 2.554688 16.742188 2.402344 C 16.808594 1.929688 16.703125 1.535156 16.445312 1.289062 C 16.144531 1.007812 15.609375 0.890625 15.214844 1.109375 C 15.652344 0.773438 16.316406 0.898438 16.675781 1.238281 C 16.960938 1.507812 17.074219 1.945312 17 2.472656 Z M 1.847656 2.878906 C 1.480469 2.761719 1.144531 2.796875 0.929688 2.847656 C 0.839844 2.867188 0.765625 2.929688 0.730469 3.015625 C 0.699219 3.101562 0.707031 3.195312 0.757812 3.273438 C 0.769531 3.292969 0.785156 3.3125 0.796875 3.332031 C 0.769531 3.34375 0.742188 3.355469 0.71875 3.367188 C 0.636719 3.410156 0.582031 3.488281 0.570312 3.582031 C 0.558594 3.671875 0.589844 3.761719 0.65625 3.824219 C 0.820312 3.972656 1.09375 4.167969 1.476562 4.246094 C 1.589844 4.269531 1.703125 4.28125 1.808594 4.28125 C 2.136719 4.28125 2.414062 4.183594 2.605469 4.085938 C 2.683594 4.046875 2.738281 3.96875 2.753906 3.882812 C 2.765625 3.867188 2.773438 3.851562 2.78125 3.832031 C 2.816406 3.746094 2.804688 3.648438 2.753906 3.570312 C 2.597656 3.335938 2.308594 3.027344 1.847656 2.878906 Z M 0.816406 3.238281 C 0.777344 3.179688 0.769531 3.105469 0.796875 3.042969 C 0.824219 2.976562 0.875 2.929688 0.945312 2.914062 C 1.050781 2.890625 1.183594 2.871094 1.335938 2.871094 C 1.488281 2.871094 1.652344 2.890625 1.828125 2.945312 C 2.269531 3.085938 2.542969 3.382812 2.695312 3.609375 C 2.71875 3.640625 2.730469 3.679688 2.730469 3.714844 C 2.714844 3.679688 2.695312 3.652344 2.664062 3.625 C 2.453125 3.4375 2.101562 3.207031 1.617188 3.175781 C 1.316406 3.15625 1.054688 3.222656 0.863281 3.304688 C 0.847656 3.28125 0.832031 3.257812 0.816406 3.238281 Z M 2.6875 3.855469 C 2.660156 3.894531 2.617188 3.921875 2.566406 3.933594 C 2.300781 3.992188 1.894531 4.019531 1.476562 3.820312 C 1.214844 3.695312 1.03125 3.515625 0.90625 3.359375 C 1.066406 3.296875 1.273438 3.242188 1.515625 3.242188 C 1.546875 3.242188 1.582031 3.242188 1.613281 3.246094 C 2.078125 3.273438 2.417969 3.496094 2.621094 3.679688 C 2.671875 3.722656 2.695312 3.789062 2.6875 3.855469 Z M 2.574219 4.023438 C 2.328125 4.144531 1.945312 4.269531 1.488281 4.179688 C 1.125 4.105469 0.863281 3.917969 0.703125 3.773438 C 0.652344 3.726562 0.628906 3.660156 0.636719 3.589844 C 0.648438 3.519531 0.6875 3.460938 0.75 3.429688 C 0.777344 3.417969 0.808594 3.402344 0.839844 3.386719 C 0.96875 3.554688 1.164062 3.746094 1.449219 3.882812 C 1.703125 4.003906 1.957031 4.046875 2.175781 4.046875 C 2.328125 4.046875 2.46875 4.027344 2.582031 4 C 2.597656 4 2.609375 3.992188 2.621094 3.988281 C 2.609375 4.003906 2.589844 4.015625 2.574219 4.023438 Z M 29 3.582031 C 28.984375 3.488281 28.933594 3.410156 28.847656 3.367188 C 28.824219 3.355469 28.796875 3.34375 28.769531 3.332031 C 28.785156 3.3125 28.796875 3.292969 28.808594 3.273438 C 28.859375 3.195312 28.871094 3.101562 28.835938 3.015625 C 28.800781 2.929688 28.730469 2.867188 28.636719 2.847656 C 28.421875 2.796875 28.085938 2.761719 27.71875 2.878906 C 27.257812 3.027344 26.972656 3.335938 26.8125 3.570312 C 26.761719 3.648438 26.75 3.746094 26.785156 3.832031 C 26.792969 3.851562 26.800781 3.867188 26.8125 3.882812 C 26.828125 3.96875 26.882812 4.046875 26.964844 4.085938 C 27.15625 4.183594 27.433594 4.28125 27.761719 4.28125 C 27.867188 4.28125 27.976562 4.269531 28.09375 4.246094 C 28.472656 4.167969 28.746094 3.972656 28.910156 3.824219 C 28.980469 3.761719 29.011719 3.671875 29 3.582031 Z M 26.871094 3.609375 C 27.023438 3.382812 27.296875 3.085938 27.738281 2.945312 C 27.914062 2.890625 28.082031 2.871094 28.230469 2.871094 C 28.382812 2.871094 28.515625 2.890625 28.621094 2.914062 C 28.691406 2.929688 28.746094 2.976562 28.769531 3.042969 C 28.796875 3.105469 28.789062 3.179688 28.75 3.238281 C 28.738281 3.257812 28.722656 3.28125 28.703125 3.304688 C 28.511719 3.222656 28.253906 3.15625 27.949219 3.175781 C 27.464844 3.207031 27.113281 3.4375 26.902344 3.625 C 26.875 3.652344 26.851562 3.679688 26.835938 3.714844 C 26.839844 3.679688 26.847656 3.640625 26.871094 3.609375 Z M 26.878906 3.855469 C 26.871094 3.789062 26.898438 3.722656 26.949219 3.679688 C 27.152344 3.496094 27.488281 3.273438 27.953125 3.246094 C 27.988281 3.242188 28.019531 3.242188 28.054688 3.242188 C 28.292969 3.242188 28.5 3.296875 28.660156 3.359375 C 28.535156 3.515625 28.351562 3.695312 28.089844 3.820312 C 27.671875 4.019531 27.265625 3.992188 27 3.933594 C 26.949219 3.921875 26.910156 3.894531 26.878906 3.855469 Z M 28.863281 3.773438 C 28.707031 3.917969 28.441406 4.105469 28.078125 4.179688 C 27.625 4.269531 27.238281 4.144531 26.996094 4.023438 C 26.976562 4.015625 26.960938 4.003906 26.945312 3.988281 C 26.957031 3.992188 26.972656 4 26.984375 4 C 27.097656 4.027344 27.238281 4.046875 27.390625 4.046875 C 27.613281 4.046875 27.863281 4.003906 28.121094 3.882812 C 28.402344 3.746094 28.597656 3.554688 28.726562 3.386719 C 28.757812 3.402344 28.789062 3.417969 28.816406 3.429688 C 28.878906 3.460938 28.921875 3.519531 28.929688 3.589844 C 28.9375 3.660156 28.914062 3.726562 28.863281 3.773438 Z M 3.664062 5.003906 C 3.421875 5.003906 3.222656 5.203125 3.222656 5.445312 C 3.222656 5.6875 3.421875 5.882812 3.664062 5.882812 C 3.910156 5.882812 4.105469 5.6875 4.105469 5.445312 C 4.105469 5.203125 3.910156 5.003906 3.664062 5.003906 Z M 3.664062 5.816406 C 3.460938 5.816406 3.292969 5.648438 3.292969 5.445312 C 3.292969 5.238281 3.460938 5.074219 3.664062 5.074219 C 3.871094 5.074219 4.035156 5.238281 4.035156 5.445312 C 4.035156 5.648438 3.871094 5.816406 3.664062 5.816406 Z M 25.832031 5.003906 C 25.585938 5.003906 25.390625 5.203125 25.390625 5.445312 C 25.390625 5.6875 25.585938 5.882812 25.832031 5.882812 C 26.074219 5.882812 26.273438 5.6875 26.273438 5.445312 C 26.273438 5.203125 26.074219 5.003906 25.832031 5.003906 Z M 25.832031 5.816406 C 25.625 5.816406 25.460938 5.648438 25.460938 5.445312 C 25.460938 5.238281 25.625 5.074219 25.832031 5.074219 C 26.035156 5.074219 26.203125 5.238281 26.203125 5.445312 C 26.203125 5.648438 26.035156 5.816406 25.832031 5.816406 Z M 25.832031 5.816406 " fill-opacity="1" fill-rule="nonzero"/></g></g></g></g><g clip-path="url(#903ca2a372)"><path fill="#000000" d="M 18.808594 58.78125 C 19.578125 59.148438 20.246094 59.4375 20.894531 59.773438 C 21.703125 60.199219 22.21875 60.84375 22.273438 61.804688 C 22.28125 61.921875 22.339844 62.039062 22.367188 62.15625 C 22.375 62.195312 22.363281 62.238281 22.359375 62.292969 C 21.90625 63.328125 21 63.628906 19.984375 63.710938 C 18.285156 63.847656 16.667969 63.472656 15.109375 62.828125 C 14.394531 62.535156 13.703125 62.175781 13.015625 61.824219 C 11.917969 61.261719 11.140625 60.402344 10.695312 59.175781 C 10.722656 59.058594 10.765625 58.902344 10.792969 58.746094 C 10.945312 57.921875 11.527344 57.574219 12.269531 57.523438 C 13.359375 57.449219 14.464844 57.355469 15.539062 57.703125 C 15.644531 57.738281 15.773438 57.710938 15.929688 57.710938 C 16.472656 56.90625 16.875 56.003906 17.246094 55.101562 C 18.195312 52.792969 19.085938 50.460938 20.011719 48.144531 C 20.699219 46.421875 21.085938 44.625 21.351562 42.800781 C 21.40625 42.433594 21.414062 42.0625 21.417969 41.691406 C 21.425781 40.378906 21.464844 39.0625 21.414062 37.75 C 21.371094 36.730469 21.226562 35.710938 21.097656 34.695312 C 20.90625 33.191406 20.679688 31.695312 20.644531 30.175781 C 20.636719 29.808594 20.582031 29.441406 20.554688 29.078125 C 20.539062 28.875 20.511719 28.667969 20.527344 28.464844 C 20.566406 27.851562 20.644531 27.242188 20.664062 26.628906 C 20.703125 25.4375 20.957031 24.277344 21.136719 23.105469 C 21.359375 21.597656 21.734375 20.128906 22.238281 18.703125 C 22.785156 17.164062 23.421875 15.652344 24.039062 14.136719 C 24.457031 13.105469 25.066406 12.183594 25.796875 11.234375 C 26.523438 10.875 27.351562 10.890625 28.214844 11.015625 C 30.417969 11.332031 32.425781 12.230469 34.464844 13.039062 C 35.414062 13.414062 36.324219 13.859375 37.15625 14.46875 C 37.839844 14.96875 37.851562 14.953125 38.222656 15.726562 C 39.9375 15.074219 41.648438 14.417969 43.441406 14.035156 C 44.3125 13.847656 45.203125 13.75 46.085938 13.621094 C 46.285156 13.589844 46.507812 13.632812 46.691406 13.558594 C 47.5 13.230469 48.023438 13.699219 48.484375 14.230469 C 48.800781 14.597656 49.070312 15.023438 49.285156 15.464844 C 49.734375 16.382812 50.191406 17.300781 50.539062 18.261719 C 51.222656 20.144531 52 22.003906 52.382812 23.984375 C 52.660156 25.425781 52.917969 26.875 53.082031 28.34375 C 53.199219 29.367188 53.242188 30.382812 53.257812 31.410156 C 53.28125 33.105469 52.988281 34.75 52.554688 36.378906 C 52.199219 37.722656 51.832031 39.0625 51.492188 40.410156 C 51.394531 40.804688 51.320312 41.214844 51.316406 41.617188 C 51.296875 42.886719 51.355469 44.148438 51.496094 45.417969 C 51.730469 47.578125 52.132812 49.703125 52.542969 51.828125 C 52.660156 52.429688 52.855469 53.015625 53.023438 53.605469 C 53.648438 55.8125 54.347656 57.996094 55.453125 60.019531 C 55.550781 60.199219 55.640625 60.382812 55.746094 60.558594 C 55.785156 60.625 55.863281 60.671875 55.898438 60.703125 C 56.941406 60.703125 57.957031 60.699219 58.972656 60.707031 C 59.378906 60.710938 59.785156 60.71875 60.164062 60.914062 C 60.671875 61.171875 60.949219 61.683594 60.820312 62.230469 C 60.601562 63.164062 60.050781 63.851562 59.222656 64.304688 C 57.566406 65.203125 55.835938 65.886719 53.972656 66.222656 C 53.367188 66.332031 52.777344 66.433594 52.160156 66.433594 C 51.617188 66.433594 51.121094 66.257812 50.621094 66.097656 C 50.46875 66.046875 50.3125 65.96875 50.191406 65.867188 C 49.15625 65.035156 48.972656 64.085938 50.015625 63.203125 C 50.449219 62.839844 50.949219 62.542969 51.445312 62.265625 C 51.898438 62.007812 52.394531 61.816406 52.929688 61.566406 C 53.023438 60.8125 53.019531 60.027344 52.917969 59.265625 C 52.765625 58.09375 52.578125 56.921875 52.269531 55.769531 C 51.964844 54.628906 51.75 53.457031 51.472656 52.304688 C 51.109375 50.785156 50.527344 49.34375 49.914062 47.914062 C 49.414062 46.75 48.890625 45.589844 48.347656 44.445312 C 47.808594 43.316406 46.992188 42.414062 46.042969 41.609375 C 43.527344 39.480469 41.410156 37.015625 39.773438 34.128906 C 38.367188 31.644531 37.503906 28.96875 36.835938 26.214844 C 36.730469 25.78125 36.625 25.34375 36.519531 24.898438 C 36.269531 24.921875 36.230469 25.125 36.175781 25.304688 C 35.058594 28.796875 33.113281 31.808594 30.875 34.652344 C 29.90625 35.878906 28.816406 36.980469 27.699219 38.0625 C 27.113281 38.632812 26.550781 39.230469 25.949219 39.785156 C 24.632812 41 23.683594 42.46875 23.011719 44.121094 C 22.503906 45.367188 22.066406 46.648438 21.601562 47.917969 C 21.085938 49.339844 20.554688 50.757812 20.066406 52.195312 C 19.632812 53.46875 19.199219 54.742188 18.949219 56.082031 C 18.78125 56.984375 18.773438 57.871094 18.804688 58.785156 Z M 12.894531 60.980469 C 12.910156 61.015625 12.917969 61.054688 12.941406 61.082031 C 12.957031 61.101562 12.992188 61.097656 13.019531 61.105469 C 12.972656 61.070312 12.925781 61.035156 12.875 61 C 12.859375 60.96875 12.847656 60.9375 12.824219 60.914062 C 12.8125 60.898438 12.785156 60.898438 12.761719 60.890625 C 12.808594 60.917969 12.851562 60.949219 12.894531 60.980469 Z M 14.839844 61.984375 C 14.753906 61.855469 14.660156 61.742188 14.410156 61.898438 C 14.601562 61.925781 14.730469 61.945312 14.859375 61.964844 C 14.929688 62.230469 15.15625 62.183594 15.347656 62.214844 C 15.511719 62.53125 15.816406 62.441406 16.078125 62.460938 C 16.65625 62.917969 17.332031 62.976562 18.03125 62.953125 C 18.347656 63.304688 18.722656 63.125 19.085938 63.019531 C 18.730469 63.003906 18.371094 62.988281 18.015625 62.972656 C 17.960938 62.917969 17.914062 62.824219 17.851562 62.8125 C 17.257812 62.695312 16.660156 62.589844 16.0625 62.476562 C 15.894531 62.164062 15.589844 62.265625 15.328125 62.234375 C 15.246094 61.992188 15.027344 62.023438 14.84375 61.984375 Z M 13.609375 61.496094 C 13.582031 61.425781 13.613281 61.269531 13.457031 61.390625 C 13.515625 61.417969 13.574219 61.449219 13.632812 61.476562 C 13.722656 61.597656 13.808594 61.71875 14.050781 61.5625 C 13.863281 61.535156 13.738281 61.515625 13.609375 61.496094 Z M 20.234375 49.65625 C 19.898438 49.996094 19.726562 50.40625 19.746094 50.890625 C 19.632812 51.050781 19.492188 51.199219 19.417969 51.375 C 18.703125 53.070312 18.019531 54.777344 17.289062 56.464844 C 16.996094 57.136719 16.628906 57.78125 16.246094 58.40625 C 16.058594 58.710938 15.769531 58.957031 15.503906 59.203125 C 15.449219 59.253906 15.285156 59.207031 15.191406 59.164062 C 15.152344 59.144531 15.128906 59.015625 15.148438 58.949219 C 15.214844 58.683594 15.5625 58.539062 15.472656 58.152344 C 14.484375 57.964844 13.46875 58.035156 12.464844 58.089844 C 12.195312 58.105469 11.933594 58.28125 11.679688 58.40625 C 11.460938 58.519531 11.398438 58.867188 11.578125 59.042969 C 11.925781 59.382812 12.273438 59.738281 12.671875 60.007812 C 14.207031 61.046875 15.90625 61.710938 17.683594 62.1875 C 18.554688 62.417969 19.4375 62.546875 20.335938 62.496094 C 20.617188 62.480469 20.90625 62.4375 21.171875 62.34375 C 21.589844 62.195312 21.777344 61.730469 21.578125 61.332031 C 21.457031 61.082031 21.304688 60.816406 21.09375 60.636719 C 20.46875 60.109375 19.769531 59.707031 18.949219 59.519531 C 18.832031 59.742188 18.730469 59.941406 18.589844 60.21875 C 18.460938 60.015625 18.316406 59.890625 18.304688 59.753906 C 18.191406 58.566406 18.160156 57.378906 18.339844 56.195312 C 18.578125 54.652344 19.066406 53.179688 19.558594 51.707031 C 19.644531 51.4375 19.675781 51.152344 19.730469 50.875 C 20.085938 50.542969 20.246094 50.128906 20.21875 49.640625 C 20.550781 49.476562 20.445312 49.164062 20.457031 48.894531 C 20.847656 48.578125 20.929688 48.136719 20.953125 47.671875 C 21.234375 47.488281 21.160156 47.1875 21.195312 46.925781 C 21.25 46.867188 21.328125 46.824219 21.355469 46.753906 C 21.617188 46.074219 21.867188 45.390625 22.125 44.707031 C 22.691406 43.222656 23.375 41.804688 24.394531 40.570312 C 24.515625 40.425781 24.554688 40.210938 24.628906 40.03125 C 24.695312 40 24.871094 40.039062 24.730469 39.871094 C 24.695312 39.925781 24.664062 39.976562 24.628906 40.027344 C 24.304688 40.03125 23.972656 40.074219 23.652344 40.03125 C 22.90625 39.925781 22.375 39.523438 22.167969 38.765625 C 22.140625 38.664062 22.207031 38.539062 22.25 38.332031 C 22.421875 38.546875 22.535156 38.703125 22.664062 38.84375 C 23.144531 39.359375 23.683594 39.683594 24.394531 39.3125 C 24.730469 39.140625 25.007812 39.386719 25.320312 39.410156 C 26.148438 38.605469 26.964844 37.800781 27.792969 37.011719 C 28.292969 36.53125 28.851562 36.105469 29.3125 35.589844 C 30.101562 34.710938 30.882812 33.8125 31.582031 32.855469 C 32.984375 30.9375 34.246094 28.925781 35.128906 26.699219 C 35.367188 26.089844 35.589844 25.472656 35.808594 24.855469 C 35.828125 24.796875 35.777344 24.710938 35.757812 24.632812 C 34.6875 25.289062 33.582031 25.582031 32.296875 25.351562 C 30.820312 25.085938 29.316406 24.988281 27.820312 24.824219 C 27.664062 24.808594 27.5 24.84375 27.339844 24.867188 C 25.761719 25.078125 24.183594 25.152344 22.609375 24.808594 C 22.265625 24.734375 21.910156 24.714844 21.535156 24.664062 C 21.445312 25.339844 21.324219 25.984375 21.273438 26.632812 C 21.109375 28.808594 21.277344 30.980469 21.546875 33.140625 C 21.753906 34.808594 22.023438 36.464844 21.964844 38.15625 C 21.9375 38.851562 21.941406 39.554688 21.976562 40.25 C 22.078125 42.195312 21.800781 44.089844 21.335938 45.96875 C 21.257812 46.285156 21.253906 46.617188 21.21875 46.941406 C 20.867188 47.101562 21.003906 47.421875 20.976562 47.6875 C 20.613281 48.011719 20.488281 48.4375 20.480469 48.910156 C 20.191406 49.089844 20.25 49.386719 20.238281 49.65625 Z M 53.992188 65.6875 C 53.230469 65.703125 52.46875 65.71875 51.707031 65.734375 C 52.085938 65.871094 52.464844 65.902344 52.847656 65.898438 C 53.164062 65.898438 53.484375 65.859375 53.804688 65.820312 C 53.867188 65.8125 53.914062 65.71875 53.972656 65.664062 C 54.25 65.652344 54.53125 65.636719 54.808594 65.621094 C 54.511719 65.457031 54.21875 65.371094 53.988281 65.6875 Z M 57.070312 62.851562 C 56.542969 62.570312 56.171875 62.148438 55.871094 61.652344 C 54.824219 59.929688 53.933594 58.128906 53.347656 56.199219 C 52.566406 53.617188 51.785156 51.035156 51.445312 48.339844 C 51.289062 47.125 51.058594 45.917969 51.015625 44.6875 C 50.996094 44.195312 51.015625 43.707031 50.867188 43.222656 C 50.789062 42.960938 50.777344 42.636719 50.847656 42.371094 C 51.011719 41.765625 51.019531 41.160156 51.003906 40.542969 C 50.996094 40.222656 51.078125 39.894531 51.164062 39.578125 C 51.480469 38.394531 51.8125 37.214844 52.140625 36.03125 C 52.414062 35.042969 52.632812 34.035156 52.6875 33.015625 C 52.820312 30.550781 52.664062 28.097656 52.136719 25.679688 C 52.09375 25.480469 52.039062 25.28125 52.019531 25.078125 C 51.902344 23.972656 51.625 22.90625 51.25 21.859375 C 50.851562 20.742188 50.457031 19.625 50.0625 18.503906 C 49.597656 17.183594 49.066406 15.898438 48.261719 14.746094 C 48.128906 14.550781 47.945312 14.394531 47.855469 14.296875 C 45.875 14.957031 43.988281 15.605469 42.089844 16.207031 C 40.160156 16.824219 38.148438 17.089844 36.144531 17.519531 C 36.097656 19.476562 36.457031 21.328125 36.75 23.1875 C 36.761719 23.25 36.855469 23.300781 36.90625 23.355469 C 37.945312 23.136719 38.214844 23.15625 39.148438 23.523438 C 39.566406 23.6875 39.988281 23.839844 40.390625 24.035156 C 41.859375 24.761719 43.402344 25.273438 45 25.605469 C 46.710938 25.960938 48.429688 26.300781 50.195312 26.210938 C 50.355469 26.199219 50.527344 26.1875 50.683594 26.21875 C 50.996094 26.285156 51.320312 26.347656 51.617188 26.46875 C 52.070312 26.660156 52.234375 27.195312 51.933594 27.597656 C 51.695312 27.921875 51.398438 28.234375 51.058594 28.4375 C 50.539062 28.75 49.972656 28.988281 49.40625 29.210938 C 48.335938 29.636719 47.195312 29.730469 46.070312 29.910156 C 45.753906 29.957031 45.414062 29.945312 45.097656 29.886719 C 44.175781 29.722656 43.253906 29.570312 42.378906 29.21875 C 40.609375 28.503906 39.054688 27.488281 37.875 25.953125 C 37.765625 25.808594 37.613281 25.703125 37.332031 25.4375 C 37.390625 25.871094 37.402344 26.113281 37.460938 26.34375 C 37.589844 26.863281 37.722656 27.378906 37.890625 27.882812 C 38.289062 29.089844 38.644531 30.3125 39.125 31.484375 C 40.683594 35.28125 43.214844 38.359375 46.234375 41.0625 C 47.429688 42.136719 48.480469 43.339844 49.148438 44.820312 C 49.785156 46.238281 50.34375 47.695312 50.953125 49.125 C 51.433594 50.257812 51.769531 51.4375 52.050781 52.632812 C 52.355469 53.90625 52.660156 55.179688 52.929688 56.460938 C 53.074219 57.136719 53.214844 57.828125 53.25 58.519531 C 53.308594 59.75 53.292969 60.984375 53.292969 62.214844 C 53.292969 62.496094 53.242188 62.789062 53.171875 63.0625 C 53.136719 63.199219 52.996094 63.304688 52.867188 63.472656 C 52.667969 63.078125 52.753906 62.765625 52.871094 62.457031 C 52.933594 62.292969 52.957031 62.144531 52.734375 62.0625 C 52.277344 62.308594 51.800781 62.53125 51.355469 62.8125 C 50.945312 63.070312 50.542969 63.363281 50.1875 63.695312 C 49.65625 64.191406 49.730469 64.714844 50.363281 65.089844 C 50.566406 65.210938 50.808594 65.332031 51.039062 65.347656 C 51.605469 65.386719 52.191406 65.445312 52.746094 65.351562 C 53.90625 65.160156 55.0625 64.917969 56.199219 64.617188 C 57.222656 64.347656 58.210938 63.960938 59.136719 63.425781 C 59.6875 63.109375 60.097656 62.675781 60.296875 62.058594 C 60.390625 61.769531 60.261719 61.453125 59.992188 61.335938 C 59.878906 61.285156 59.761719 61.253906 59.644531 61.214844 C 58.53125 60.84375 57.402344 61.042969 56.230469 61.078125 C 56.246094 61.847656 56.941406 62.191406 57.070312 62.855469 Z M 35.972656 22.183594 C 35.859375 21.039062 35.746094 19.941406 35.644531 18.84375 C 35.621094 18.558594 35.628906 18.269531 35.640625 17.980469 C 35.660156 17.316406 35.902344 16.792969 36.550781 16.515625 C 36.8125 16.40625 37.054688 16.253906 37.308594 16.121094 C 37.472656 16.035156 37.523438 15.886719 37.515625 15.714844 C 37.507812 15.523438 37.390625 15.410156 37.222656 15.375 C 36.46875 15.214844 35.71875 15.042969 34.957031 14.925781 C 33.023438 14.621094 31.148438 14.113281 29.34375 13.351562 C 28.199219 12.867188 27.070312 12.34375 25.902344 11.820312 C 25.523438 12.535156 25.097656 13.195312 24.804688 13.90625 C 23.613281 16.820312 22.359375 19.710938 21.808594 22.839844 C 21.777344 23.027344 21.667969 23.222656 21.867188 23.382812 C 22.019531 23.320312 22.175781 23.265625 22.324219 23.203125 C 23.347656 22.769531 24.445312 22.605469 25.53125 22.566406 C 26.492188 22.527344 27.46875 22.71875 28.429688 22.859375 C 29.5625 23.027344 30.691406 23.035156 31.820312 22.84375 C 33.179688 22.617188 34.535156 22.414062 35.972656 22.183594 Z M 45.902344 29.371094 C 47.511719 29.222656 49.089844 28.898438 50.5625 28.164062 C 50.710938 28.09375 50.851562 28.007812 50.972656 27.902344 C 51.21875 27.695312 51.585938 27.5 51.496094 27.140625 C 51.382812 26.691406 50.933594 26.757812 50.578125 26.730469 C 50.496094 26.726562 50.414062 26.726562 50.332031 26.730469 C 48.742188 26.789062 47.183594 26.53125 45.632812 26.230469 C 43.960938 25.90625 42.316406 25.480469 40.742188 24.796875 C 39.964844 24.457031 39.15625 24.179688 38.351562 23.898438 C 38.128906 23.820312 37.875 23.789062 37.640625 23.804688 C 37.503906 23.8125 37.347656 23.929688 37.246094 24.039062 C 37.113281 24.179688 37.195312 24.347656 37.285156 24.488281 C 38.164062 25.800781 39.320312 26.808594 40.621094 27.675781 C 42.222656 28.738281 43.996094 29.226562 45.902344 29.371094 Z M 21.871094 23.980469 C 22.484375 24.386719 22.988281 24.496094 23.527344 24.492188 C 24.628906 24.480469 25.730469 24.523438 26.828125 24.46875 C 28.628906 24.378906 30.40625 24.59375 32.175781 24.859375 C 32.96875 24.976562 33.71875 24.886719 34.460938 24.660156 C 35.058594 24.476562 35.546875 24.105469 35.835938 23.515625 C 36.007812 23.15625 35.824219 22.832031 35.441406 22.824219 C 35.195312 22.820312 34.941406 22.796875 34.707031 22.851562 C 33.558594 23.117188 32.394531 23.296875 31.21875 23.394531 C 30.652344 23.441406 30.082031 23.53125 29.519531 23.492188 C 28.632812 23.429688 27.746094 23.289062 26.863281 23.152344 C 25.164062 22.890625 23.5625 23.191406 21.871094 23.980469 Z M 36.410156 14.589844 C 36.132812 14.414062 36 14.320312 35.859375 14.242188 C 33.804688 13.132812 31.585938 12.445312 29.367188 11.785156 C 28.527344 11.53125 27.632812 11.3125 26.621094 11.53125 C 28.523438 12.570312 30.480469 13.246094 32.464844 13.816406 C 33.699219 14.171875 34.941406 14.554688 36.410156 14.589844 Z M 46.398438 14.226562 C 45.140625 14.046875 44.101562 14.449219 43.050781 14.691406 C 41.296875 15.097656 39.589844 15.675781 37.875 16.503906 C 38.570312 16.710938 39.109375 16.40625 39.640625 16.285156 C 41.898438 15.78125 44.101562 15.089844 46.398438 14.226562 Z M 55.449219 65.265625 C 55.414062 65.277344 55.382812 65.289062 55.351562 65.300781 C 55.371094 65.320312 55.394531 65.355469 55.40625 65.355469 C 55.457031 65.339844 55.5 65.3125 55.546875 65.292969 C 55.511719 65.285156 55.480469 65.273438 55.449219 65.265625 Z M 55.449219 65.265625 " fill-opacity="1" fill-rule="nonzero"/></g><g clip-path="url(#0df4275bc3)"><path fill="#000000" d="M 37.539062 9.042969 C 37.546875 8.375 37.546875 7.886719 37.933594 7.5 C 38.195312 7.242188 38.542969 7.214844 38.773438 7.511719 C 38.917969 7.691406 39.035156 7.925781 39.074219 8.152344 C 39.152344 8.644531 39.023438 9.121094 38.871094 9.589844 C 38.757812 9.9375 38.683594 10.296875 38.566406 10.644531 C 38.535156 10.738281 38.390625 10.886719 38.339844 10.871094 C 38.203125 10.835938 38.035156 10.746094 37.976562 10.628906 C 37.703125 10.078125 37.519531 9.496094 37.539062 9.042969 Z M 38.261719 9.660156 C 38.359375 9.113281 38.597656 8.722656 38.527344 8.253906 C 38.511719 8.136719 38.363281 7.992188 38.296875 8.050781 C 38.238281 8.101562 38.152344 8.152344 38.140625 8.214844 C 38.023438 8.710938 38.035156 8.773438 38.261719 9.660156 Z M 38.261719 9.660156 " fill-opacity="1" fill-rule="nonzero"/></g><path fill="#000000" d="M 36.828125 9.753906 C 36.636719 10.523438 36.457031 11.265625 36.265625 12.003906 C 36.25 12.058594 36.148438 12.117188 36.082031 12.125 C 36.023438 12.128906 35.917969 12.074219 35.898438 12.019531 C 35.613281 11.164062 35.449219 10.300781 35.847656 9.433594 C 35.914062 9.292969 36.027344 9.171875 36.132812 9.050781 C 36.230469 8.941406 36.496094 8.96875 36.558594 9.097656 C 36.660156 9.3125 36.742188 9.535156 36.828125 9.753906 Z M 36.828125 9.753906 " fill-opacity="1" fill-rule="nonzero"/><path fill="#000000" d="M 39.320312 14.027344 C 39.246094 14.125 39.191406 14.234375 39.105469 14.296875 C 39.0625 14.332031 38.941406 14.308594 38.882812 14.269531 C 38.21875 13.8125 37.835938 13.15625 37.617188 12.394531 C 37.558594 12.179688 37.660156 11.996094 37.824219 11.855469 C 37.949219 11.746094 38.097656 11.667969 38.257812 11.777344 C 38.390625 11.867188 38.535156 11.960938 38.628906 12.085938 C 39.050781 12.65625 39.1875 13.332031 39.320312 14.027344 Z M 38.320312 12.671875 C 38.308594 12.636719 38.300781 12.597656 38.277344 12.566406 C 38.265625 12.546875 38.238281 12.542969 38.214844 12.535156 C 38.257812 12.574219 38.300781 12.613281 38.339844 12.652344 C 38.359375 12.769531 38.378906 12.890625 38.410156 13.078125 C 38.550781 12.835938 38.453125 12.746094 38.320312 12.671875 Z M 38.320312 12.671875 " fill-opacity="1" fill-rule="nonzero"/><path fill="#000000" d="M 44.570312 38.90625 C 44.6875 38.90625 44.785156 38.871094 44.828125 38.910156 C 45.730469 39.667969 46.808594 39.609375 47.855469 39.5 C 48.808594 39.402344 49.636719 38.960938 50.304688 38.238281 C 50.578125 37.941406 50.890625 37.671875 51.195312 37.402344 C 51.226562 37.375 51.351562 37.40625 51.402344 37.453125 C 51.449219 37.496094 51.5 37.613281 51.472656 37.660156 C 51.105469 38.316406 50.570312 38.828125 49.960938 39.238281 C 48.863281 39.972656 47.632812 40.203125 46.34375 40.011719 C 45.742188 39.921875 45.164062 39.683594 44.722656 39.21875 C 44.652344 39.144531 44.628906 39.027344 44.570312 38.90625 Z M 44.570312 38.90625 " fill-opacity="1" fill-rule="nonzero"/><path fill="#000000" d="M 37.617188 22.707031 C 37.542969 22.683594 37.460938 22.667969 37.398438 22.625 C 37.074219 22.402344 36.992188 21.957031 37.21875 21.683594 C 37.429688 21.429688 37.9375 21.414062 38.191406 21.660156 C 38.246094 21.714844 38.289062 21.792969 38.304688 21.867188 C 38.367188 22.234375 37.988281 22.691406 37.617188 22.707031 Z M 37.796875 21.964844 C 37.773438 21.9375 37.75 21.910156 37.726562 21.886719 C 37.695312 21.945312 37.660156 22 37.644531 22.0625 C 37.636719 22.082031 37.6875 22.113281 37.710938 22.140625 C 37.738281 22.082031 37.769531 22.023438 37.796875 21.964844 Z M 37.796875 21.964844 " fill-opacity="1" fill-rule="nonzero"/><path fill="#000000" d="M 37.375 19.289062 C 37.683594 19.304688 37.855469 19.511719 37.84375 19.847656 C 37.832031 20.121094 37.660156 20.328125 37.429688 20.335938 C 37.160156 20.347656 36.867188 20.007812 36.871094 19.683594 C 36.871094 19.476562 37.121094 19.277344 37.375 19.289062 Z M 37.375 19.289062 " fill-opacity="1" fill-rule="nonzero"/></svg>