<svg xmlns="http://www.w3.org/2000/svg" xmlns:xlink="http://www.w3.org/1999/xlink" width="96" zoomAndPan="magnify" viewBox="0 0 72 72" height="96" preserveAspectRatio="xMidYMid meet" version="1.0"><defs><filter x="0%" y="0%" width="100%" height="100%" id="b86319bc56"><feColorMatrix values="0 0 0 0 1 0 0 0 0 1 0 0 0 0 1 0 0 0 1 0" color-interpolation-filters="sRGB"/></filter><mask id="618a60ec10"><g filter="url(#b86319bc56)"><rect x="-7.2" width="86.4" fill="#000000" y="-7.2" height="86.4" fill-opacity="0.21"/></g></mask><clipPath id="a3e3fd70c2"><path d="M 2 2 L 27 2 L 27 5.9375 L 2 5.9375 Z M 2 2 " clip-rule="nonzero"/></clipPath><clipPath id="df960d16c7"><path d="M 0.53125 0.6875 L 29.03125 0.6875 L 29.03125 5.9375 L 0.53125 5.9375 Z M 0.53125 0.6875 " clip-rule="nonzero"/></clipPath><clipPath id="bce42deabb"><rect x="0" width="30" y="0" height="7"/></clipPath><mask id="dcf373fb5a"><g filter="url(#b86319bc56)"><rect x="-7.2" width="86.4" fill="#000000" y="-7.2" height="86.4" fill-opacity="0.83"/></g></mask><clipPath id="a61392e982"><path d="M 0.558594 1.046875 L 41 1.046875 L 41 57.296875 L 0.558594 57.296875 Z M 0.558594 1.046875 " clip-rule="nonzero"/></clipPath><clipPath id="c814e0e524"><rect x="0" width="42" y="0" height="58"/></clipPath></defs><g mask="url(#618a60ec10)"><g transform="matrix(1, 0, 0, 1, 23, 37)"><g clip-path="url(#bce42deabb)"><g clip-path="url(#a3e3fd70c2)"><path fill="#375726" d="M 12.757812 3.023438 C 12.386719 3.21875 11.886719 3.429688 11.277344 3.582031 C 11.082031 3.234375 10.640625 2.632812 9.824219 2.300781 C 9.09375 2.003906 8.425781 2.078125 8.089844 2.152344 C 8.085938 2.152344 8.082031 2.152344 8.078125 2.15625 C 8.078125 2.15625 8.078125 2.15625 8.074219 2.160156 C 8.070312 2.160156 8.070312 2.164062 8.066406 2.171875 C 8.0625 2.175781 8.0625 2.179688 8.0625 2.183594 C 8.0625 2.1875 8.0625 2.1875 8.0625 2.1875 C 8.066406 2.191406 8.066406 2.195312 8.066406 2.199219 C 8.066406 2.199219 8.066406 2.199219 8.066406 2.203125 C 8.234375 2.5 8.613281 3.054688 9.320312 3.40625 C 9.761719 3.632812 10.191406 3.707031 10.554688 3.71875 C 10.285156 3.753906 10 3.777344 9.703125 3.777344 C 9.058594 3.78125 8.417969 3.6875 7.796875 3.503906 C 7.585938 3.171875 7.109375 2.582031 6.265625 2.292969 C 5.519531 2.035156 4.855469 2.148438 4.527344 2.238281 C 4.523438 2.238281 4.523438 2.242188 4.523438 2.242188 C 4.519531 2.242188 4.519531 2.242188 4.515625 2.246094 C 4.511719 2.246094 4.511719 2.246094 4.511719 2.25 C 4.507812 2.25 4.503906 2.253906 4.503906 2.261719 C 4.5 2.265625 4.5 2.269531 4.5 2.273438 C 4.5 2.277344 4.5 2.277344 4.5 2.28125 C 4.503906 2.28125 4.503906 2.285156 4.503906 2.289062 C 4.503906 2.289062 4.503906 2.289062 4.503906 2.292969 C 4.6875 2.582031 5.097656 3.113281 5.820312 3.425781 C 6.242188 3.609375 6.648438 3.671875 6.992188 3.671875 C 7.316406 3.671875 7.585938 3.617188 7.769531 3.570312 C 8.027344 3.644531 8.292969 3.707031 8.554688 3.75 C 7.414062 3.96875 6.25 4.070312 5.089844 4.046875 C 4.304688 4.03125 3.511719 3.960938 2.730469 3.835938 C 2.707031 3.832031 2.6875 3.847656 2.6875 3.871094 C 2.6875 3.882812 2.695312 3.898438 2.707031 3.902344 C 2.710938 3.902344 2.714844 3.90625 2.714844 3.90625 C 3.5 4.03125 4.300781 4.101562 5.089844 4.117188 C 5.191406 4.117188 5.296875 4.121094 5.398438 4.121094 C 5.554688 4.121094 5.707031 4.117188 5.859375 4.113281 C 5.558594 4.183594 5.265625 4.289062 4.984375 4.425781 C 4.605469 4.613281 4.257812 4.859375 3.953125 5.152344 C 3.9375 5.167969 3.9375 5.191406 3.953125 5.203125 C 3.957031 5.210938 3.96875 5.214844 3.976562 5.214844 C 3.984375 5.214844 3.996094 5.210938 4 5.203125 C 4.300781 4.914062 4.644531 4.671875 5.015625 4.488281 C 5.476562 4.261719 5.972656 4.125 6.484375 4.085938 C 6.488281 4.085938 6.488281 4.082031 6.492188 4.082031 C 7.253906 4.035156 8.011719 3.933594 8.757812 3.78125 C 9.066406 3.824219 9.375 3.847656 9.683594 3.847656 C 9.691406 3.847656 9.699219 3.847656 9.703125 3.847656 C 9.789062 3.847656 9.871094 3.84375 9.949219 3.839844 C 9.617188 3.941406 9.242188 4.117188 8.886719 4.421875 C 8.289062 4.9375 8.050781 5.566406 7.964844 5.894531 C 7.964844 5.894531 7.964844 5.898438 7.964844 5.898438 C 7.964844 5.902344 7.964844 5.90625 7.964844 5.90625 C 7.964844 5.910156 7.964844 5.910156 7.964844 5.914062 C 7.964844 5.917969 7.96875 5.921875 7.972656 5.925781 C 7.972656 5.929688 7.976562 5.933594 7.984375 5.9375 C 7.988281 5.9375 7.992188 5.9375 7.996094 5.9375 C 7.996094 5.9375 7.996094 5.9375 8 5.9375 C 8.339844 5.929688 9.007812 5.839844 9.644531 5.375 C 10.371094 4.847656 10.648438 4.136719 10.75 3.757812 C 10.929688 3.730469 11.101562 3.695312 11.269531 3.65625 C 11.894531 3.503906 12.410156 3.285156 12.789062 3.085938 C 12.808594 3.078125 12.8125 3.054688 12.804688 3.039062 C 12.796875 3.023438 12.773438 3.015625 12.757812 3.023438 Z M 6.242188 2.359375 C 7.003906 2.621094 7.457031 3.128906 7.683594 3.460938 L 4.648438 2.28125 C 4.996094 2.199219 5.585938 2.132812 6.242188 2.359375 Z M 5.847656 3.363281 C 5.214844 3.085938 4.824219 2.636719 4.625 2.34375 L 7.660156 3.523438 C 7.265625 3.617188 6.585938 3.683594 5.847656 3.363281 Z M 9.796875 2.363281 C 10.542969 2.667969 10.964844 3.199219 11.175781 3.542969 L 8.210938 2.199219 C 8.5625 2.136719 9.15625 2.101562 9.796875 2.363281 Z M 8.183594 2.261719 L 11.148438 3.605469 C 10.75 3.675781 10.066406 3.707031 9.351562 3.347656 C 8.730469 3.035156 8.367188 2.5625 8.183594 2.261719 Z M 8.929688 4.476562 C 9.539062 3.953125 10.207031 3.816406 10.609375 3.789062 L 8.0625 5.808594 C 8.167969 5.472656 8.40625 4.925781 8.929688 4.476562 Z M 9.605469 5.320312 C 9.042969 5.726562 8.460938 5.839844 8.105469 5.863281 L 10.65625 3.84375 C 10.535156 4.226562 10.253906 4.847656 9.605469 5.320312 Z M 16.53125 2.917969 C 16.527344 2.933594 16.515625 2.941406 16.5 2.941406 C 16.496094 2.941406 16.492188 2.941406 16.488281 2.9375 C 16.484375 2.9375 16.480469 2.933594 16.476562 2.929688 C 16.457031 2.921875 16.453125 2.898438 16.464844 2.882812 C 16.472656 2.867188 16.496094 2.863281 16.511719 2.871094 C 16.527344 2.878906 16.539062 2.902344 16.53125 2.917969 Z M 26.835938 3.835938 C 26.054688 3.960938 25.261719 4.03125 24.476562 4.046875 C 23.316406 4.070312 22.148438 3.96875 21 3.75 C 21.261719 3.703125 21.519531 3.644531 21.773438 3.570312 C 21.957031 3.617188 22.230469 3.671875 22.550781 3.671875 C 22.898438 3.671875 23.300781 3.609375 23.722656 3.425781 C 24.445312 3.113281 24.859375 2.582031 25.039062 2.292969 C 25.039062 2.289062 25.039062 2.289062 25.039062 2.289062 C 25.042969 2.285156 25.042969 2.28125 25.042969 2.28125 C 25.042969 2.277344 25.042969 2.277344 25.042969 2.273438 C 25.042969 2.269531 25.042969 2.265625 25.042969 2.261719 C 25.039062 2.253906 25.039062 2.25 25.035156 2.25 C 25.03125 2.246094 25.03125 2.246094 25.03125 2.246094 C 25.027344 2.242188 25.023438 2.242188 25.019531 2.242188 C 25.019531 2.242188 25.019531 2.238281 25.019531 2.238281 C 24.6875 2.148438 24.023438 2.035156 23.28125 2.292969 C 22.433594 2.582031 21.960938 3.171875 21.75 3.503906 C 21.128906 3.6875 20.484375 3.78125 19.839844 3.777344 C 19.542969 3.777344 19.261719 3.753906 18.992188 3.71875 C 19.351562 3.707031 19.785156 3.628906 20.226562 3.40625 C 20.929688 3.054688 21.3125 2.5 21.476562 2.203125 C 21.476562 2.199219 21.476562 2.199219 21.476562 2.199219 C 21.480469 2.195312 21.480469 2.191406 21.480469 2.1875 C 21.480469 2.1875 21.480469 2.1875 21.480469 2.183594 C 21.480469 2.179688 21.480469 2.175781 21.480469 2.171875 C 21.476562 2.164062 21.472656 2.160156 21.46875 2.160156 C 21.46875 2.15625 21.46875 2.15625 21.464844 2.15625 C 21.464844 2.152344 21.460938 2.152344 21.457031 2.152344 C 21.457031 2.152344 21.457031 2.152344 21.453125 2.152344 C 21.121094 2.078125 20.449219 2.003906 19.71875 2.300781 C 18.902344 2.632812 18.460938 3.234375 18.265625 3.582031 C 17.671875 3.433594 17.179688 3.226562 16.8125 3.039062 C 16.796875 3.027344 16.777344 3.035156 16.765625 3.050781 C 16.757812 3.070312 16.765625 3.089844 16.78125 3.097656 C 17.15625 3.292969 17.664062 3.503906 18.277344 3.65625 C 18.277344 3.65625 18.277344 3.65625 18.28125 3.65625 C 18.445312 3.695312 18.617188 3.730469 18.792969 3.757812 C 18.894531 4.136719 19.171875 4.847656 19.898438 5.375 C 20.535156 5.839844 21.203125 5.929688 21.546875 5.9375 C 21.550781 5.9375 21.558594 5.9375 21.5625 5.9375 C 21.566406 5.933594 21.570312 5.929688 21.574219 5.925781 C 21.578125 5.921875 21.578125 5.917969 21.582031 5.914062 C 21.582031 5.910156 21.582031 5.910156 21.582031 5.910156 C 21.582031 5.90625 21.582031 5.902344 21.582031 5.898438 C 21.582031 5.898438 21.582031 5.894531 21.582031 5.894531 C 21.492188 5.566406 21.257812 4.9375 20.660156 4.421875 C 20.304688 4.117188 19.929688 3.941406 19.59375 3.839844 C 19.675781 3.84375 19.757812 3.847656 19.839844 3.847656 C 19.847656 3.847656 19.855469 3.847656 19.863281 3.847656 C 20.175781 3.847656 20.488281 3.824219 20.800781 3.78125 C 20.800781 3.78125 20.800781 3.78125 20.804688 3.78125 C 21.527344 3.929688 22.257812 4.027344 22.992188 4.078125 C 22.996094 4.082031 23.003906 4.085938 23.011719 4.085938 C 23.523438 4.125 24.019531 4.261719 24.480469 4.488281 C 24.851562 4.671875 25.195312 4.914062 25.496094 5.203125 C 25.5 5.210938 25.511719 5.214844 25.519531 5.214844 C 25.527344 5.214844 25.535156 5.210938 25.542969 5.203125 C 25.558594 5.191406 25.558594 5.167969 25.542969 5.152344 C 25.238281 4.859375 24.890625 4.613281 24.507812 4.425781 C 24.226562 4.285156 23.929688 4.179688 23.621094 4.109375 C 23.804688 4.117188 23.984375 4.121094 24.167969 4.121094 C 24.273438 4.121094 24.375 4.117188 24.480469 4.117188 C 25.269531 4.101562 26.066406 4.03125 26.851562 3.90625 C 26.855469 3.90625 26.859375 3.902344 26.859375 3.902344 C 26.875 3.894531 26.882812 3.882812 26.882812 3.871094 C 26.882812 3.847656 26.859375 3.832031 26.835938 3.835938 Z M 20.195312 3.347656 C 19.476562 3.707031 18.796875 3.675781 18.398438 3.605469 L 21.363281 2.261719 C 21.179688 2.566406 20.8125 3.035156 20.195312 3.347656 Z M 19.746094 2.363281 C 20.390625 2.101562 20.984375 2.136719 21.332031 2.199219 L 18.367188 3.542969 C 18.578125 3.199219 19.003906 2.667969 19.746094 2.363281 Z M 18.890625 3.84375 L 21.441406 5.863281 C 21.085938 5.839844 20.5 5.726562 19.941406 5.320312 C 19.292969 4.847656 19.011719 4.226562 18.890625 3.84375 Z M 21.484375 5.808594 L 18.933594 3.789062 C 19.335938 3.816406 20.007812 3.953125 20.613281 4.476562 C 21.140625 4.925781 21.378906 5.472656 21.484375 5.808594 Z M 23.695312 3.363281 C 22.960938 3.683594 22.28125 3.617188 21.886719 3.523438 L 24.921875 2.34375 C 24.71875 2.636719 24.332031 3.085938 23.695312 3.363281 Z M 23.300781 2.359375 C 23.957031 2.132812 24.550781 2.199219 24.894531 2.28125 L 21.859375 3.460938 C 22.089844 3.128906 22.542969 2.621094 23.300781 2.359375 Z M 23.300781 2.359375 " fill-opacity="1" fill-rule="nonzero"/></g><g clip-path="url(#df960d16c7)"><path fill="#d79034" d="M 15.140625 1.078125 C 14.933594 1.253906 14.835938 1.480469 14.789062 1.679688 C 14.746094 1.484375 14.648438 1.253906 14.4375 1.078125 C 13.976562 0.6875 13.246094 0.820312 12.855469 1.1875 C 12.554688 1.472656 12.429688 1.933594 12.511719 2.484375 C 12.539062 2.660156 12.585938 2.828125 12.742188 3.074219 C 12.914062 3.339844 13.207031 3.699219 13.789062 4.347656 C 14.109375 4.703125 14.429688 5.046875 14.761719 5.402344 C 14.769531 5.410156 14.78125 5.414062 14.789062 5.414062 C 14.800781 5.414062 14.808594 5.410156 14.816406 5.402344 C 15.132812 5.066406 15.460938 4.710938 15.789062 4.347656 C 16.363281 3.707031 16.65625 3.351562 16.828125 3.085938 C 16.992188 2.832031 17.042969 2.660156 17.066406 2.484375 C 17.148438 1.933594 17.027344 1.472656 16.722656 1.1875 C 16.332031 0.820312 15.605469 0.691406 15.140625 1.078125 Z M 14.449219 1.25 C 14.652344 1.417969 14.722656 1.65625 14.746094 1.832031 L 14.753906 1.902344 C 14.753906 1.914062 14.753906 1.925781 14.753906 1.9375 L 14.753906 1.972656 C 14.753906 1.976562 14.75 1.980469 14.753906 1.988281 C 14.753906 2 14.753906 2.015625 14.753906 2.027344 C 14.753906 2.03125 14.753906 2.03125 14.753906 2.035156 C 14.753906 2.035156 14.753906 2.039062 14.753906 2.039062 C 14.753906 2.042969 14.753906 2.042969 14.753906 2.046875 C 14.753906 2.199219 14.699219 2.351562 14.601562 2.46875 C 14.484375 2.605469 14.324219 2.6875 14.148438 2.703125 C 14.007812 2.71875 13.871094 2.675781 13.765625 2.585938 C 13.65625 2.496094 13.59375 2.367188 13.578125 2.230469 C 13.558594 2.003906 13.726562 1.804688 13.953125 1.785156 C 14.132812 1.769531 14.289062 1.898438 14.304688 2.078125 C 14.316406 2.214844 14.214844 2.335938 14.078125 2.347656 C 13.96875 2.359375 13.875 2.277344 13.867188 2.171875 C 13.863281 2.152344 13.847656 2.140625 13.828125 2.140625 C 13.808594 2.140625 13.792969 2.160156 13.796875 2.179688 C 13.808594 2.324219 13.9375 2.429688 14.082031 2.417969 C 14.257812 2.402344 14.390625 2.246094 14.375 2.070312 C 14.355469 1.855469 14.164062 1.695312 13.949219 1.714844 C 13.683594 1.738281 13.488281 1.972656 13.511719 2.234375 C 13.539062 2.542969 13.796875 2.777344 14.101562 2.777344 C 14.121094 2.777344 14.136719 2.777344 14.15625 2.773438 C 14.351562 2.757812 14.527344 2.664062 14.652344 2.515625 C 14.714844 2.441406 14.761719 2.355469 14.789062 2.269531 C 14.816406 2.355469 14.863281 2.441406 14.925781 2.515625 C 15.050781 2.664062 15.230469 2.757812 15.425781 2.773438 C 15.441406 2.777344 15.460938 2.777344 15.476562 2.777344 C 15.78125 2.777344 16.042969 2.542969 16.070312 2.234375 C 16.09375 1.972656 15.894531 1.738281 15.632812 1.714844 C 15.414062 1.695312 15.222656 1.855469 15.203125 2.070312 C 15.1875 2.246094 15.320312 2.402344 15.496094 2.417969 C 15.566406 2.425781 15.636719 2.402344 15.691406 2.355469 C 15.742188 2.3125 15.777344 2.25 15.78125 2.179688 C 15.785156 2.160156 15.769531 2.140625 15.75 2.140625 C 15.730469 2.140625 15.714844 2.152344 15.714844 2.171875 C 15.707031 2.222656 15.683594 2.269531 15.644531 2.304688 C 15.605469 2.335938 15.554688 2.351562 15.503906 2.347656 C 15.363281 2.335938 15.261719 2.214844 15.273438 2.078125 C 15.289062 1.898438 15.445312 1.769531 15.625 1.785156 C 15.851562 1.804688 16.019531 2.003906 16 2.230469 C 15.988281 2.367188 15.921875 2.496094 15.8125 2.585938 C 15.707031 2.675781 15.570312 2.71875 15.429688 2.703125 C 15.253906 2.6875 15.09375 2.605469 14.980469 2.46875 C 14.878906 2.347656 14.824219 2.199219 14.824219 2.042969 C 14.824219 2.042969 14.824219 2.042969 14.824219 2.039062 C 14.824219 2.039062 14.824219 2.035156 14.824219 2.03125 C 14.824219 2.015625 14.824219 2 14.828125 1.988281 C 14.828125 1.980469 14.828125 1.976562 14.824219 1.972656 C 14.824219 1.960938 14.824219 1.953125 14.824219 1.941406 C 14.824219 1.9375 14.824219 1.9375 14.824219 1.933594 C 14.828125 1.925781 14.828125 1.914062 14.828125 1.898438 C 14.828125 1.878906 14.832031 1.855469 14.835938 1.828125 C 14.859375 1.660156 14.925781 1.417969 15.132812 1.25 C 15.5 0.941406 16.082031 1.046875 16.394531 1.339844 C 16.640625 1.570312 16.738281 1.941406 16.671875 2.390625 C 16.648438 2.535156 16.609375 2.675781 16.472656 2.886719 C 16.324219 3.113281 16.082031 3.410156 15.59375 3.949219 C 15.335938 4.238281 15.074219 4.523438 14.789062 4.824219 C 14.511719 4.53125 14.25 4.242188 13.984375 3.949219 C 13.105469 2.96875 12.957031 2.726562 12.910156 2.390625 C 12.84375 1.941406 12.941406 1.570312 13.183594 1.339844 C 13.363281 1.167969 13.636719 1.0625 13.90625 1.0625 C 14.101562 1.0625 14.292969 1.117188 14.449219 1.25 Z M 17 2.472656 C 16.972656 2.644531 16.925781 2.804688 16.769531 3.050781 C 16.597656 3.3125 16.308594 3.664062 15.738281 4.300781 C 15.417969 4.65625 15.097656 5.003906 14.789062 5.328125 C 14.464844 4.984375 14.152344 4.648438 13.84375 4.300781 C 13.261719 3.652344 12.96875 3.300781 12.804688 3.035156 C 12.652344 2.800781 12.605469 2.640625 12.582031 2.472656 C 12.503906 1.945312 12.617188 1.507812 12.90625 1.238281 C 13.117188 1.035156 13.4375 0.910156 13.753906 0.910156 C 13.972656 0.910156 14.1875 0.972656 14.367188 1.109375 C 13.972656 0.890625 13.4375 1.007812 13.136719 1.289062 C 12.875 1.535156 12.769531 1.929688 12.839844 2.402344 C 12.890625 2.75 13.039062 3.003906 13.933594 3.996094 C 14.207031 4.300781 14.476562 4.59375 14.761719 4.898438 C 14.769531 4.902344 14.78125 4.90625 14.789062 4.90625 C 14.800781 4.90625 14.808594 4.902344 14.816406 4.898438 C 15.109375 4.585938 15.378906 4.292969 15.644531 3.996094 C 16.132812 3.453125 16.382812 3.152344 16.53125 2.925781 C 16.671875 2.703125 16.71875 2.554688 16.742188 2.402344 C 16.808594 1.929688 16.703125 1.535156 16.445312 1.289062 C 16.144531 1.007812 15.609375 0.890625 15.214844 1.109375 C 15.652344 0.773438 16.316406 0.898438 16.675781 1.238281 C 16.960938 1.507812 17.074219 1.945312 17 2.472656 Z M 1.847656 2.878906 C 1.480469 2.761719 1.144531 2.796875 0.929688 2.847656 C 0.839844 2.867188 0.765625 2.929688 0.730469 3.015625 C 0.699219 3.101562 0.707031 3.195312 0.757812 3.273438 C 0.769531 3.292969 0.785156 3.3125 0.796875 3.332031 C 0.769531 3.34375 0.742188 3.355469 0.71875 3.367188 C 0.636719 3.410156 0.582031 3.488281 0.570312 3.582031 C 0.558594 3.671875 0.589844 3.761719 0.65625 3.824219 C 0.820312 3.972656 1.09375 4.167969 1.476562 4.246094 C 1.589844 4.269531 1.703125 4.28125 1.808594 4.28125 C 2.136719 4.28125 2.414062 4.183594 2.605469 4.085938 C 2.683594 4.046875 2.738281 3.96875 2.753906 3.882812 C 2.765625 3.867188 2.773438 3.851562 2.78125 3.832031 C 2.816406 3.746094 2.804688 3.648438 2.753906 3.570312 C 2.597656 3.335938 2.308594 3.027344 1.847656 2.878906 Z M 0.816406 3.238281 C 0.777344 3.179688 0.769531 3.105469 0.796875 3.042969 C 0.824219 2.976562 0.875 2.929688 0.945312 2.914062 C 1.050781 2.890625 1.183594 2.871094 1.335938 2.871094 C 1.488281 2.871094 1.652344 2.890625 1.828125 2.945312 C 2.269531 3.085938 2.542969 3.382812 2.695312 3.609375 C 2.71875 3.640625 2.730469 3.679688 2.730469 3.714844 C 2.714844 3.679688 2.695312 3.652344 2.664062 3.625 C 2.453125 3.4375 2.101562 3.207031 1.617188 3.175781 C 1.316406 3.15625 1.054688 3.222656 0.863281 3.304688 C 0.847656 3.28125 0.832031 3.257812 0.816406 3.238281 Z M 2.6875 3.855469 C 2.660156 3.894531 2.617188 3.921875 2.566406 3.933594 C 2.300781 3.992188 1.894531 4.019531 1.476562 3.820312 C 1.214844 3.695312 1.03125 3.515625 0.90625 3.359375 C 1.066406 3.296875 1.273438 3.242188 1.515625 3.242188 C 1.546875 3.242188 1.582031 3.242188 1.613281 3.246094 C 2.078125 3.273438 2.417969 3.496094 2.621094 3.679688 C 2.671875 3.722656 2.695312 3.789062 2.6875 3.855469 Z M 2.574219 4.023438 C 2.328125 4.144531 1.945312 4.269531 1.488281 4.179688 C 1.125 4.105469 0.863281 3.917969 0.703125 3.773438 C 0.652344 3.726562 0.628906 3.660156 0.636719 3.589844 C 0.648438 3.519531 0.6875 3.460938 0.75 3.429688 C 0.777344 3.417969 0.808594 3.402344 0.839844 3.386719 C 0.96875 3.554688 1.164062 3.746094 1.449219 3.882812 C 1.703125 4.003906 1.957031 4.046875 2.175781 4.046875 C 2.328125 4.046875 2.46875 4.027344 2.582031 4 C 2.597656 4 2.609375 3.992188 2.621094 3.988281 C 2.609375 4.003906 2.589844 4.015625 2.574219 4.023438 Z M 29 3.582031 C 28.984375 3.488281 28.933594 3.410156 28.847656 3.367188 C 28.824219 3.355469 28.796875 3.34375 28.769531 3.332031 C 28.785156 3.3125 28.796875 3.292969 28.808594 3.273438 C 28.859375 3.195312 28.871094 3.101562 28.835938 3.015625 C 28.800781 2.929688 28.730469 2.867188 28.636719 2.847656 C 28.421875 2.796875 28.085938 2.761719 27.71875 2.878906 C 27.257812 3.027344 26.972656 3.335938 26.8125 3.570312 C 26.761719 3.648438 26.75 3.746094 26.785156 3.832031 C 26.792969 3.851562 26.800781 3.867188 26.8125 3.882812 C 26.828125 3.96875 26.882812 4.046875 26.964844 4.085938 C 27.15625 4.183594 27.433594 4.28125 27.761719 4.28125 C 27.867188 4.28125 27.976562 4.269531 28.09375 4.246094 C 28.472656 4.167969 28.746094 3.972656 28.910156 3.824219 C 28.980469 3.761719 29.011719 3.671875 29 3.582031 Z M 26.871094 3.609375 C 27.023438 3.382812 27.296875 3.085938 27.738281 2.945312 C 27.914062 2.890625 28.082031 2.871094 28.230469 2.871094 C 28.382812 2.871094 28.515625 2.890625 28.621094 2.914062 C 28.691406 2.929688 28.746094 2.976562 28.769531 3.042969 C 28.796875 3.105469 28.789062 3.179688 28.75 3.238281 C 28.738281 3.257812 28.722656 3.28125 28.703125 3.304688 C 28.511719 3.222656 28.253906 3.15625 27.949219 3.175781 C 27.464844 3.207031 27.113281 3.4375 26.902344 3.625 C 26.875 3.652344 26.851562 3.679688 26.835938 3.714844 C 26.839844 3.679688 26.847656 3.640625 26.871094 3.609375 Z M 26.878906 3.855469 C 26.871094 3.789062 26.898438 3.722656 26.949219 3.679688 C 27.152344 3.496094 27.488281 3.273438 27.953125 3.246094 C 27.988281 3.242188 28.019531 3.242188 28.054688 3.242188 C 28.292969 3.242188 28.5 3.296875 28.660156 3.359375 C 28.535156 3.515625 28.351562 3.695312 28.089844 3.820312 C 27.671875 4.019531 27.265625 3.992188 27 3.933594 C 26.949219 3.921875 26.910156 3.894531 26.878906 3.855469 Z M 28.863281 3.773438 C 28.707031 3.917969 28.441406 4.105469 28.078125 4.179688 C 27.625 4.269531 27.238281 4.144531 26.996094 4.023438 C 26.976562 4.015625 26.960938 4.003906 26.945312 3.988281 C 26.957031 3.992188 26.972656 4 26.984375 4 C 27.097656 4.027344 27.238281 4.046875 27.390625 4.046875 C 27.613281 4.046875 27.863281 4.003906 28.121094 3.882812 C 28.402344 3.746094 28.597656 3.554688 28.726562 3.386719 C 28.757812 3.402344 28.789062 3.417969 28.816406 3.429688 C 28.878906 3.460938 28.921875 3.519531 28.929688 3.589844 C 28.9375 3.660156 28.914062 3.726562 28.863281 3.773438 Z M 3.664062 5.003906 C 3.421875 5.003906 3.222656 5.203125 3.222656 5.445312 C 3.222656 5.6875 3.421875 5.882812 3.664062 5.882812 C 3.910156 5.882812 4.105469 5.6875 4.105469 5.445312 C 4.105469 5.203125 3.910156 5.003906 3.664062 5.003906 Z M 3.664062 5.816406 C 3.460938 5.816406 3.292969 5.648438 3.292969 5.445312 C 3.292969 5.238281 3.460938 5.074219 3.664062 5.074219 C 3.871094 5.074219 4.035156 5.238281 4.035156 5.445312 C 4.035156 5.648438 3.871094 5.816406 3.664062 5.816406 Z M 25.832031 5.003906 C 25.585938 5.003906 25.390625 5.203125 25.390625 5.445312 C 25.390625 5.6875 25.585938 5.882812 25.832031 5.882812 C 26.074219 5.882812 26.273438 5.6875 26.273438 5.445312 C 26.273438 5.203125 26.074219 5.003906 25.832031 5.003906 Z M 25.832031 5.816406 C 25.625 5.816406 25.460938 5.648438 25.460938 5.445312 C 25.460938 5.238281 25.625 5.074219 25.832031 5.074219 C 26.035156 5.074219 26.203125 5.238281 26.203125 5.445312 C 26.203125 5.648438 26.035156 5.816406 25.832031 5.816406 Z M 25.832031 5.816406 " fill-opacity="1" fill-rule="nonzero"/></g></g></g></g><g mask="url(#dcf373fb5a)"><g transform="matrix(1, 0, 0, 1, 21, 7)"><g clip-path="url(#c814e0e524)"><g clip-path="url(#a61392e982)"><path fill="#000000" d="M 8.019531 1.179688 C 7.660156 1.296875 7.40625 1.496094 7.40625 1.65625 C 7.40625 1.734375 7.332031 1.746094 7.117188 1.710938 C 6.847656 1.667969 6.808594 1.6875 6.5625 1.980469 C 6.117188 2.507812 5.523438 4.164062 5.523438 4.878906 C 5.527344 5.027344 5.59375 5.4375 5.675781 5.785156 C 5.757812 6.132812 5.824219 6.621094 5.824219 6.871094 C 5.824219 7.296875 5.8125 7.332031 5.578125 7.488281 C 5.324219 7.660156 4.816406 8.324219 4.558594 8.824219 C 4.476562 8.984375 4.148438 9.425781 3.832031 9.804688 C 2.914062 10.898438 2.109375 12.445312 1.875 13.558594 C 1.691406 14.441406 1.734375 16.117188 1.992188 18.15625 C 2.28125 20.425781 2.34375 21.59375 2.222656 22.519531 C 1.96875 24.441406 1.398438 26.984375 0.59375 29.765625 C 0.5625 29.871094 0.730469 29.949219 1.519531 30.214844 C 2.433594 30.519531 2.539062 30.539062 3.71875 30.589844 C 4.402344 30.621094 5.214844 30.703125 5.523438 30.773438 C 6.898438 31.082031 7.898438 31.195312 9.359375 31.210938 C 10.164062 31.222656 10.933594 31.203125 11.070312 31.171875 L 11.3125 31.109375 L 11.332031 33.617188 C 11.367188 37.996094 11.335938 38.695312 10.96875 42.566406 C 10.734375 45.046875 10.640625 47.382812 10.640625 50.878906 C 10.636719 53.414062 10.625 53.710938 10.488281 54.1875 C 10.40625 54.476562 10.324219 54.730469 10.300781 54.753906 C 10.28125 54.777344 10.175781 54.753906 10.066406 54.703125 C 9.960938 54.652344 9.527344 54.578125 9.109375 54.535156 C 8.257812 54.445312 7.832031 54.285156 7.199219 53.804688 C 6.839844 53.535156 6.804688 53.484375 6.804688 53.207031 C 6.800781 52.996094 6.730469 52.796875 6.574219 52.5625 C 6.355469 52.234375 6.351562 52.207031 6.351562 51.261719 C 6.351562 50.640625 6.390625 50.164062 6.460938 49.917969 C 6.523438 49.714844 6.707031 48.753906 6.875 47.789062 C 7.042969 46.824219 7.3125 45.398438 7.476562 44.625 C 7.636719 43.847656 7.859375 42.75 7.96875 42.183594 C 8.078125 41.617188 8.347656 40.585938 8.570312 39.894531 C 9.015625 38.496094 9.40625 36.988281 9.691406 35.546875 C 9.902344 34.480469 10.355469 31.421875 10.3125 31.375 C 10.292969 31.359375 9.964844 31.386719 9.574219 31.433594 C 8.597656 31.558594 7.699219 31.480469 5.902344 31.121094 C 5.054688 30.953125 4.03125 30.792969 3.625 30.765625 L 2.894531 30.71875 L 2.9375 31.09375 C 2.960938 31.296875 3.03125 31.789062 3.089844 32.179688 C 3.335938 33.816406 3.414062 36.953125 3.269531 39.339844 C 3.207031 40.390625 3.171875 40.582031 2.894531 41.414062 C 2.324219 43.136719 2.246094 43.636719 2.066406 46.875 C 2.023438 47.628906 1.925781 48.566406 1.847656 48.953125 C 1.71875 49.578125 1.707031 49.875 1.746094 51.53125 L 1.789062 53.40625 L 2.085938 53.558594 C 2.558594 53.804688 3.449219 54 4.15625 54.015625 C 4.746094 54.027344 4.902344 54 5.710938 53.71875 C 6.207031 53.546875 6.625 53.417969 6.636719 53.429688 C 6.722656 53.519531 6.230469 53.808594 5.644531 54.015625 C 4.742188 54.335938 3.933594 54.335938 2.980469 54.011719 L 2.351562 53.800781 L 2.25 54.046875 C 1.980469 54.699219 1.976562 56.238281 2.246094 56.511719 C 2.472656 56.738281 4.378906 56.832031 4.792969 56.632812 C 5.035156 56.515625 5.058594 56.519531 5.675781 56.796875 C 6.28125 57.070312 6.363281 57.085938 7.265625 57.117188 C 8.757812 57.167969 10.5 56.960938 10.808594 56.691406 C 10.960938 56.558594 10.984375 56.121094 10.84375 56.007812 C 10.792969 55.964844 10.597656 55.886719 10.410156 55.832031 C 10.226562 55.78125 10.003906 55.667969 9.921875 55.585938 C 9.773438 55.441406 9.773438 55.4375 10.035156 55.480469 C 10.179688 55.503906 10.761719 55.566406 11.324219 55.617188 L 12.351562 55.710938 L 12.453125 55.945312 C 12.617188 56.316406 12.8125 56.375 13.945312 56.363281 C 14.882812 56.355469 14.992188 56.371094 15.375 56.546875 C 16.117188 56.894531 16.828125 56.992188 18.53125 56.976562 C 19.851562 56.964844 20.117188 56.980469 20.375 57.097656 C 20.628906 57.207031 20.808594 57.222656 21.539062 57.175781 C 22.015625 57.148438 22.773438 57.078125 23.230469 57.015625 C 24.335938 56.867188 24.640625 56.875 25.421875 57.066406 C 25.882812 57.179688 26.351562 57.234375 26.953125 57.238281 C 28.214844 57.253906 31.171875 57.144531 31.914062 57.058594 C 32.265625 57.015625 32.824219 56.980469 33.15625 56.980469 C 33.894531 56.980469 35.308594 56.695312 36.011719 56.402344 C 36.496094 56.203125 36.617188 56.1875 37.589844 56.175781 C 39.082031 56.164062 40.785156 55.839844 40.972656 55.53125 C 41.066406 55.378906 40.917969 55.144531 40.632812 54.996094 C 40.261719 54.804688 39.355469 54.652344 37.710938 54.503906 C 36.179688 54.367188 35.757812 54.277344 34.394531 53.796875 L 33.378906 53.4375 L 31.980469 53.4375 L 30.578125 53.433594 L 30.175781 53.148438 C 29.953125 52.992188 29.28125 52.449219 28.679688 51.941406 C 28.082031 51.433594 27.261719 50.78125 26.859375 50.484375 C 26.019531 49.871094 25.933594 49.765625 25.554688 48.890625 C 25.402344 48.535156 25 47.628906 24.660156 46.875 C 24.320312 46.117188 23.867188 45.105469 23.660156 44.625 C 23.449219 44.140625 22.734375 42.621094 22.070312 41.246094 C 20.8125 38.644531 20.074219 36.980469 19.761719 36.054688 C 19.445312 35.109375 19.359375 34.367188 19.355469 32.582031 C 19.355469 29.375 19.097656 28.269531 17.9375 26.449219 C 17.410156 25.625 17.363281 25.328125 17.636719 24.625 C 17.75 24.324219 17.777344 24.136719 17.742188 23.886719 C 17.699219 23.589844 17.660156 23.542969 17.40625 23.441406 L 17.121094 23.328125 L 17.234375 22.820312 C 17.363281 22.25 18.101562 20.007812 18.261719 19.695312 L 18.371094 19.492188 L 18.449219 19.707031 C 18.496094 19.824219 18.53125 19.96875 18.53125 20.023438 C 18.53125 20.222656 18.914062 20.589844 19.167969 20.640625 C 19.542969 20.710938 20.109375 20.5625 20.539062 20.277344 C 20.746094 20.136719 21.019531 19.957031 21.144531 19.875 C 21.269531 19.796875 21.460938 19.589844 21.570312 19.421875 C 21.898438 18.910156 21.808594 18.320312 21.316406 17.753906 L 21.078125 17.476562 L 21.4375 17.222656 C 21.640625 17.085938 21.960938 16.816406 22.160156 16.621094 C 22.492188 16.296875 22.515625 16.246094 22.515625 15.890625 C 22.515625 15.464844 22.347656 15.152344 21.886719 14.714844 L 21.617188 14.457031 L 21.691406 13.886719 C 21.785156 13.148438 21.660156 12.675781 21.21875 12.128906 C 21.054688 11.921875 20.886719 11.71875 20.71875 11.511719 C 20.550781 11.300781 20.546875 11.269531 20.632812 10.824219 C 20.78125 10.054688 20.742188 9.261719 20.519531 8.535156 C 19.886719 6.496094 18.855469 5.558594 16.703125 5.058594 C 15.683594 4.824219 15.464844 4.851562 14.660156 5.292969 C 14.300781 5.492188 14.109375 5.675781 13.730469 6.1875 C 13.464844 6.539062 13.167969 7.007812 13.070312 7.222656 C 12.96875 7.4375 12.835938 7.660156 12.769531 7.714844 C 12.464844 7.972656 12.324219 7.054688 12.566406 6.398438 C 12.632812 6.21875 12.742188 5.808594 12.8125 5.496094 C 12.9375 4.925781 12.941406 4.921875 13.289062 4.75 C 13.484375 4.65625 13.699219 4.492188 13.765625 4.386719 C 13.929688 4.128906 13.859375 3.6875 13.628906 3.523438 C 13.535156 3.453125 13.167969 3.128906 12.816406 2.796875 C 11.65625 1.703125 10.914062 1.320312 9.734375 1.214844 C 9.34375 1.183594 8.867188 1.136719 8.683594 1.113281 C 8.484375 1.089844 8.210938 1.117188 8.019531 1.179688 M 11.292969 4.625 C 11.261719 4.65625 11.238281 4.773438 11.238281 4.886719 C 11.238281 5.132812 11.121094 5.246094 10.796875 5.3125 C 10.570312 5.359375 10.335938 5.578125 9.988281 6.066406 L 9.824219 6.292969 L 9.660156 6.140625 C 9.566406 6.058594 9.398438 5.796875 9.277344 5.558594 C 8.71875 4.433594 8.03125 4.597656 7.921875 5.890625 C 7.886719 6.3125 7.824219 6.570312 7.726562 6.703125 C 7.496094 7.011719 7.058594 7.199219 6.523438 7.21875 C 5.988281 7.234375 6.015625 7.222656 5.945312 7.453125 C 5.898438 7.605469 5.953125 7.652344 6.453125 7.886719 C 7.167969 8.21875 7.902344 8.703125 8.5625 9.269531 L 9.078125 9.71875 L 9.265625 9.496094 L 9.457031 9.277344 L 9.121094 8.96875 C 8.59375 8.484375 8.539062 8.359375 8.484375 7.496094 C 8.441406 6.816406 8.414062 6.699219 8.257812 6.550781 C 8.160156 6.460938 8.082031 6.3125 8.082031 6.226562 C 8.085938 6.085938 8.097656 6.089844 8.214844 6.277344 C 8.3125 6.4375 8.398438 6.484375 8.589844 6.484375 L 8.835938 6.484375 L 8.722656 6.710938 C 8.550781 7.046875 8.566406 7.984375 8.75 8.285156 C 8.980469 8.671875 10.148438 9.550781 10.566406 9.652344 C 10.730469 9.691406 10.792969 9.652344 10.960938 9.40625 C 11.125 9.167969 11.152344 9.0625 11.113281 8.820312 C 11.066406 8.527344 11.070312 8.523438 11.273438 8.5625 C 11.441406 8.597656 11.503906 8.5625 11.617188 8.367188 C 11.703125 8.230469 11.742188 8.0625 11.71875 7.960938 C 11.679688 7.800781 11.6875 7.796875 11.898438 7.875 C 12.257812 8.015625 12.359375 7.925781 12.285156 7.539062 C 12.171875 6.9375 12.203125 6.414062 12.371094 6.175781 C 12.496094 5.996094 12.664062 5.328125 12.667969 4.996094 C 12.667969 4.953125 12.4375 4.859375 12.160156 4.789062 C 11.878906 4.71875 11.582031 4.640625 11.5 4.617188 C 11.417969 4.589844 11.324219 4.59375 11.292969 4.625 M 8.390625 5.308594 C 8.304688 5.421875 8.230469 5.550781 8.230469 5.597656 C 8.230469 5.644531 8.289062 5.597656 8.355469 5.492188 C 8.425781 5.390625 8.488281 5.292969 8.496094 5.28125 C 8.503906 5.273438 8.566406 5.285156 8.632812 5.308594 C 8.820312 5.382812 8.78125 5.609375 8.570312 5.710938 C 8.300781 5.832031 8.324219 6.027344 8.609375 6.027344 C 8.902344 6.027344 8.964844 5.867188 8.828125 5.46875 C 8.695312 5.085938 8.59375 5.050781 8.390625 5.308594 M 11.355469 5.882812 C 11.40625 5.964844 12.019531 6.257812 12.148438 6.257812 C 12.304688 6.257812 12.199219 6.023438 11.992188 5.914062 C 11.734375 5.78125 11.277344 5.757812 11.355469 5.882812 M 13.992188 6.269531 C 13.84375 6.441406 13.582031 6.828125 13.410156 7.125 C 13.011719 7.8125 12.921875 7.917969 12.554688 8.105469 C 12.390625 8.191406 12.238281 8.273438 12.222656 8.289062 C 12.203125 8.304688 12.296875 8.433594 12.429688 8.570312 L 12.671875 8.824219 L 12.480469 8.925781 C 12.375 8.984375 12.292969 9.058594 12.292969 9.097656 C 12.292969 9.132812 12.414062 9.324219 12.5625 9.523438 L 12.832031 9.878906 L 12.5625 9.902344 C 12.324219 9.925781 12.285156 9.960938 12.207031 10.222656 C 12.09375 10.613281 12.164062 10.871094 12.421875 10.96875 C 12.535156 11.015625 12.933594 11.070312 13.304688 11.09375 C 14.339844 11.15625 14.472656 11.328125 14.625 12.8125 C 14.664062 13.207031 14.707031 13.539062 14.71875 13.550781 C 14.730469 13.5625 14.90625 13.523438 15.105469 13.460938 C 15.507812 13.339844 15.84375 13.394531 16.367188 13.664062 C 16.519531 13.742188 16.667969 13.808594 16.695312 13.808594 C 16.773438 13.808594 16.671875 13.070312 16.5 12.34375 C 16.339844 11.664062 16.304688 10.8125 16.425781 10.496094 C 16.507812 10.269531 16.476562 10.261719 16.078125 10.402344 C 15.917969 10.460938 15.660156 10.53125 15.503906 10.558594 C 15.253906 10.605469 15.222656 10.59375 15.222656 10.457031 C 15.222656 10.332031 15.273438 10.300781 15.453125 10.300781 C 15.796875 10.300781 16.136719 10.125 16.410156 9.8125 C 16.675781 9.507812 16.71875 9.234375 16.535156 9.046875 C 16.386719 8.898438 16.273438 8.898438 15.75 9.042969 C 15.523438 9.105469 15.328125 9.152344 15.320312 9.15625 C 15.3125 9.15625 15.207031 9.007812 15.082031 8.824219 C 14.800781 8.410156 14.546875 7.65625 14.546875 7.238281 C 14.546875 6.804688 14.394531 5.953125 14.320312 5.953125 C 14.285156 5.953125 14.136719 6.09375 13.992188 6.269531 M 11.3125 6.519531 C 11.3125 6.578125 11.40625 6.699219 11.519531 6.789062 C 11.710938 6.945312 11.726562 6.945312 11.820312 6.820312 C 11.957031 6.625 11.941406 6.585938 11.679688 6.492188 C 11.367188 6.382812 11.3125 6.386719 11.3125 6.519531 M 13.492188 7.363281 C 13.492188 7.46875 13.925781 7.75 13.992188 7.6875 C 14.007812 7.667969 13.953125 7.5625 13.867188 7.453125 C 13.695312 7.230469 13.492188 7.183594 13.492188 7.363281 M 13.25 7.953125 C 13.1875 8.390625 13.296875 8.480469 13.679688 8.304688 C 13.9375 8.183594 13.917969 8.039062 13.625 7.859375 C 13.304688 7.660156 13.292969 7.664062 13.25 7.953125 M 5.523438 7.96875 C 5.570312 8.03125 5.832031 8.203125 6.101562 8.351562 C 7.003906 8.855469 7.566406 9.34375 8.515625 10.449219 L 8.742188 10.71875 L 8.875 10.433594 C 9.058594 10.046875 8.976562 9.894531 8.261719 9.3125 C 7.554688 8.734375 7.242188 8.527344 6.503906 8.148438 C 5.925781 7.851562 5.335938 7.742188 5.523438 7.96875 M 11.5625 8.792969 C 11.363281 9.097656 11.152344 9.457031 11.097656 9.59375 C 10.957031 9.9375 10.714844 9.984375 10.234375 9.765625 C 9.65625 9.507812 9.503906 9.523438 9.324219 9.859375 L 9.171875 10.148438 L 9.503906 10.441406 L 9.839844 10.734375 L 9.507812 11.304688 L 9.761719 11.660156 C 10.152344 12.207031 10.261719 12.472656 10.261719 12.878906 C 10.261719 13.140625 10.382812 13.59375 10.667969 14.390625 C 11.097656 15.578125 11.390625 16.609375 11.390625 16.917969 C 11.390625 17.019531 11.421875 17.089844 11.460938 17.074219 C 11.660156 17.003906 13.03125 15.535156 13.3125 15.09375 C 13.488281 14.816406 13.671875 14.5625 13.71875 14.535156 C 13.765625 14.503906 13.9375 14.308594 14.097656 14.101562 C 14.386719 13.730469 14.398438 13.703125 14.398438 13.121094 C 14.398438 12.410156 14.285156 11.8125 14.105469 11.59375 C 14.003906 11.464844 13.828125 11.414062 13.179688 11.335938 C 12.578125 11.257812 12.320312 11.191406 12.140625 11.0625 C 11.871094 10.867188 11.875 10.96875 12.101562 9.546875 C 12.191406 8.980469 12.207031 8.734375 12.148438 8.671875 C 12.101562 8.628906 12.066406 8.53125 12.066406 8.457031 C 12.066406 8.164062 11.910156 8.265625 11.5625 8.792969 M 16.011719 9.4375 C 15.671875 9.523438 15.382812 9.703125 15.425781 9.8125 C 15.511719 10.046875 16.027344 9.863281 16.203125 9.535156 C 16.285156 9.382812 16.273438 9.375 16.011719 9.4375 M 5.109375 10.941406 C 4.980469 10.996094 4.550781 11.378906 4.148438 11.785156 C 3.488281 12.457031 3.40625 12.574219 3.269531 13.027344 C 3.160156 13.386719 3.140625 13.550781 3.199219 13.621094 C 3.242188 13.675781 3.289062 14.089844 3.304688 14.546875 C 3.335938 15.570312 3.621094 17.136719 3.945312 18.042969 C 4.078125 18.417969 4.25 18.964844 4.324219 19.253906 C 4.402344 19.542969 4.515625 19.835938 4.578125 19.898438 C 4.679688 20.003906 4.6875 19.984375 4.652344 19.714844 C 4.625 19.550781 4.476562 19.019531 4.316406 18.539062 C 3.953125 17.429688 3.75 16.507812 3.566406 15.105469 C 3.386719 13.726562 3.382812 13.246094 3.5625 12.855469 C 3.722656 12.496094 4.8125 11.390625 5.203125 11.1875 C 5.933594 10.808594 7.246094 11.535156 7.757812 12.605469 C 8.242188 13.617188 8.347656 14.148438 8.417969 16.019531 C 8.441406 16.671875 8.5 17.417969 8.542969 17.683594 C 8.605469 18.058594 8.601562 18.214844 8.523438 18.40625 C 8.460938 18.554688 8.421875 18.953125 8.421875 19.417969 L 8.417969 20.183594 L 9.164062 20.667969 C 9.980469 21.195312 10.507812 21.460938 10.679688 21.421875 C 10.789062 21.398438 10.035156 20.894531 9.128906 20.382812 L 8.683594 20.132812 L 8.671875 19.429688 C 8.664062 19.042969 8.671875 18.574219 8.6875 18.386719 C 8.757812 17.582031 8.578125 14.609375 8.417969 13.902344 C 8.234375 13.105469 7.636719 11.914062 7.222656 11.53125 C 6.566406 10.921875 5.699219 10.679688 5.109375 10.941406 M 15.027344 13.6875 C 14.664062 13.851562 14.652344 13.953125 14.988281 14.007812 C 15.460938 14.082031 15.738281 14.300781 15.941406 14.75 C 16.175781 15.273438 16.265625 15.953125 16.1875 16.628906 C 16.113281 17.238281 15.769531 18.261719 15.519531 18.625 C 15.425781 18.753906 15.101562 19.371094 14.800781 19.996094 C 14.5 20.621094 14.132812 21.316406 13.988281 21.546875 C 13.644531 22.089844 13.417969 22.546875 13.417969 22.691406 C 13.417969 22.871094 13.746094 22.835938 14.1875 22.609375 C 14.765625 22.3125 15.871094 21.894531 16.074219 21.894531 C 16.253906 21.894531 16.5 22.101562 16.5 22.253906 C 16.5 22.363281 16.15625 22.652344 15.800781 22.84375 C 15.648438 22.929688 15.523438 23.023438 15.523438 23.054688 C 15.523438 23.167969 15.839844 23.273438 16.308594 23.320312 L 16.792969 23.363281 L 16.839844 23.144531 C 16.867188 23.023438 17.042969 22.390625 17.234375 21.742188 L 17.753906 19.960938 C 17.984375 19.167969 17.976562 18.878906 17.703125 18.296875 C 17.4375 17.726562 17.425781 17.53125 17.628906 17.011719 C 17.84375 16.460938 17.839844 15.398438 17.625 15.042969 C 17.300781 14.503906 16.792969 14.082031 16.148438 13.824219 C 15.460938 13.550781 15.363281 13.539062 15.027344 13.6875 M 14.660156 14.265625 C 13.929688 14.425781 13.550781 15.019531 12.863281 17.074219 C 12.640625 17.738281 12.152344 19.039062 11.773438 19.964844 C 11.398438 20.894531 11.089844 21.742188 11.089844 21.847656 C 11.089844 21.957031 11.0625 22.046875 11.03125 22.046875 C 11 22.046875 10.46875 22.082031 9.847656 22.125 C 9.226562 22.167969 8.339844 22.179688 7.875 22.152344 L 7.027344 22.101562 L 6.644531 21.574219 C 6.433594 21.289062 6.121094 20.9375 5.949219 20.792969 C 5.683594 20.574219 4.78125 20.0625 4.664062 20.0625 C 4.519531 20.0625 4.6875 20.308594 5.089844 20.6875 C 5.34375 20.929688 5.53125 21.148438 5.503906 21.179688 C 5.457031 21.226562 4.242188 21.109375 3.703125 21.007812 C 3.546875 20.976562 3.496094 20.996094 3.496094 21.085938 C 3.496094 21.253906 3.773438 21.417969 4.226562 21.515625 C 4.839844 21.648438 4.824219 21.777344 4.203125 21.703125 C 3.449219 21.617188 3.324219 21.617188 3.292969 21.710938 C 3.277344 21.757812 3.476562 21.875 3.738281 21.964844 C 3.996094 22.058594 4.3125 22.179688 4.433594 22.238281 C 4.65625 22.339844 4.65625 22.339844 4.472656 22.347656 C 4.367188 22.347656 4.097656 22.300781 3.871094 22.238281 C 3.644531 22.175781 3.421875 22.125 3.382812 22.125 C 3.210938 22.128906 3.6875 22.4375 4.105469 22.589844 C 4.351562 22.679688 4.570312 22.785156 4.589844 22.820312 C 4.632812 22.886719 4.265625 22.839844 3.917969 22.726562 C 3.550781 22.609375 3.457031 22.640625 3.667969 22.8125 C 4.015625 23.089844 4.484375 23.199219 5.601562 23.269531 C 6.375 23.316406 7.03125 23.414062 7.863281 23.601562 C 10.203125 24.132812 11.28125 24.222656 11.84375 23.933594 C 12.136719 23.785156 12.292969 23.585938 13.117188 22.335938 C 14.183594 20.714844 15.734375 17.714844 15.945312 16.859375 C 16.097656 16.253906 16.050781 15.574219 15.820312 15.039062 C 15.5625 14.421875 15.160156 14.15625 14.660156 14.265625 M 12.132812 16.839844 C 11.785156 17.207031 11.402344 17.699219 11.28125 17.933594 L 11.0625 18.363281 L 11.160156 19.371094 C 11.21875 19.976562 11.285156 20.351562 11.328125 20.308594 C 11.511719 20.121094 12.886719 16.296875 12.800781 16.207031 C 12.78125 16.1875 12.480469 16.472656 12.132812 16.839844 M 15.097656 22.460938 C 14.15625 22.851562 14.1875 22.8125 13.898438 23.957031 C 13.757812 24.511719 13.644531 24.996094 13.644531 25.035156 C 13.644531 25.140625 14.507812 25.515625 15.078125 25.660156 C 15.949219 25.878906 16.914062 25.796875 17.011719 25.492188 C 17.035156 25.414062 16.914062 25.40625 16.390625 25.445312 C 15.773438 25.496094 15.734375 25.492188 15.761719 25.355469 C 15.785156 25.234375 15.878906 25.203125 16.351562 25.167969 C 16.660156 25.148438 17 25.078125 17.101562 25.019531 L 17.289062 24.914062 L 16.988281 24.855469 C 16.824219 24.828125 16.511719 24.800781 16.292969 24.796875 C 15.996094 24.792969 15.898438 24.765625 15.898438 24.679688 C 15.898438 24.585938 16.023438 24.5625 16.542969 24.5625 C 17.164062 24.5625 17.480469 24.484375 17.480469 24.332031 C 17.480469 24.292969 17.21875 24.257812 16.894531 24.257812 C 16.214844 24.257812 15.976562 24.203125 15.976562 24.058594 C 15.976562 23.976562 16.132812 23.953125 16.695312 23.953125 C 17.339844 23.953125 17.414062 23.941406 17.390625 23.820312 C 17.371094 23.714844 17.253906 23.671875 16.875 23.628906 C 15.390625 23.453125 15.300781 23.417969 15.300781 23.039062 C 15.300781 22.886719 15.378906 22.800781 15.664062 22.640625 C 15.863281 22.523438 16.074219 22.378906 16.125 22.316406 C 16.292969 22.109375 15.765625 22.183594 15.097656 22.460938 M 13.207031 23.09375 C 13.167969 23.167969 13.113281 23.398438 13.082031 23.609375 C 13.015625 24.09375 12.777344 24.722656 12.34375 25.59375 C 12.15625 25.96875 12.011719 26.289062 12.023438 26.300781 C 12.175781 26.457031 12.75 25.46875 13.070312 24.484375 C 13.246094 23.941406 13.40625 22.960938 13.316406 22.960938 C 13.292969 22.960938 13.242188 23.023438 13.207031 23.09375 M 13.246094 25.765625 C 13.097656 26.007812 12.863281 26.320312 12.714844 26.460938 C 12.457031 26.710938 12.320312 26.738281 11.933594 26.617188 C 11.863281 26.59375 11.832031 26.75 11.808594 27.195312 C 11.789062 27.53125 11.738281 28.113281 11.695312 28.492188 C 11.597656 29.332031 11.59375 33.109375 11.6875 35.28125 C 11.769531 37.1875 11.703125 38.683594 11.382812 42.03125 C 11.125 44.746094 11.019531 47.335938 11.015625 51.132812 L 11.011719 53.714844 L 10.777344 54.402344 C 10.640625 54.800781 10.574219 55.117188 10.613281 55.15625 C 10.648438 55.191406 11.066406 55.257812 11.542969 55.300781 L 12.402344 55.375 L 12.679688 55.699219 L 12.957031 56.027344 L 13.65625 56.019531 C 14.042969 56.015625 14.496094 55.972656 14.667969 55.925781 C 14.949219 55.84375 15.011719 55.855469 15.316406 56.027344 C 16.105469 56.476562 17.5 56.664062 19.164062 56.542969 C 19.96875 56.488281 20.089844 56.496094 20.320312 56.621094 C 20.535156 56.738281 20.746094 56.761719 21.566406 56.757812 C 22.109375 56.753906 22.839844 56.71875 23.191406 56.675781 C 24.015625 56.578125 24.796875 56.578125 25.304688 56.679688 C 26.234375 56.859375 27.164062 56.902344 28.644531 56.828125 C 31.441406 56.683594 33 56.589844 33.730469 56.519531 C 34.609375 56.433594 35.636719 56.125 35.75 55.910156 C 35.824219 55.769531 35.910156 55.761719 37.273438 55.769531 C 38.453125 55.773438 38.871094 55.746094 39.539062 55.617188 C 39.988281 55.527344 40.375 55.4375 40.398438 55.417969 C 40.480469 55.332031 40.257812 55.207031 39.910156 55.140625 C 39.707031 55.101562 38.816406 54.984375 37.925781 54.882812 C 35.996094 54.660156 35.5625 54.574219 34.28125 54.148438 L 33.304688 53.824219 L 31.914062 53.835938 L 30.523438 53.851562 L 29.902344 53.398438 C 29.5625 53.148438 28.75 52.503906 28.097656 51.960938 C 27.449219 51.421875 26.65625 50.800781 26.339844 50.585938 C 25.679688 50.136719 25.601562 50.03125 25.070312 48.78125 C 24.855469 48.277344 24.511719 47.527344 24.304688 47.113281 C 24.101562 46.699219 23.78125 45.980469 23.59375 45.511719 C 23.410156 45.042969 22.667969 43.441406 21.949219 41.945312 C 20.289062 38.5 19.867188 37.550781 19.511719 36.460938 C 19.089844 35.175781 18.984375 34.410156 18.984375 32.644531 C 18.984375 29.8125 18.824219 28.992188 17.914062 27.167969 C 17.570312 26.484375 17.265625 25.90625 17.234375 25.886719 C 17.207031 25.867188 17.035156 25.894531 16.859375 25.945312 C 16.683594 25.992188 16.261719 26.03125 15.921875 26.027344 C 15.320312 26.023438 14.671875 25.847656 13.785156 25.453125 L 13.511719 25.332031 Z M 13.246094 25.765625 " fill-opacity="1" fill-rule="evenodd"/></g></g></g></g></svg>