<svg xmlns="http://www.w3.org/2000/svg" xmlns:xlink="http://www.w3.org/1999/xlink" width="96" zoomAndPan="magnify" viewBox="0 0 72 72" height="96" preserveAspectRatio="xMidYMid meet" version="1.0"><defs><filter x="0%" y="0%" width="100%" height="100%" id="32a2119e80"><feColorMatrix values="0 0 0 0 1 0 0 0 0 1 0 0 0 0 1 0 0 0 1 0" color-interpolation-filters="sRGB"/></filter><mask id="0000e17c25"><g filter="url(#32a2119e80)"><rect x="-7.2" width="86.4" fill="#000000" y="-7.2" height="86.4" fill-opacity="0.21"/></g></mask><clipPath id="cf27392aa2"><path d="M 2 2 L 27 2 L 27 5.9375 L 2 5.9375 Z M 2 2 " clip-rule="nonzero"/></clipPath><clipPath id="53f7de4a92"><path d="M 0.53125 0.6875 L 29.03125 0.6875 L 29.03125 5.9375 L 0.53125 5.9375 Z M 0.53125 0.6875 " clip-rule="nonzero"/></clipPath><clipPath id="9bc1997c37"><rect x="0" width="30" y="0" height="7"/></clipPath><clipPath id="94b2e41f26"><path d="M 11.242188 26.898438 L 62.242188 26.898438 L 62.242188 50.898438 L 11.242188 50.898438 Z M 11.242188 26.898438 " clip-rule="nonzero"/></clipPath><clipPath id="9db7dc9245"><path d="M 11.242188 42 L 22 42 L 22 47 L 11.242188 47 Z M 11.242188 42 " clip-rule="nonzero"/></clipPath></defs><g mask="url(#0000e17c25)"><g transform="matrix(1, 0, 0, 1, 23, 37)"><g clip-path="url(#9bc1997c37)"><g clip-path="url(#cf27392aa2)"><path fill="#375726" d="M 12.757812 3.023438 C 12.386719 3.21875 11.886719 3.429688 11.277344 3.582031 C 11.082031 3.234375 10.640625 2.632812 9.824219 2.300781 C 9.09375 2.003906 8.425781 2.078125 8.089844 2.152344 C 8.085938 2.152344 8.082031 2.152344 8.078125 2.15625 C 8.078125 2.15625 8.078125 2.15625 8.074219 2.160156 C 8.070312 2.160156 8.070312 2.164062 8.066406 2.171875 C 8.0625 2.175781 8.0625 2.179688 8.0625 2.183594 C 8.0625 2.1875 8.0625 2.1875 8.0625 2.1875 C 8.066406 2.191406 8.066406 2.195312 8.066406 2.199219 C 8.066406 2.199219 8.066406 2.199219 8.066406 2.203125 C 8.234375 2.5 8.613281 3.054688 9.320312 3.40625 C 9.761719 3.632812 10.191406 3.707031 10.554688 3.71875 C 10.285156 3.753906 10 3.777344 9.703125 3.777344 C 9.058594 3.78125 8.417969 3.6875 7.796875 3.503906 C 7.585938 3.171875 7.109375 2.582031 6.265625 2.292969 C 5.519531 2.035156 4.855469 2.148438 4.527344 2.238281 C 4.523438 2.238281 4.523438 2.242188 4.523438 2.242188 C 4.519531 2.242188 4.519531 2.242188 4.515625 2.246094 C 4.511719 2.246094 4.511719 2.246094 4.511719 2.25 C 4.507812 2.25 4.503906 2.253906 4.503906 2.261719 C 4.5 2.265625 4.5 2.269531 4.5 2.273438 C 4.5 2.277344 4.5 2.277344 4.5 2.28125 C 4.503906 2.28125 4.503906 2.285156 4.503906 2.289062 C 4.503906 2.289062 4.503906 2.289062 4.503906 2.292969 C 4.6875 2.582031 5.097656 3.113281 5.820312 3.425781 C 6.242188 3.609375 6.648438 3.671875 6.992188 3.671875 C 7.316406 3.671875 7.585938 3.617188 7.769531 3.570312 C 8.027344 3.644531 8.292969 3.707031 8.554688 3.75 C 7.414062 3.96875 6.25 4.070312 5.089844 4.046875 C 4.304688 4.03125 3.511719 3.960938 2.730469 3.835938 C 2.707031 3.832031 2.6875 3.847656 2.6875 3.871094 C 2.6875 3.882812 2.695312 3.898438 2.707031 3.902344 C 2.710938 3.902344 2.714844 3.90625 2.714844 3.90625 C 3.5 4.03125 4.300781 4.101562 5.089844 4.117188 C 5.191406 4.117188 5.296875 4.121094 5.398438 4.121094 C 5.554688 4.121094 5.707031 4.117188 5.859375 4.113281 C 5.558594 4.183594 5.265625 4.289062 4.984375 4.425781 C 4.605469 4.613281 4.257812 4.859375 3.953125 5.152344 C 3.9375 5.167969 3.9375 5.191406 3.953125 5.203125 C 3.957031 5.210938 3.96875 5.214844 3.976562 5.214844 C 3.984375 5.214844 3.996094 5.210938 4 5.203125 C 4.300781 4.914062 4.644531 4.671875 5.015625 4.488281 C 5.476562 4.261719 5.972656 4.125 6.484375 4.085938 C 6.488281 4.085938 6.488281 4.082031 6.492188 4.082031 C 7.253906 4.035156 8.011719 3.933594 8.757812 3.78125 C 9.066406 3.824219 9.375 3.847656 9.683594 3.847656 C 9.691406 3.847656 9.699219 3.847656 9.703125 3.847656 C 9.789062 3.847656 9.871094 3.84375 9.949219 3.839844 C 9.617188 3.941406 9.242188 4.117188 8.886719 4.421875 C 8.289062 4.9375 8.050781 5.566406 7.964844 5.894531 C 7.964844 5.894531 7.964844 5.898438 7.964844 5.898438 C 7.964844 5.902344 7.964844 5.90625 7.964844 5.90625 C 7.964844 5.910156 7.964844 5.910156 7.964844 5.914062 C 7.964844 5.917969 7.96875 5.921875 7.972656 5.925781 C 7.972656 5.929688 7.976562 5.933594 7.984375 5.9375 C 7.988281 5.9375 7.992188 5.9375 7.996094 5.9375 C 7.996094 5.9375 7.996094 5.9375 8 5.9375 C 8.339844 5.929688 9.007812 5.839844 9.644531 5.375 C 10.371094 4.847656 10.648438 4.136719 10.75 3.757812 C 10.929688 3.730469 11.101562 3.695312 11.269531 3.65625 C 11.894531 3.503906 12.410156 3.285156 12.789062 3.085938 C 12.808594 3.078125 12.8125 3.054688 12.804688 3.039062 C 12.796875 3.023438 12.773438 3.015625 12.757812 3.023438 Z M 6.242188 2.359375 C 7.003906 2.621094 7.457031 3.128906 7.683594 3.460938 L 4.648438 2.28125 C 4.996094 2.199219 5.585938 2.132812 6.242188 2.359375 Z M 5.847656 3.363281 C 5.214844 3.085938 4.824219 2.636719 4.625 2.34375 L 7.660156 3.523438 C 7.265625 3.617188 6.585938 3.683594 5.847656 3.363281 Z M 9.796875 2.363281 C 10.542969 2.667969 10.964844 3.199219 11.175781 3.542969 L 8.210938 2.199219 C 8.5625 2.136719 9.15625 2.101562 9.796875 2.363281 Z M 8.183594 2.261719 L 11.148438 3.605469 C 10.75 3.675781 10.066406 3.707031 9.351562 3.347656 C 8.730469 3.035156 8.367188 2.5625 8.183594 2.261719 Z M 8.929688 4.476562 C 9.539062 3.953125 10.207031 3.816406 10.609375 3.789062 L 8.0625 5.808594 C 8.167969 5.472656 8.40625 4.925781 8.929688 4.476562 Z M 9.605469 5.320312 C 9.042969 5.726562 8.460938 5.839844 8.105469 5.863281 L 10.65625 3.84375 C 10.535156 4.226562 10.253906 4.847656 9.605469 5.320312 Z M 16.53125 2.917969 C 16.527344 2.933594 16.515625 2.941406 16.5 2.941406 C 16.496094 2.941406 16.492188 2.941406 16.488281 2.9375 C 16.484375 2.9375 16.480469 2.933594 16.476562 2.929688 C 16.457031 2.921875 16.453125 2.898438 16.464844 2.882812 C 16.472656 2.867188 16.496094 2.863281 16.511719 2.871094 C 16.527344 2.878906 16.539062 2.902344 16.53125 2.917969 Z M 26.835938 3.835938 C 26.054688 3.960938 25.261719 4.03125 24.476562 4.046875 C 23.316406 4.070312 22.148438 3.96875 21 3.75 C 21.261719 3.703125 21.519531 3.644531 21.773438 3.570312 C 21.957031 3.617188 22.230469 3.671875 22.550781 3.671875 C 22.898438 3.671875 23.300781 3.609375 23.722656 3.425781 C 24.445312 3.113281 24.859375 2.582031 25.039062 2.292969 C 25.039062 2.289062 25.039062 2.289062 25.039062 2.289062 C 25.042969 2.285156 25.042969 2.28125 25.042969 2.28125 C 25.042969 2.277344 25.042969 2.277344 25.042969 2.273438 C 25.042969 2.269531 25.042969 2.265625 25.042969 2.261719 C 25.039062 2.253906 25.039062 2.25 25.035156 2.25 C 25.03125 2.246094 25.03125 2.246094 25.03125 2.246094 C 25.027344 2.242188 25.023438 2.242188 25.019531 2.242188 C 25.019531 2.242188 25.019531 2.238281 25.019531 2.238281 C 24.6875 2.148438 24.023438 2.035156 23.28125 2.292969 C 22.433594 2.582031 21.960938 3.171875 21.75 3.503906 C 21.128906 3.6875 20.484375 3.78125 19.839844 3.777344 C 19.542969 3.777344 19.261719 3.753906 18.992188 3.71875 C 19.351562 3.707031 19.785156 3.628906 20.226562 3.40625 C 20.929688 3.054688 21.3125 2.5 21.476562 2.203125 C 21.476562 2.199219 21.476562 2.199219 21.476562 2.199219 C 21.480469 2.195312 21.480469 2.191406 21.480469 2.1875 C 21.480469 2.1875 21.480469 2.1875 21.480469 2.183594 C 21.480469 2.179688 21.480469 2.175781 21.480469 2.171875 C 21.476562 2.164062 21.472656 2.160156 21.46875 2.160156 C 21.46875 2.15625 21.46875 2.15625 21.464844 2.15625 C 21.464844 2.152344 21.460938 2.152344 21.457031 2.152344 C 21.457031 2.152344 21.457031 2.152344 21.453125 2.152344 C 21.121094 2.078125 20.449219 2.003906 19.71875 2.300781 C 18.902344 2.632812 18.460938 3.234375 18.265625 3.582031 C 17.671875 3.433594 17.179688 3.226562 16.8125 3.039062 C 16.796875 3.027344 16.777344 3.035156 16.765625 3.050781 C 16.757812 3.070312 16.765625 3.089844 16.78125 3.097656 C 17.15625 3.292969 17.664062 3.503906 18.277344 3.65625 C 18.277344 3.65625 18.277344 3.65625 18.28125 3.65625 C 18.445312 3.695312 18.617188 3.730469 18.792969 3.757812 C 18.894531 4.136719 19.171875 4.847656 19.898438 5.375 C 20.535156 5.839844 21.203125 5.929688 21.546875 5.9375 C 21.550781 5.9375 21.558594 5.9375 21.5625 5.9375 C 21.566406 5.933594 21.570312 5.929688 21.574219 5.925781 C 21.578125 5.921875 21.578125 5.917969 21.582031 5.914062 C 21.582031 5.910156 21.582031 5.910156 21.582031 5.910156 C 21.582031 5.90625 21.582031 5.902344 21.582031 5.898438 C 21.582031 5.898438 21.582031 5.894531 21.582031 5.894531 C 21.492188 5.566406 21.257812 4.9375 20.660156 4.421875 C 20.304688 4.117188 19.929688 3.941406 19.59375 3.839844 C 19.675781 3.84375 19.757812 3.847656 19.839844 3.847656 C 19.847656 3.847656 19.855469 3.847656 19.863281 3.847656 C 20.175781 3.847656 20.488281 3.824219 20.800781 3.78125 C 20.800781 3.78125 20.800781 3.78125 20.804688 3.78125 C 21.527344 3.929688 22.257812 4.027344 22.992188 4.078125 C 22.996094 4.082031 23.003906 4.085938 23.011719 4.085938 C 23.523438 4.125 24.019531 4.261719 24.480469 4.488281 C 24.851562 4.671875 25.195312 4.914062 25.496094 5.203125 C 25.5 5.210938 25.511719 5.214844 25.519531 5.214844 C 25.527344 5.214844 25.535156 5.210938 25.542969 5.203125 C 25.558594 5.191406 25.558594 5.167969 25.542969 5.152344 C 25.238281 4.859375 24.890625 4.613281 24.507812 4.425781 C 24.226562 4.285156 23.929688 4.179688 23.621094 4.109375 C 23.804688 4.117188 23.984375 4.121094 24.167969 4.121094 C 24.273438 4.121094 24.375 4.117188 24.480469 4.117188 C 25.269531 4.101562 26.066406 4.03125 26.851562 3.90625 C 26.855469 3.90625 26.859375 3.902344 26.859375 3.902344 C 26.875 3.894531 26.882812 3.882812 26.882812 3.871094 C 26.882812 3.847656 26.859375 3.832031 26.835938 3.835938 Z M 20.195312 3.347656 C 19.476562 3.707031 18.796875 3.675781 18.398438 3.605469 L 21.363281 2.261719 C 21.179688 2.566406 20.8125 3.035156 20.195312 3.347656 Z M 19.746094 2.363281 C 20.390625 2.101562 20.984375 2.136719 21.332031 2.199219 L 18.367188 3.542969 C 18.578125 3.199219 19.003906 2.667969 19.746094 2.363281 Z M 18.890625 3.84375 L 21.441406 5.863281 C 21.085938 5.839844 20.5 5.726562 19.941406 5.320312 C 19.292969 4.847656 19.011719 4.226562 18.890625 3.84375 Z M 21.484375 5.808594 L 18.933594 3.789062 C 19.335938 3.816406 20.007812 3.953125 20.613281 4.476562 C 21.140625 4.925781 21.378906 5.472656 21.484375 5.808594 Z M 23.695312 3.363281 C 22.960938 3.683594 22.28125 3.617188 21.886719 3.523438 L 24.921875 2.34375 C 24.71875 2.636719 24.332031 3.085938 23.695312 3.363281 Z M 23.300781 2.359375 C 23.957031 2.132812 24.550781 2.199219 24.894531 2.28125 L 21.859375 3.460938 C 22.089844 3.128906 22.542969 2.621094 23.300781 2.359375 Z M 23.300781 2.359375 " fill-opacity="1" fill-rule="nonzero"/></g><g clip-path="url(#53f7de4a92)"><path fill="#d79034" d="M 15.140625 1.078125 C 14.933594 1.253906 14.835938 1.480469 14.789062 1.679688 C 14.746094 1.484375 14.648438 1.253906 14.4375 1.078125 C 13.976562 0.6875 13.246094 0.820312 12.855469 1.1875 C 12.554688 1.472656 12.429688 1.933594 12.511719 2.484375 C 12.539062 2.660156 12.585938 2.828125 12.742188 3.074219 C 12.914062 3.339844 13.207031 3.699219 13.789062 4.347656 C 14.109375 4.703125 14.429688 5.046875 14.761719 5.402344 C 14.769531 5.410156 14.78125 5.414062 14.789062 5.414062 C 14.800781 5.414062 14.808594 5.410156 14.816406 5.402344 C 15.132812 5.066406 15.460938 4.710938 15.789062 4.347656 C 16.363281 3.707031 16.65625 3.351562 16.828125 3.085938 C 16.992188 2.832031 17.042969 2.660156 17.066406 2.484375 C 17.148438 1.933594 17.027344 1.472656 16.722656 1.1875 C 16.332031 0.820312 15.605469 0.691406 15.140625 1.078125 Z M 14.449219 1.25 C 14.652344 1.417969 14.722656 1.65625 14.746094 1.832031 L 14.753906 1.902344 C 14.753906 1.914062 14.753906 1.925781 14.753906 1.9375 L 14.753906 1.972656 C 14.753906 1.976562 14.75 1.980469 14.753906 1.988281 C 14.753906 2 14.753906 2.015625 14.753906 2.027344 C 14.753906 2.03125 14.753906 2.03125 14.753906 2.035156 C 14.753906 2.035156 14.753906 2.039062 14.753906 2.039062 C 14.753906 2.042969 14.753906 2.042969 14.753906 2.046875 C 14.753906 2.199219 14.699219 2.351562 14.601562 2.46875 C 14.484375 2.605469 14.324219 2.6875 14.148438 2.703125 C 14.007812 2.71875 13.871094 2.675781 13.765625 2.585938 C 13.65625 2.496094 13.59375 2.367188 13.578125 2.230469 C 13.558594 2.003906 13.726562 1.804688 13.953125 1.785156 C 14.132812 1.769531 14.289062 1.898438 14.304688 2.078125 C 14.316406 2.214844 14.214844 2.335938 14.078125 2.347656 C 13.96875 2.359375 13.875 2.277344 13.867188 2.171875 C 13.863281 2.152344 13.847656 2.140625 13.828125 2.140625 C 13.808594 2.140625 13.792969 2.160156 13.796875 2.179688 C 13.808594 2.324219 13.9375 2.429688 14.082031 2.417969 C 14.257812 2.402344 14.390625 2.246094 14.375 2.070312 C 14.355469 1.855469 14.164062 1.695312 13.949219 1.714844 C 13.683594 1.738281 13.488281 1.972656 13.511719 2.234375 C 13.539062 2.542969 13.796875 2.777344 14.101562 2.777344 C 14.121094 2.777344 14.136719 2.777344 14.15625 2.773438 C 14.351562 2.757812 14.527344 2.664062 14.652344 2.515625 C 14.714844 2.441406 14.761719 2.355469 14.789062 2.269531 C 14.816406 2.355469 14.863281 2.441406 14.925781 2.515625 C 15.050781 2.664062 15.230469 2.757812 15.425781 2.773438 C 15.441406 2.777344 15.460938 2.777344 15.476562 2.777344 C 15.78125 2.777344 16.042969 2.542969 16.070312 2.234375 C 16.09375 1.972656 15.894531 1.738281 15.632812 1.714844 C 15.414062 1.695312 15.222656 1.855469 15.203125 2.070312 C 15.1875 2.246094 15.320312 2.402344 15.496094 2.417969 C 15.566406 2.425781 15.636719 2.402344 15.691406 2.355469 C 15.742188 2.3125 15.777344 2.25 15.78125 2.179688 C 15.785156 2.160156 15.769531 2.140625 15.75 2.140625 C 15.730469 2.140625 15.714844 2.152344 15.714844 2.171875 C 15.707031 2.222656 15.683594 2.269531 15.644531 2.304688 C 15.605469 2.335938 15.554688 2.351562 15.503906 2.347656 C 15.363281 2.335938 15.261719 2.214844 15.273438 2.078125 C 15.289062 1.898438 15.445312 1.769531 15.625 1.785156 C 15.851562 1.804688 16.019531 2.003906 16 2.230469 C 15.988281 2.367188 15.921875 2.496094 15.8125 2.585938 C 15.707031 2.675781 15.570312 2.71875 15.429688 2.703125 C 15.253906 2.6875 15.09375 2.605469 14.980469 2.46875 C 14.878906 2.347656 14.824219 2.199219 14.824219 2.042969 C 14.824219 2.042969 14.824219 2.042969 14.824219 2.039062 C 14.824219 2.039062 14.824219 2.035156 14.824219 2.03125 C 14.824219 2.015625 14.824219 2 14.828125 1.988281 C 14.828125 1.980469 14.828125 1.976562 14.824219 1.972656 C 14.824219 1.960938 14.824219 1.953125 14.824219 1.941406 C 14.824219 1.9375 14.824219 1.9375 14.824219 1.933594 C 14.828125 1.925781 14.828125 1.914062 14.828125 1.898438 C 14.828125 1.878906 14.832031 1.855469 14.835938 1.828125 C 14.859375 1.660156 14.925781 1.417969 15.132812 1.25 C 15.5 0.941406 16.082031 1.046875 16.394531 1.339844 C 16.640625 1.570312 16.738281 1.941406 16.671875 2.390625 C 16.648438 2.535156 16.609375 2.675781 16.472656 2.886719 C 16.324219 3.113281 16.082031 3.410156 15.59375 3.949219 C 15.335938 4.238281 15.074219 4.523438 14.789062 4.824219 C 14.511719 4.53125 14.25 4.242188 13.984375 3.949219 C 13.105469 2.96875 12.957031 2.726562 12.910156 2.390625 C 12.84375 1.941406 12.941406 1.570312 13.183594 1.339844 C 13.363281 1.167969 13.636719 1.0625 13.90625 1.0625 C 14.101562 1.0625 14.292969 1.117188 14.449219 1.25 Z M 17 2.472656 C 16.972656 2.644531 16.925781 2.804688 16.769531 3.050781 C 16.597656 3.3125 16.308594 3.664062 15.738281 4.300781 C 15.417969 4.65625 15.097656 5.003906 14.789062 5.328125 C 14.464844 4.984375 14.152344 4.648438 13.84375 4.300781 C 13.261719 3.652344 12.96875 3.300781 12.804688 3.035156 C 12.652344 2.800781 12.605469 2.640625 12.582031 2.472656 C 12.503906 1.945312 12.617188 1.507812 12.90625 1.238281 C 13.117188 1.035156 13.4375 0.910156 13.753906 0.910156 C 13.972656 0.910156 14.1875 0.972656 14.367188 1.109375 C 13.972656 0.890625 13.4375 1.007812 13.136719 1.289062 C 12.875 1.535156 12.769531 1.929688 12.839844 2.402344 C 12.890625 2.75 13.039062 3.003906 13.933594 3.996094 C 14.207031 4.300781 14.476562 4.59375 14.761719 4.898438 C 14.769531 4.902344 14.78125 4.90625 14.789062 4.90625 C 14.800781 4.90625 14.808594 4.902344 14.816406 4.898438 C 15.109375 4.585938 15.378906 4.292969 15.644531 3.996094 C 16.132812 3.453125 16.382812 3.152344 16.53125 2.925781 C 16.671875 2.703125 16.71875 2.554688 16.742188 2.402344 C 16.808594 1.929688 16.703125 1.535156 16.445312 1.289062 C 16.144531 1.007812 15.609375 0.890625 15.214844 1.109375 C 15.652344 0.773438 16.316406 0.898438 16.675781 1.238281 C 16.960938 1.507812 17.074219 1.945312 17 2.472656 Z M 1.847656 2.878906 C 1.480469 2.761719 1.144531 2.796875 0.929688 2.847656 C 0.839844 2.867188 0.765625 2.929688 0.730469 3.015625 C 0.699219 3.101562 0.707031 3.195312 0.757812 3.273438 C 0.769531 3.292969 0.785156 3.3125 0.796875 3.332031 C 0.769531 3.34375 0.742188 3.355469 0.71875 3.367188 C 0.636719 3.410156 0.582031 3.488281 0.570312 3.582031 C 0.558594 3.671875 0.589844 3.761719 0.65625 3.824219 C 0.820312 3.972656 1.09375 4.167969 1.476562 4.246094 C 1.589844 4.269531 1.703125 4.28125 1.808594 4.28125 C 2.136719 4.28125 2.414062 4.183594 2.605469 4.085938 C 2.683594 4.046875 2.738281 3.96875 2.753906 3.882812 C 2.765625 3.867188 2.773438 3.851562 2.78125 3.832031 C 2.816406 3.746094 2.804688 3.648438 2.753906 3.570312 C 2.597656 3.335938 2.308594 3.027344 1.847656 2.878906 Z M 0.816406 3.238281 C 0.777344 3.179688 0.769531 3.105469 0.796875 3.042969 C 0.824219 2.976562 0.875 2.929688 0.945312 2.914062 C 1.050781 2.890625 1.183594 2.871094 1.335938 2.871094 C 1.488281 2.871094 1.652344 2.890625 1.828125 2.945312 C 2.269531 3.085938 2.542969 3.382812 2.695312 3.609375 C 2.71875 3.640625 2.730469 3.679688 2.730469 3.714844 C 2.714844 3.679688 2.695312 3.652344 2.664062 3.625 C 2.453125 3.4375 2.101562 3.207031 1.617188 3.175781 C 1.316406 3.15625 1.054688 3.222656 0.863281 3.304688 C 0.847656 3.28125 0.832031 3.257812 0.816406 3.238281 Z M 2.6875 3.855469 C 2.660156 3.894531 2.617188 3.921875 2.566406 3.933594 C 2.300781 3.992188 1.894531 4.019531 1.476562 3.820312 C 1.214844 3.695312 1.03125 3.515625 0.90625 3.359375 C 1.066406 3.296875 1.273438 3.242188 1.515625 3.242188 C 1.546875 3.242188 1.582031 3.242188 1.613281 3.246094 C 2.078125 3.273438 2.417969 3.496094 2.621094 3.679688 C 2.671875 3.722656 2.695312 3.789062 2.6875 3.855469 Z M 2.574219 4.023438 C 2.328125 4.144531 1.945312 4.269531 1.488281 4.179688 C 1.125 4.105469 0.863281 3.917969 0.703125 3.773438 C 0.652344 3.726562 0.628906 3.660156 0.636719 3.589844 C 0.648438 3.519531 0.6875 3.460938 0.75 3.429688 C 0.777344 3.417969 0.808594 3.402344 0.839844 3.386719 C 0.96875 3.554688 1.164062 3.746094 1.449219 3.882812 C 1.703125 4.003906 1.957031 4.046875 2.175781 4.046875 C 2.328125 4.046875 2.46875 4.027344 2.582031 4 C 2.597656 4 2.609375 3.992188 2.621094 3.988281 C 2.609375 4.003906 2.589844 4.015625 2.574219 4.023438 Z M 29 3.582031 C 28.984375 3.488281 28.933594 3.410156 28.847656 3.367188 C 28.824219 3.355469 28.796875 3.34375 28.769531 3.332031 C 28.785156 3.3125 28.796875 3.292969 28.808594 3.273438 C 28.859375 3.195312 28.871094 3.101562 28.835938 3.015625 C 28.800781 2.929688 28.730469 2.867188 28.636719 2.847656 C 28.421875 2.796875 28.085938 2.761719 27.71875 2.878906 C 27.257812 3.027344 26.972656 3.335938 26.8125 3.570312 C 26.761719 3.648438 26.75 3.746094 26.785156 3.832031 C 26.792969 3.851562 26.800781 3.867188 26.8125 3.882812 C 26.828125 3.96875 26.882812 4.046875 26.964844 4.085938 C 27.15625 4.183594 27.433594 4.28125 27.761719 4.28125 C 27.867188 4.28125 27.976562 4.269531 28.09375 4.246094 C 28.472656 4.167969 28.746094 3.972656 28.910156 3.824219 C 28.980469 3.761719 29.011719 3.671875 29 3.582031 Z M 26.871094 3.609375 C 27.023438 3.382812 27.296875 3.085938 27.738281 2.945312 C 27.914062 2.890625 28.082031 2.871094 28.230469 2.871094 C 28.382812 2.871094 28.515625 2.890625 28.621094 2.914062 C 28.691406 2.929688 28.746094 2.976562 28.769531 3.042969 C 28.796875 3.105469 28.789062 3.179688 28.75 3.238281 C 28.738281 3.257812 28.722656 3.28125 28.703125 3.304688 C 28.511719 3.222656 28.253906 3.15625 27.949219 3.175781 C 27.464844 3.207031 27.113281 3.4375 26.902344 3.625 C 26.875 3.652344 26.851562 3.679688 26.835938 3.714844 C 26.839844 3.679688 26.847656 3.640625 26.871094 3.609375 Z M 26.878906 3.855469 C 26.871094 3.789062 26.898438 3.722656 26.949219 3.679688 C 27.152344 3.496094 27.488281 3.273438 27.953125 3.246094 C 27.988281 3.242188 28.019531 3.242188 28.054688 3.242188 C 28.292969 3.242188 28.5 3.296875 28.660156 3.359375 C 28.535156 3.515625 28.351562 3.695312 28.089844 3.820312 C 27.671875 4.019531 27.265625 3.992188 27 3.933594 C 26.949219 3.921875 26.910156 3.894531 26.878906 3.855469 Z M 28.863281 3.773438 C 28.707031 3.917969 28.441406 4.105469 28.078125 4.179688 C 27.625 4.269531 27.238281 4.144531 26.996094 4.023438 C 26.976562 4.015625 26.960938 4.003906 26.945312 3.988281 C 26.957031 3.992188 26.972656 4 26.984375 4 C 27.097656 4.027344 27.238281 4.046875 27.390625 4.046875 C 27.613281 4.046875 27.863281 4.003906 28.121094 3.882812 C 28.402344 3.746094 28.597656 3.554688 28.726562 3.386719 C 28.757812 3.402344 28.789062 3.417969 28.816406 3.429688 C 28.878906 3.460938 28.921875 3.519531 28.929688 3.589844 C 28.9375 3.660156 28.914062 3.726562 28.863281 3.773438 Z M 3.664062 5.003906 C 3.421875 5.003906 3.222656 5.203125 3.222656 5.445312 C 3.222656 5.6875 3.421875 5.882812 3.664062 5.882812 C 3.910156 5.882812 4.105469 5.6875 4.105469 5.445312 C 4.105469 5.203125 3.910156 5.003906 3.664062 5.003906 Z M 3.664062 5.816406 C 3.460938 5.816406 3.292969 5.648438 3.292969 5.445312 C 3.292969 5.238281 3.460938 5.074219 3.664062 5.074219 C 3.871094 5.074219 4.035156 5.238281 4.035156 5.445312 C 4.035156 5.648438 3.871094 5.816406 3.664062 5.816406 Z M 25.832031 5.003906 C 25.585938 5.003906 25.390625 5.203125 25.390625 5.445312 C 25.390625 5.6875 25.585938 5.882812 25.832031 5.882812 C 26.074219 5.882812 26.273438 5.6875 26.273438 5.445312 C 26.273438 5.203125 26.074219 5.003906 25.832031 5.003906 Z M 25.832031 5.816406 C 25.625 5.816406 25.460938 5.648438 25.460938 5.445312 C 25.460938 5.238281 25.625 5.074219 25.832031 5.074219 C 26.035156 5.074219 26.203125 5.238281 26.203125 5.445312 C 26.203125 5.648438 26.035156 5.816406 25.832031 5.816406 Z M 25.832031 5.816406 " fill-opacity="1" fill-rule="nonzero"/></g></g></g></g><g clip-path="url(#94b2e41f26)"><path fill="#000000" d="M 62.222656 38.25 C 62.222656 38.953125 62.222656 39.496094 62.222656 40.039062 C 62.222656 40.457031 62.085938 40.820312 61.804688 41.136719 C 61.550781 41.421875 61.335938 41.738281 61.085938 42.03125 C 60.351562 42.882812 59.464844 43.535156 58.488281 44.074219 C 57.039062 44.878906 55.480469 45.402344 53.875 45.78125 C 52.472656 46.113281 51.0625 46.398438 49.636719 46.605469 C 49.070312 46.691406 48.496094 46.746094 47.921875 46.796875 C 46.441406 46.925781 44.960938 46.996094 43.472656 46.980469 C 42.507812 46.972656 41.546875 46.898438 40.582031 46.824219 C 39.851562 46.765625 39.117188 46.726562 38.398438 46.585938 C 37.914062 46.492188 37.4375 46.363281 36.960938 46.238281 C 36.8125 46.199219 36.703125 46.21875 36.574219 46.308594 C 35.136719 47.34375 33.570312 48.125 31.90625 48.71875 C 31.398438 48.898438 30.898438 49.101562 30.390625 49.28125 C 28.503906 49.964844 26.558594 50.398438 24.574219 50.660156 C 23.726562 50.773438 22.875 50.867188 22.019531 50.832031 C 20.777344 50.78125 19.535156 50.761719 18.308594 50.515625 C 16.746094 50.207031 15.273438 49.660156 13.871094 48.902344 C 13.425781 48.65625 13.117188 48.304688 12.925781 47.839844 C 12.582031 47.007812 12.375 46.132812 12.164062 45.261719 C 11.890625 44.144531 11.617188 43.027344 11.378906 41.902344 C 11.253906 41.328125 11.246094 40.734375 11.296875 40.144531 C 11.328125 39.761719 11.382812 39.382812 11.46875 39.007812 C 11.707031 37.964844 12.175781 37.027344 12.71875 36.117188 C 13.472656 34.847656 14.488281 33.8125 15.59375 32.863281 C 16.726562 31.886719 17.953125 31.042969 19.253906 30.308594 C 19.925781 29.929688 20.636719 29.628906 21.351562 29.339844 C 22.09375 29.039062 22.847656 28.78125 23.59375 28.488281 C 24.367188 28.191406 25.15625 27.949219 25.96875 27.785156 C 27.023438 27.566406 28.058594 27.265625 29.128906 27.121094 C 29.652344 27.046875 30.175781 26.976562 30.707031 26.976562 C 31.246094 26.972656 31.78125 26.953125 32.320312 26.960938 C 33.675781 26.988281 35 27.195312 36.292969 27.605469 C 36.558594 27.691406 36.824219 27.769531 37.085938 27.867188 C 37.214844 27.914062 37.332031 27.914062 37.464844 27.882812 C 38.179688 27.71875 38.894531 27.546875 39.613281 27.40625 C 40.433594 27.242188 41.265625 27.164062 42.097656 27.089844 C 42.726562 27.035156 43.355469 26.988281 43.984375 26.945312 C 44.226562 26.929688 44.46875 26.917969 44.710938 26.917969 C 45.40625 26.917969 46.101562 26.917969 46.796875 26.921875 C 49.207031 26.921875 51.578125 27.21875 53.898438 27.871094 C 55.519531 28.324219 57.085938 28.933594 58.558594 29.769531 C 59.511719 30.3125 60.246094 31.078125 60.886719 31.949219 C 61.21875 32.398438 61.511719 32.875 61.730469 33.394531 C 62 34.03125 62.136719 34.695312 62.15625 35.382812 C 62.179688 36.394531 62.25 37.402344 62.222656 38.253906 Z M 22.101562 50.589844 C 22.316406 50.589844 22.53125 50.597656 22.742188 50.585938 C 23.816406 50.519531 24.886719 50.402344 25.949219 50.207031 C 27.457031 49.929688 28.945312 49.589844 30.40625 49.101562 C 31.457031 48.75 32.460938 48.292969 33.46875 47.835938 C 35.316406 47 36.964844 45.871094 38.425781 44.457031 C 38.976562 43.925781 39.480469 43.351562 39.980469 42.773438 C 40.75 41.875 41.503906 40.960938 42.050781 39.898438 C 42.449219 39.125 42.808594 38.335938 43.078125 37.503906 C 43.1875 37.160156 43.234375 36.8125 43.09375 36.464844 C 42.601562 35.261719 42.199219 34.023438 41.742188 32.808594 C 41.417969 31.941406 41.046875 31.097656 40.585938 30.292969 C 40.421875 30.003906 40.210938 29.761719 39.9375 29.574219 C 39.492188 29.265625 39.046875 28.964844 38.5625 28.71875 C 36.535156 27.6875 34.386719 27.128906 32.109375 27.117188 C 31.632812 27.117188 31.160156 27.144531 30.6875 27.167969 C 30.058594 27.195312 29.429688 27.269531 28.808594 27.378906 C 27.847656 27.550781 26.90625 27.808594 25.949219 27.996094 C 25.054688 28.171875 24.1875 28.441406 23.339844 28.78125 C 22.847656 28.976562 22.351562 29.160156 21.855469 29.347656 C 20.957031 29.6875 20.085938 30.082031 19.25 30.542969 C 18.367188 31.03125 17.539062 31.597656 16.738281 32.207031 C 15.207031 33.367188 13.832031 34.683594 12.820312 36.34375 C 12.441406 36.96875 12.105469 37.613281 11.851562 38.296875 C 11.507812 39.230469 11.421875 40.207031 11.472656 41.199219 C 11.484375 41.441406 11.492188 41.6875 11.554688 41.921875 C 11.839844 43.042969 12.097656 44.171875 12.375 45.296875 C 12.5625 46.042969 12.734375 46.785156 12.976562 47.515625 C 13.160156 48.058594 13.476562 48.46875 13.980469 48.730469 C 14.261719 48.878906 14.542969 49.027344 14.824219 49.164062 C 15.90625 49.691406 17.023438 50.097656 18.21875 50.289062 C 19.507812 50.5 20.804688 50.546875 22.101562 50.589844 Z M 37.605469 28.023438 C 37.910156 28.210938 38.195312 28.324219 38.523438 28.191406 C 38.574219 28.171875 38.628906 28.167969 38.683594 28.15625 C 39.894531 27.90625 41.121094 27.753906 42.347656 27.636719 C 43.617188 27.515625 44.882812 27.425781 46.15625 27.441406 C 46.742188 27.445312 47.324219 27.488281 47.90625 27.527344 C 48.910156 27.601562 49.902344 27.71875 50.886719 27.910156 C 52.429688 28.210938 53.949219 28.621094 55.433594 29.121094 C 56.914062 29.621094 58.304688 30.304688 59.460938 31.394531 C 60.023438 31.929688 60.457031 32.550781 60.6875 33.304688 C 60.839844 33.8125 60.914062 34.332031 60.734375 34.847656 C 60.558594 35.355469 60.300781 35.816406 59.898438 36.1875 C 59.167969 36.863281 58.375 37.441406 57.46875 37.851562 C 55.976562 38.53125 54.429688 39.058594 52.828125 39.40625 C 51.683594 39.65625 50.523438 39.808594 49.359375 39.921875 C 48.136719 40.039062 46.917969 40.125 45.691406 40.132812 C 45.253906 40.136719 44.816406 40.117188 44.382812 40.144531 C 43.980469 40.171875 43.585938 40.140625 43.1875 40.128906 C 42.957031 40.125 42.726562 40.078125 42.492188 40.070312 C 42.277344 40.066406 42.152344 40.144531 42.054688 40.335938 C 41.792969 40.855469 41.453125 41.324219 41.101562 41.78125 C 40.617188 42.410156 40.089844 43.003906 39.570312 43.601562 C 39.085938 44.15625 38.570312 44.679688 38.011719 45.164062 C 37.738281 45.398438 37.453125 45.625 37.171875 45.855469 C 37.128906 45.890625 37.070312 45.921875 37.078125 45.984375 C 37.082031 46.058594 37.152344 46.054688 37.207031 46.066406 C 37.605469 46.15625 38 46.265625 38.402344 46.332031 C 39.179688 46.46875 39.96875 46.515625 40.753906 46.574219 C 41.957031 46.664062 43.160156 46.75 44.367188 46.726562 C 45.566406 46.699219 46.761719 46.65625 47.957031 46.550781 C 48.527344 46.5 49.101562 46.4375 49.671875 46.359375 C 50.65625 46.222656 51.628906 46.03125 52.601562 45.828125 C 53.875 45.566406 55.140625 45.265625 56.363281 44.816406 C 57.511719 44.394531 58.605469 43.871094 59.597656 43.140625 C 60.332031 42.601562 60.945312 41.945312 61.527344 41.25 C 61.867188 40.839844 62.039062 40.390625 62.035156 39.867188 C 62.03125 39.503906 62.042969 39.136719 62.035156 38.773438 C 62.019531 37.679688 61.984375 36.585938 61.984375 35.492188 C 61.984375 34.4375 61.675781 33.488281 61.117188 32.609375 C 60.734375 32 60.285156 31.441406 59.761719 30.945312 C 59.570312 30.769531 59.4375 30.539062 59.210938 30.394531 C 58.617188 30.007812 58.023438 29.625 57.375 29.34375 C 56.46875 28.949219 55.5625 28.570312 54.617188 28.285156 C 52.882812 27.765625 51.121094 27.402344 49.324219 27.242188 C 48.328125 27.15625 47.324219 27.097656 46.320312 27.113281 C 45.859375 27.121094 45.394531 27.105469 44.929688 27.101562 C 44.78125 27.101562 44.632812 27.105469 44.484375 27.117188 C 43.585938 27.1875 42.691406 27.253906 41.792969 27.335938 C 40.824219 27.425781 39.855469 27.527344 38.898438 27.738281 C 38.476562 27.828125 38.054688 27.921875 37.605469 28.023438 Z M 38.484375 28.367188 C 38.496094 28.441406 38.53125 28.460938 38.5625 28.472656 C 39.027344 28.695312 39.441406 28.996094 39.867188 29.28125 C 40.300781 29.574219 40.625 29.960938 40.878906 30.417969 C 41.308594 31.175781 41.652344 31.96875 41.9375 32.792969 C 42.066406 33.171875 42.21875 33.542969 42.355469 33.921875 C 42.402344 34.046875 42.472656 34.085938 42.609375 34.066406 C 43.640625 33.917969 44.679688 33.890625 45.71875 33.894531 C 46.0625 33.898438 46.40625 33.925781 46.75 33.933594 C 47.722656 33.960938 48.695312 34.027344 49.660156 34.175781 C 51.753906 34.496094 53.824219 34.925781 55.84375 35.578125 C 56.769531 35.875 57.660156 36.246094 58.449219 36.816406 C 58.636719 36.953125 58.667969 36.921875 58.808594 36.820312 C 59.230469 36.511719 59.621094 36.164062 59.96875 35.773438 C 60.226562 35.484375 60.4375 35.160156 60.511719 34.777344 C 60.636719 34.132812 60.542969 33.511719 60.273438 32.917969 C 59.90625 32.113281 59.382812 31.449219 58.617188 30.96875 C 57.753906 30.429688 56.878906 29.925781 55.917969 29.589844 C 54.332031 29.03125 52.707031 28.59375 51.066406 28.238281 C 49.828125 27.972656 48.574219 27.847656 47.3125 27.765625 C 46.011719 27.683594 44.714844 27.710938 43.417969 27.804688 C 42.503906 27.871094 41.589844 27.976562 40.675781 28.066406 C 39.945312 28.140625 39.222656 28.25 38.484375 28.367188 Z M 58.382812 37.085938 C 57.726562 36.558594 57.003906 36.238281 56.253906 35.992188 C 54.574219 35.441406 52.871094 34.988281 51.136719 34.65625 C 50.261719 34.484375 49.382812 34.328125 48.496094 34.25 C 47.164062 34.136719 45.828125 34.09375 44.488281 34.121094 C 43.886719 34.132812 43.285156 34.164062 42.683594 34.238281 C 42.507812 34.261719 42.492188 34.285156 42.550781 34.457031 C 42.769531 35.082031 42.949219 35.722656 43.21875 36.328125 C 43.335938 36.59375 43.367188 36.867188 43.339844 37.148438 C 43.304688 37.535156 43.175781 37.898438 43.027344 38.25 C 42.832031 38.726562 42.636719 39.199219 42.410156 39.664062 C 42.324219 39.84375 42.347656 39.878906 42.53125 39.894531 C 42.964844 39.929688 43.402344 39.949219 43.839844 39.933594 C 44.285156 39.921875 44.730469 39.898438 45.175781 39.898438 C 46.632812 39.890625 48.085938 39.8125 49.535156 39.671875 C 51.140625 39.519531 52.71875 39.25 54.269531 38.8125 C 55.53125 38.457031 56.757812 37.996094 57.925781 37.386719 C 58.078125 37.308594 58.238281 37.230469 58.382812 37.085938 Z M 58.382812 37.085938 " fill-opacity="1" fill-rule="nonzero"/></g><path fill="#000000" d="M 19.371094 45.539062 C 19.515625 45.433594 19.644531 45.445312 19.773438 45.445312 C 20.285156 45.445312 20.792969 45.453125 21.304688 45.445312 C 23.9375 45.398438 26.457031 44.835938 28.878906 43.800781 C 29.195312 43.664062 29.511719 43.53125 29.828125 43.394531 C 29.976562 43.328125 30.125 43.246094 30.28125 43.171875 C 30.242188 43.054688 30.148438 43.050781 30.078125 43.023438 C 29.503906 42.796875 29.074219 42.394531 28.730469 41.890625 C 28.652344 41.769531 28.613281 41.644531 28.601562 41.496094 C 28.558594 40.828125 28.5 40.15625 28.453125 39.484375 C 28.433594 39.207031 28.433594 38.925781 28.429688 38.644531 C 28.417969 38.019531 28.4375 37.390625 28.394531 36.765625 C 28.351562 36.066406 28.425781 35.363281 28.457031 34.664062 C 28.480469 34.136719 28.714844 33.65625 29 33.207031 C 29.054688 33.121094 29.128906 33.050781 29.15625 32.941406 C 29.09375 32.867188 29.019531 32.910156 28.957031 32.925781 C 27.609375 33.25 26.28125 33.648438 24.984375 34.132812 C 23.433594 34.71875 21.9375 35.417969 20.511719 36.269531 C 19.394531 36.933594 18.335938 37.671875 17.433594 38.617188 C 16.695312 39.386719 16.085938 40.257812 15.511719 41.15625 C 15.078125 41.835938 14.730469 42.554688 14.519531 43.339844 C 14.503906 43.410156 14.496094 43.488281 14.410156 43.535156 C 14.300781 43.449219 14.339844 43.332031 14.355469 43.230469 C 14.4375 42.71875 14.585938 42.222656 14.839844 41.773438 C 15.632812 40.382812 16.539062 39.074219 17.722656 37.980469 C 18.589844 37.175781 19.5625 36.527344 20.582031 35.941406 C 23.027344 34.527344 25.632812 33.5 28.359375 32.785156 C 29.304688 32.539062 30.269531 32.417969 31.246094 32.351562 C 32.109375 32.296875 32.972656 32.292969 33.835938 32.308594 C 35.28125 32.339844 36.703125 32.546875 38.09375 32.949219 C 38.648438 33.113281 39.167969 33.355469 39.664062 33.65625 C 39.703125 33.679688 39.742188 33.707031 39.78125 33.730469 C 39.882812 33.800781 39.9375 33.761719 39.957031 33.652344 C 39.96875 33.550781 39.972656 33.449219 39.984375 33.347656 C 39.992188 33.300781 40 33.253906 40.066406 33.222656 C 40.175781 33.335938 40.148438 33.476562 40.132812 33.609375 C 40.03125 34.398438 39.78125 35.136719 39.402344 35.832031 C 38.683594 37.136719 37.757812 38.273438 36.648438 39.261719 C 35.925781 39.90625 35.191406 40.535156 34.398438 41.097656 C 33.488281 41.738281 32.511719 42.25 31.511719 42.726562 C 31.070312 42.941406 30.625 43.152344 30.183594 43.375 C 28.371094 44.289062 26.46875 44.9375 24.480469 45.324219 C 23.585938 45.496094 22.683594 45.597656 21.773438 45.644531 C 21.140625 45.675781 20.511719 45.664062 19.878906 45.628906 C 19.71875 45.621094 19.558594 45.601562 19.367188 45.539062 Z M 32.800781 32.554688 C 32.398438 32.550781 31.652344 32.609375 30.902344 32.648438 C 30.621094 32.664062 30.472656 32.78125 30.375 33.011719 C 30.34375 33.089844 30.3125 33.167969 30.292969 33.25 C 30.144531 33.800781 30.171875 34.339844 30.386719 34.871094 C 30.761719 35.816406 31.441406 36.503906 32.261719 37.066406 C 32.371094 37.140625 32.460938 37.125 32.566406 37.054688 C 34.183594 36.023438 35.90625 35.230469 37.742188 34.683594 C 38.347656 34.503906 38.949219 34.304688 39.574219 34.214844 C 39.671875 34.203125 39.804688 34.238281 39.832031 34.101562 C 39.855469 33.972656 39.722656 33.945312 39.640625 33.890625 C 38.910156 33.402344 38.089844 33.140625 37.242188 32.957031 C 35.894531 32.664062 34.527344 32.554688 32.800781 32.554688 Z M 28.640625 35.207031 C 28.628906 35.789062 28.597656 36.363281 28.597656 36.945312 C 28.605469 38.441406 28.65625 39.933594 28.738281 41.429688 C 28.742188 41.523438 28.746094 41.613281 28.804688 41.695312 C 29.214844 42.273438 29.746094 42.695312 30.398438 42.964844 C 30.515625 43.015625 30.628906 43.007812 30.742188 42.9375 C 31.195312 42.664062 31.695312 42.480469 32.164062 42.226562 C 33.1875 41.671875 34.167969 41.046875 35.09375 40.339844 C 35.160156 40.289062 35.253906 40.257812 35.273438 40.140625 C 35.210938 40.132812 35.167969 40.125 35.121094 40.121094 C 34.5 40.058594 33.886719 39.976562 33.289062 39.78125 C 32.238281 39.4375 31.308594 38.886719 30.492188 38.144531 C 29.609375 37.339844 28.902344 36.417969 28.640625 35.207031 Z M 36.910156 38.746094 C 36.902344 38.726562 36.890625 38.707031 36.878906 38.6875 C 36.394531 38.671875 35.921875 38.589844 35.445312 38.503906 C 33.949219 38.242188 32.574219 37.703125 31.421875 36.667969 C 30.855469 36.160156 30.417969 35.5625 30.164062 34.847656 C 29.917969 34.164062 29.941406 33.488281 30.277344 32.835938 C 30.289062 32.816406 30.277344 32.785156 30.277344 32.746094 C 30.097656 32.695312 29.929688 32.777344 29.757812 32.78125 C 29.597656 32.785156 29.480469 32.867188 29.378906 32.988281 C 28.925781 33.523438 28.777344 34.164062 28.816406 34.84375 C 28.84375 35.300781 29 35.738281 29.207031 36.152344 C 29.578125 36.898438 30.101562 37.523438 30.722656 38.066406 C 31.652344 38.875 32.695312 39.453125 33.894531 39.75 C 34.390625 39.871094 34.898438 39.914062 35.40625 39.980469 C 35.519531 39.996094 35.597656 39.9375 35.675781 39.871094 C 35.96875 39.609375 36.261719 39.351562 36.554688 39.089844 C 36.675781 38.980469 36.792969 38.863281 36.910156 38.746094 Z M 36.96875 38.515625 C 37.097656 38.542969 37.183594 38.472656 37.265625 38.390625 C 37.5625 38.09375 37.832031 37.773438 38.085938 37.441406 C 38.722656 36.609375 39.308594 35.746094 39.65625 34.742188 C 39.6875 34.648438 39.773438 34.542969 39.699219 34.453125 C 39.625 34.359375 39.507812 34.425781 39.414062 34.449219 C 38.144531 34.742188 36.910156 35.140625 35.703125 35.632812 C 34.683594 36.042969 33.71875 36.566406 32.765625 37.109375 C 32.554688 37.230469 32.558594 37.273438 32.777344 37.402344 C 32.96875 37.515625 33.167969 37.613281 33.375 37.699219 C 34.527344 38.175781 35.738281 38.402344 36.96875 38.515625 Z M 36.96875 38.515625 " fill-opacity="1" fill-rule="nonzero"/><path fill="#000000" d="M 41.207031 32.828125 C 41.328125 32.988281 41.316406 33.117188 41.300781 33.246094 C 41.222656 34.101562 40.984375 34.914062 40.671875 35.707031 C 40.234375 36.828125 39.5625 37.792969 38.769531 38.683594 C 37.667969 39.929688 36.457031 41.058594 35.132812 42.058594 C 34.558594 42.492188 33.953125 42.871094 33.324219 43.21875 C 33.253906 43.257812 33.183594 43.308594 33.082031 43.296875 C 33.054688 43.214844 33.117188 43.179688 33.164062 43.144531 C 33.324219 43.035156 33.488281 42.929688 33.65625 42.828125 C 35.4375 41.765625 36.96875 40.402344 38.359375 38.871094 C 38.835938 38.347656 39.296875 37.808594 39.6875 37.214844 C 40.4375 36.066406 40.910156 34.808594 41.125 33.449219 C 41.152344 33.261719 41.113281 33.0625 41.207031 32.828125 Z M 41.207031 32.828125 " fill-opacity="1" fill-rule="nonzero"/><path fill="#000000" d="M 22.691406 46.535156 C 22.84375 46.421875 22.984375 46.417969 23.117188 46.390625 C 24.167969 46.203125 25.230469 46.082031 26.269531 45.847656 C 28.136719 45.425781 29.902344 44.71875 31.605469 43.851562 C 31.726562 43.789062 31.84375 43.707031 32 43.675781 C 32.007812 43.765625 31.9375 43.789062 31.890625 43.820312 C 31.496094 44.085938 31.066406 44.285156 30.640625 44.492188 C 29.253906 45.160156 27.824219 45.695312 26.324219 46.042969 C 25.257812 46.289062 24.167969 46.425781 23.085938 46.574219 C 22.96875 46.589844 22.847656 46.605469 22.691406 46.535156 Z M 22.691406 46.535156 " fill-opacity="1" fill-rule="nonzero"/><g clip-path="url(#9db7dc9245)"><path fill="#000000" d="M 21.167969 46.683594 C 21.058594 46.804688 20.929688 46.8125 20.804688 46.792969 C 20.34375 46.730469 19.878906 46.769531 19.417969 46.710938 C 18.53125 46.601562 17.65625 46.445312 16.800781 46.191406 C 16 45.953125 15.210938 45.671875 14.449219 45.328125 C 13.671875 44.972656 12.964844 44.515625 12.453125 43.808594 C 12.277344 43.566406 12.136719 43.304688 11.980469 43.046875 C 11.949219 42.996094 11.90625 42.9375 11.941406 42.867188 C 12.015625 42.824219 12.039062 42.890625 12.070312 42.929688 C 12.136719 43.027344 12.207031 43.128906 12.265625 43.234375 C 12.746094 44.105469 13.484375 44.679688 14.355469 45.097656 C 15.144531 45.472656 15.957031 45.804688 16.792969 46.046875 C 17.910156 46.371094 19.042969 46.609375 20.210938 46.625 C 20.53125 46.632812 20.847656 46.664062 21.167969 46.683594 Z M 21.167969 46.683594 " fill-opacity="1" fill-rule="nonzero"/></g><path fill="#000000" d="M 21.144531 30.4375 C 21.976562 29.625 27.394531 27.824219 28.382812 28.039062 C 28.277344 28.15625 28.148438 28.160156 28.027344 28.183594 C 27.324219 28.308594 26.628906 28.46875 25.941406 28.660156 C 24.523438 29.054688 23.15625 29.578125 21.832031 30.210938 C 21.671875 30.285156 21.511719 30.359375 21.347656 30.429688 C 21.292969 30.453125 21.234375 30.496094 21.144531 30.4375 Z M 21.144531 30.4375 " fill-opacity="1" fill-rule="nonzero"/><path fill="#000000" d="M 19.382812 31.394531 C 19.308594 31.539062 19.207031 31.605469 19.109375 31.675781 C 18.253906 32.28125 17.398438 32.894531 16.582031 33.558594 C 15.5625 34.394531 14.628906 35.3125 13.816406 36.351562 C 13.722656 36.46875 13.644531 36.597656 13.558594 36.71875 C 13.527344 36.757812 13.503906 36.820312 13.417969 36.796875 C 13.402344 36.6875 13.476562 36.609375 13.527344 36.527344 C 13.75 36.160156 14.042969 35.84375 14.324219 35.519531 C 15.28125 34.417969 16.359375 33.449219 17.535156 32.589844 C 18.023438 32.230469 18.515625 31.878906 19.019531 31.550781 C 19.121094 31.484375 19.210938 31.398438 19.382812 31.394531 Z M 19.382812 31.394531 " fill-opacity="1" fill-rule="nonzero"/><path fill="#000000" d="M 40.113281 32.253906 C 40.023438 32.179688 40.03125 32.074219 40.019531 31.976562 C 39.941406 31.335938 39.714844 30.765625 39.257812 30.300781 C 38.984375 30.019531 38.6875 29.765625 38.367188 29.542969 C 37.851562 29.179688 37.289062 28.917969 36.707031 28.691406 C 36.511719 28.613281 36.300781 28.566406 36.101562 28.414062 C 36.238281 28.332031 36.347656 28.382812 36.453125 28.414062 C 37.199219 28.628906 37.898438 28.945312 38.535156 29.402344 C 39.035156 29.761719 39.488281 30.171875 39.8125 30.710938 C 40.074219 31.140625 40.160156 31.613281 40.183594 32.101562 C 40.1875 32.136719 40.175781 32.175781 40.160156 32.210938 C 40.15625 32.226562 40.136719 32.234375 40.113281 32.253906 Z M 40.113281 32.253906 " fill-opacity="1" fill-rule="nonzero"/><path fill="#000000" d="M 13.867188 43.785156 C 13.753906 43.792969 13.703125 43.734375 13.644531 43.691406 C 12.832031 43.058594 12.367188 42.230469 12.230469 41.207031 C 12.113281 40.328125 12.152344 39.457031 12.40625 38.605469 C 12.453125 38.457031 12.472656 38.296875 12.601562 38.1875 C 12.703125 38.238281 12.652344 38.304688 12.636719 38.359375 C 12.578125 38.613281 12.511719 38.867188 12.449219 39.121094 C 12.257812 39.914062 12.289062 40.714844 12.433594 41.507812 C 12.585938 42.339844 13.015625 43.011719 13.671875 43.542969 C 13.746094 43.601562 13.851562 43.644531 13.867188 43.785156 Z M 13.867188 43.785156 " fill-opacity="1" fill-rule="nonzero"/><path fill="#000000" d="M 34.230469 28.132812 C 32.976562 27.976562 31.738281 27.847656 30.488281 27.890625 C 30.589844 27.789062 30.710938 27.777344 30.828125 27.769531 C 31.710938 27.707031 32.585938 27.765625 33.457031 27.898438 C 33.652344 27.925781 33.84375 27.957031 34.035156 27.988281 C 34.101562 28.003906 34.183594 28 34.230469 28.132812 Z M 34.230469 28.132812 " fill-opacity="1" fill-rule="nonzero"/><path fill="#000000" d="M 18.238281 45.339844 C 17.683594 45.484375 15.554688 44.832031 15.136719 44.40625 C 15.285156 44.371094 15.398438 44.449219 15.503906 44.5 C 16.199219 44.824219 16.929688 45.015625 17.671875 45.183594 C 17.847656 45.226562 18.035156 45.210938 18.238281 45.339844 Z M 18.238281 45.339844 " fill-opacity="1" fill-rule="nonzero"/></svg>